%TF.GenerationSoftware,KiCad,Pcbnew,8.0.6*%
%TF.CreationDate,2024-12-06T19:29:04-08:00*%
%TF.ProjectId,ohmnote,6f686d6e-6f74-4652-9e6b-696361645f70,rev?*%
%TF.SameCoordinates,Original*%
%TF.FileFunction,Legend,Top*%
%TF.FilePolarity,Positive*%
%FSLAX46Y46*%
G04 Gerber Fmt 4.6, Leading zero omitted, Abs format (unit mm)*
G04 Created by KiCad (PCBNEW 8.0.6) date 2024-12-06 19:29:04*
%MOMM*%
%LPD*%
G01*
G04 APERTURE LIST*
%ADD10C,0.150000*%
%ADD11C,0.200000*%
%ADD12C,0.100000*%
%ADD13C,0.101600*%
%ADD14C,0.120000*%
%ADD15C,0.127000*%
%ADD16C,0.504000*%
G04 APERTURE END LIST*
D10*
X166110713Y-108429819D02*
X165777380Y-107953628D01*
X165539285Y-108429819D02*
X165539285Y-107429819D01*
X165539285Y-107429819D02*
X165920237Y-107429819D01*
X165920237Y-107429819D02*
X166015475Y-107477438D01*
X166015475Y-107477438D02*
X166063094Y-107525057D01*
X166063094Y-107525057D02*
X166110713Y-107620295D01*
X166110713Y-107620295D02*
X166110713Y-107763152D01*
X166110713Y-107763152D02*
X166063094Y-107858390D01*
X166063094Y-107858390D02*
X166015475Y-107906009D01*
X166015475Y-107906009D02*
X165920237Y-107953628D01*
X165920237Y-107953628D02*
X165539285Y-107953628D01*
X166920237Y-108382200D02*
X166824999Y-108429819D01*
X166824999Y-108429819D02*
X166634523Y-108429819D01*
X166634523Y-108429819D02*
X166539285Y-108382200D01*
X166539285Y-108382200D02*
X166491666Y-108286961D01*
X166491666Y-108286961D02*
X166491666Y-107906009D01*
X166491666Y-107906009D02*
X166539285Y-107810771D01*
X166539285Y-107810771D02*
X166634523Y-107763152D01*
X166634523Y-107763152D02*
X166824999Y-107763152D01*
X166824999Y-107763152D02*
X166920237Y-107810771D01*
X166920237Y-107810771D02*
X166967856Y-107906009D01*
X166967856Y-107906009D02*
X166967856Y-108001247D01*
X166967856Y-108001247D02*
X166491666Y-108096485D01*
X167348809Y-108382200D02*
X167444047Y-108429819D01*
X167444047Y-108429819D02*
X167634523Y-108429819D01*
X167634523Y-108429819D02*
X167729761Y-108382200D01*
X167729761Y-108382200D02*
X167777380Y-108286961D01*
X167777380Y-108286961D02*
X167777380Y-108239342D01*
X167777380Y-108239342D02*
X167729761Y-108144104D01*
X167729761Y-108144104D02*
X167634523Y-108096485D01*
X167634523Y-108096485D02*
X167491666Y-108096485D01*
X167491666Y-108096485D02*
X167396428Y-108048866D01*
X167396428Y-108048866D02*
X167348809Y-107953628D01*
X167348809Y-107953628D02*
X167348809Y-107906009D01*
X167348809Y-107906009D02*
X167396428Y-107810771D01*
X167396428Y-107810771D02*
X167491666Y-107763152D01*
X167491666Y-107763152D02*
X167634523Y-107763152D01*
X167634523Y-107763152D02*
X167729761Y-107810771D01*
X168205952Y-108429819D02*
X168205952Y-107763152D01*
X168205952Y-107429819D02*
X168158333Y-107477438D01*
X168158333Y-107477438D02*
X168205952Y-107525057D01*
X168205952Y-107525057D02*
X168253571Y-107477438D01*
X168253571Y-107477438D02*
X168205952Y-107429819D01*
X168205952Y-107429819D02*
X168205952Y-107525057D01*
X168634523Y-108382200D02*
X168729761Y-108429819D01*
X168729761Y-108429819D02*
X168920237Y-108429819D01*
X168920237Y-108429819D02*
X169015475Y-108382200D01*
X169015475Y-108382200D02*
X169063094Y-108286961D01*
X169063094Y-108286961D02*
X169063094Y-108239342D01*
X169063094Y-108239342D02*
X169015475Y-108144104D01*
X169015475Y-108144104D02*
X168920237Y-108096485D01*
X168920237Y-108096485D02*
X168777380Y-108096485D01*
X168777380Y-108096485D02*
X168682142Y-108048866D01*
X168682142Y-108048866D02*
X168634523Y-107953628D01*
X168634523Y-107953628D02*
X168634523Y-107906009D01*
X168634523Y-107906009D02*
X168682142Y-107810771D01*
X168682142Y-107810771D02*
X168777380Y-107763152D01*
X168777380Y-107763152D02*
X168920237Y-107763152D01*
X168920237Y-107763152D02*
X169015475Y-107810771D01*
X169348809Y-107763152D02*
X169729761Y-107763152D01*
X169491666Y-107429819D02*
X169491666Y-108286961D01*
X169491666Y-108286961D02*
X169539285Y-108382200D01*
X169539285Y-108382200D02*
X169634523Y-108429819D01*
X169634523Y-108429819D02*
X169729761Y-108429819D01*
X170205952Y-108429819D02*
X170110714Y-108382200D01*
X170110714Y-108382200D02*
X170063095Y-108334580D01*
X170063095Y-108334580D02*
X170015476Y-108239342D01*
X170015476Y-108239342D02*
X170015476Y-107953628D01*
X170015476Y-107953628D02*
X170063095Y-107858390D01*
X170063095Y-107858390D02*
X170110714Y-107810771D01*
X170110714Y-107810771D02*
X170205952Y-107763152D01*
X170205952Y-107763152D02*
X170348809Y-107763152D01*
X170348809Y-107763152D02*
X170444047Y-107810771D01*
X170444047Y-107810771D02*
X170491666Y-107858390D01*
X170491666Y-107858390D02*
X170539285Y-107953628D01*
X170539285Y-107953628D02*
X170539285Y-108239342D01*
X170539285Y-108239342D02*
X170491666Y-108334580D01*
X170491666Y-108334580D02*
X170444047Y-108382200D01*
X170444047Y-108382200D02*
X170348809Y-108429819D01*
X170348809Y-108429819D02*
X170205952Y-108429819D01*
X170967857Y-108429819D02*
X170967857Y-107763152D01*
X170967857Y-107953628D02*
X171015476Y-107858390D01*
X171015476Y-107858390D02*
X171063095Y-107810771D01*
X171063095Y-107810771D02*
X171158333Y-107763152D01*
X171158333Y-107763152D02*
X171253571Y-107763152D01*
D11*
G36*
X137282624Y-75828636D02*
G01*
X137355810Y-75843739D01*
X137421945Y-75868610D01*
X137498759Y-75916541D01*
X137562088Y-75980820D01*
X137600409Y-76039407D01*
X137630613Y-76106615D01*
X137652469Y-76182201D01*
X137665751Y-76265917D01*
X137670229Y-76357518D01*
X137665751Y-76449022D01*
X137652469Y-76532642D01*
X137630613Y-76608135D01*
X137600409Y-76675256D01*
X137562088Y-76733763D01*
X137498759Y-76797948D01*
X137421945Y-76845806D01*
X137355810Y-76870637D01*
X137282624Y-76885714D01*
X137202614Y-76890794D01*
X137122523Y-76885714D01*
X137049288Y-76870637D01*
X136983131Y-76845806D01*
X136906319Y-76797948D01*
X136843018Y-76733763D01*
X136804726Y-76675256D01*
X136774555Y-76608135D01*
X136752728Y-76532642D01*
X136739468Y-76449022D01*
X136734998Y-76357518D01*
X137004242Y-76357518D01*
X137009507Y-76436520D01*
X137029272Y-76515369D01*
X137069845Y-76584163D01*
X137128055Y-76626544D01*
X137202614Y-76641005D01*
X137277590Y-76626544D01*
X137335815Y-76584163D01*
X137376198Y-76515369D01*
X137395784Y-76436520D01*
X137400985Y-76357518D01*
X137395784Y-76278145D01*
X137376198Y-76199109D01*
X137335815Y-76130330D01*
X137277590Y-76088070D01*
X137202614Y-76073683D01*
X137128055Y-76088070D01*
X137069845Y-76130330D01*
X137029272Y-76199109D01*
X137009507Y-76278145D01*
X137004242Y-76357518D01*
X136734998Y-76357518D01*
X136739468Y-76265917D01*
X136752728Y-76182201D01*
X136774555Y-76106615D01*
X136804726Y-76039407D01*
X136843018Y-75980820D01*
X136906319Y-75916541D01*
X136983131Y-75868610D01*
X137049288Y-75843739D01*
X137122523Y-75828636D01*
X137202614Y-75823547D01*
X137282624Y-75828636D01*
G37*
G36*
X138541536Y-76868560D02*
G01*
X138804873Y-76868560D01*
X138804873Y-76201878D01*
X138799104Y-76116698D01*
X138782036Y-76041488D01*
X138754034Y-75976676D01*
X138704205Y-75910935D01*
X138638563Y-75862943D01*
X138557817Y-75833535D01*
X138482820Y-75823951D01*
X138462673Y-75823547D01*
X138384973Y-75830743D01*
X138314996Y-75857401D01*
X138259613Y-75912111D01*
X138230220Y-75981344D01*
X138220528Y-76029909D01*
X138195514Y-76029909D01*
X138195514Y-75401095D01*
X137931829Y-75401095D01*
X137931829Y-76868560D01*
X138195514Y-76868560D01*
X138195514Y-76341190D01*
X138200415Y-76263215D01*
X138219170Y-76187290D01*
X138258665Y-76122901D01*
X138316962Y-76084395D01*
X138393886Y-76071599D01*
X138463392Y-76086593D01*
X138515908Y-76136741D01*
X138539053Y-76209779D01*
X138541536Y-76250168D01*
X138541536Y-76868560D01*
G37*
G36*
X139766854Y-76868560D02*
G01*
X140025328Y-76868560D01*
X140025328Y-76066387D01*
X140020786Y-75993414D01*
X140002976Y-75924118D01*
X139957170Y-75860970D01*
X139884723Y-75828918D01*
X139825219Y-75823547D01*
X139750500Y-75836313D01*
X139690313Y-75878336D01*
X139656501Y-75946281D01*
X139651861Y-75971197D01*
X139628585Y-75971197D01*
X139604534Y-75899571D01*
X139553366Y-75844158D01*
X139480552Y-75823690D01*
X139472945Y-75823547D01*
X139400775Y-75838619D01*
X139345060Y-75888575D01*
X139319640Y-75953852D01*
X139316610Y-75971197D01*
X139293333Y-75971197D01*
X139279784Y-75845781D01*
X139043197Y-75845781D01*
X139043197Y-76868560D01*
X139303061Y-76868560D01*
X139303061Y-76183465D01*
X139315148Y-76111135D01*
X139376712Y-76071599D01*
X139432999Y-76112486D01*
X139439246Y-76158104D01*
X139439246Y-76868560D01*
X139634491Y-76868560D01*
X139634491Y-76186244D01*
X139644329Y-76116077D01*
X139700340Y-76071709D01*
X139704668Y-76071599D01*
X139759560Y-76116820D01*
X139766854Y-76177559D01*
X139766854Y-76868560D01*
G37*
G36*
X140873359Y-76868560D02*
G01*
X141136696Y-76868560D01*
X141136696Y-76202920D01*
X141130926Y-76117396D01*
X141113859Y-76041928D01*
X141085857Y-75976930D01*
X141036028Y-75911042D01*
X140970386Y-75862974D01*
X140889640Y-75833539D01*
X140814643Y-75823951D01*
X140794496Y-75823547D01*
X140716796Y-75830743D01*
X140646819Y-75857401D01*
X140591436Y-75912111D01*
X140562043Y-75981344D01*
X140552351Y-76029909D01*
X140523168Y-76029909D01*
X140498849Y-75845781D01*
X140263652Y-75845781D01*
X140263652Y-76868560D01*
X140527337Y-76868560D01*
X140527337Y-76358213D01*
X140532237Y-76275780D01*
X140546896Y-76207552D01*
X140577277Y-76144294D01*
X140630220Y-76095953D01*
X140701840Y-76074779D01*
X140725709Y-76073683D01*
X140795215Y-76089831D01*
X140847731Y-76143969D01*
X140869489Y-76212897D01*
X140873359Y-76266844D01*
X140873359Y-76868560D01*
G37*
G36*
X141946270Y-75828636D02*
G01*
X142019456Y-75843739D01*
X142085590Y-75868610D01*
X142162404Y-75916541D01*
X142225733Y-75980820D01*
X142264055Y-76039407D01*
X142294258Y-76106615D01*
X142316115Y-76182201D01*
X142329397Y-76265917D01*
X142333874Y-76357518D01*
X142329397Y-76449022D01*
X142316115Y-76532642D01*
X142294258Y-76608135D01*
X142264055Y-76675256D01*
X142225733Y-76733763D01*
X142162404Y-76797948D01*
X142085590Y-76845806D01*
X142019456Y-76870637D01*
X141946270Y-76885714D01*
X141866259Y-76890794D01*
X141786169Y-76885714D01*
X141712933Y-76870637D01*
X141646777Y-76845806D01*
X141569965Y-76797948D01*
X141506663Y-76733763D01*
X141468372Y-76675256D01*
X141438201Y-76608135D01*
X141416374Y-76532642D01*
X141403114Y-76449022D01*
X141398644Y-76357518D01*
X141667888Y-76357518D01*
X141673153Y-76436520D01*
X141692917Y-76515369D01*
X141733491Y-76584163D01*
X141791701Y-76626544D01*
X141866259Y-76641005D01*
X141941235Y-76626544D01*
X141999460Y-76584163D01*
X142039844Y-76515369D01*
X142059430Y-76436520D01*
X142064631Y-76357518D01*
X142059430Y-76278145D01*
X142039844Y-76199109D01*
X141999460Y-76130330D01*
X141941235Y-76088070D01*
X141866259Y-76073683D01*
X141791701Y-76088070D01*
X141733491Y-76130330D01*
X141692917Y-76199109D01*
X141673153Y-76278145D01*
X141667888Y-76357518D01*
X141398644Y-76357518D01*
X141403114Y-76265917D01*
X141416374Y-76182201D01*
X141438201Y-76106615D01*
X141468372Y-76039407D01*
X141506663Y-75980820D01*
X141569965Y-75916541D01*
X141646777Y-75868610D01*
X141712933Y-75843739D01*
X141786169Y-75828636D01*
X141866259Y-75823547D01*
X141946270Y-75828636D01*
G37*
G36*
X143251040Y-76890794D02*
G01*
X143325691Y-76888972D01*
X143396360Y-76883477D01*
X143466153Y-76874262D01*
X143505692Y-76867517D01*
X143482415Y-76621898D01*
X143413468Y-76630579D01*
X143340418Y-76637982D01*
X143270495Y-76641005D01*
X143191351Y-76636056D01*
X143116654Y-76616537D01*
X143055675Y-76573877D01*
X143020736Y-76508406D01*
X143009810Y-76433024D01*
X143009589Y-76418662D01*
X143009589Y-76087927D01*
X143466782Y-76087927D01*
X143466782Y-75845781D01*
X143009589Y-75845781D01*
X143009589Y-75534849D01*
X142747294Y-75534849D01*
X142747294Y-75845781D01*
X142500284Y-75845781D01*
X142500284Y-76087927D01*
X142747294Y-76087927D01*
X142747294Y-76443676D01*
X142751237Y-76526791D01*
X142763267Y-76600786D01*
X142792406Y-76685618D01*
X142837168Y-76755094D01*
X142898266Y-76809701D01*
X142976412Y-76849929D01*
X143046638Y-76870957D01*
X143127156Y-76884378D01*
X143218264Y-76890397D01*
X143251040Y-76890794D01*
G37*
G36*
X144247823Y-75825619D02*
G01*
X144322519Y-75836449D01*
X144390249Y-75856459D01*
X144469355Y-75897251D01*
X144535201Y-75953957D01*
X144587286Y-76026345D01*
X144617018Y-76090788D01*
X144638517Y-76163824D01*
X144651571Y-76245355D01*
X144655970Y-76335284D01*
X144654802Y-76396136D01*
X144650064Y-76468342D01*
X143995889Y-76468342D01*
X144031292Y-76535423D01*
X144085071Y-76586461D01*
X144156548Y-76621172D01*
X144231388Y-76637714D01*
X144303000Y-76642048D01*
X144355190Y-76641072D01*
X144432637Y-76636079D01*
X144510193Y-76627098D01*
X144580234Y-76615992D01*
X144605595Y-76863696D01*
X144581042Y-76867836D01*
X144510611Y-76877750D01*
X144434702Y-76885214D01*
X144356473Y-76889539D01*
X144279724Y-76890794D01*
X144214649Y-76888573D01*
X144123982Y-76877013D01*
X144041861Y-76855765D01*
X143968520Y-76825041D01*
X143904194Y-76785052D01*
X143849119Y-76736009D01*
X143803530Y-76678123D01*
X143767662Y-76611607D01*
X143741751Y-76536670D01*
X143726031Y-76453525D01*
X143720739Y-76362382D01*
X143724500Y-76285604D01*
X143983035Y-76285604D01*
X144397496Y-76285604D01*
X144396622Y-76259596D01*
X144380214Y-76180831D01*
X144337502Y-76114971D01*
X144271357Y-76076035D01*
X144195998Y-76064998D01*
X144163809Y-76067064D01*
X144089474Y-76092305D01*
X144033004Y-76145059D01*
X143999373Y-76212610D01*
X143983035Y-76285604D01*
X143724500Y-76285604D01*
X143725264Y-76270018D01*
X143738687Y-76185583D01*
X143760783Y-76109330D01*
X143791328Y-76041510D01*
X143830097Y-75982377D01*
X143894192Y-75917480D01*
X143971974Y-75869073D01*
X144038971Y-75843949D01*
X144113141Y-75828690D01*
X144194261Y-75823547D01*
X144247823Y-75825619D01*
G37*
G36*
X138782291Y-79258192D02*
G01*
X139120670Y-79258192D01*
X139473639Y-78235413D01*
X139205091Y-78235413D01*
X138960166Y-79026816D01*
X138942795Y-79026816D01*
X138697523Y-78235413D01*
X138429322Y-78235413D01*
X138782291Y-79258192D01*
G37*
G36*
X139682781Y-79258192D02*
G01*
X140573195Y-79258192D01*
X140573195Y-79030985D01*
X140274769Y-79030985D01*
X140274769Y-77879665D01*
X140018032Y-77879665D01*
X139702236Y-77996047D01*
X139702236Y-78240625D01*
X140018032Y-78128063D01*
X140018032Y-79030985D01*
X139682781Y-79030985D01*
X139682781Y-79258192D01*
G37*
G36*
X141283303Y-79280426D02*
G01*
X141352265Y-79266475D01*
X141414306Y-79222338D01*
X141452212Y-79156035D01*
X141460136Y-79103594D01*
X141446283Y-79034486D01*
X141402324Y-78972470D01*
X141336002Y-78934655D01*
X141283303Y-78926761D01*
X141214141Y-78940566D01*
X141151989Y-78984435D01*
X141114050Y-79050766D01*
X141106124Y-79103594D01*
X141119982Y-79172262D01*
X141163988Y-79234353D01*
X141230443Y-79272443D01*
X141283303Y-79280426D01*
G37*
G36*
X142014604Y-79258192D02*
G01*
X142905018Y-79258192D01*
X142905018Y-79030985D01*
X142606592Y-79030985D01*
X142606592Y-77879665D01*
X142349855Y-77879665D01*
X142034059Y-77996047D01*
X142034059Y-78240625D01*
X142349855Y-78128063D01*
X142349855Y-79030985D01*
X142014604Y-79030985D01*
X142014604Y-79258192D01*
G37*
D12*
X163603503Y-103265830D02*
X163603503Y-103692115D01*
X163603503Y-103478972D02*
X162857503Y-103478972D01*
X162857503Y-103478972D02*
X162964075Y-103550020D01*
X162964075Y-103550020D02*
X163035122Y-103621068D01*
X163035122Y-103621068D02*
X163070646Y-103692115D01*
X163603503Y-102946115D02*
X162857503Y-102946115D01*
X162857503Y-102946115D02*
X163390360Y-102697449D01*
X163390360Y-102697449D02*
X162857503Y-102448782D01*
X162857503Y-102448782D02*
X163603503Y-102448782D01*
X163603503Y-102129068D02*
X163603503Y-101951449D01*
X163603503Y-101951449D02*
X163461408Y-101951449D01*
X163461408Y-101951449D02*
X163425884Y-102022497D01*
X163425884Y-102022497D02*
X163354837Y-102093544D01*
X163354837Y-102093544D02*
X163248265Y-102129068D01*
X163248265Y-102129068D02*
X163070646Y-102129068D01*
X163070646Y-102129068D02*
X162964075Y-102093544D01*
X162964075Y-102093544D02*
X162893027Y-102022497D01*
X162893027Y-102022497D02*
X162857503Y-101915925D01*
X162857503Y-101915925D02*
X162857503Y-101773830D01*
X162857503Y-101773830D02*
X162893027Y-101667259D01*
X162893027Y-101667259D02*
X162964075Y-101596211D01*
X162964075Y-101596211D02*
X163070646Y-101560687D01*
X163070646Y-101560687D02*
X163248265Y-101560687D01*
X163248265Y-101560687D02*
X163354837Y-101596211D01*
X163354837Y-101596211D02*
X163425884Y-101667259D01*
X163425884Y-101667259D02*
X163461408Y-101738306D01*
X163461408Y-101738306D02*
X163603503Y-101738306D01*
X163603503Y-101738306D02*
X163603503Y-101560687D01*
X154003503Y-103165830D02*
X154003503Y-103592115D01*
X154003503Y-103378972D02*
X153257503Y-103378972D01*
X153257503Y-103378972D02*
X153364075Y-103450020D01*
X153364075Y-103450020D02*
X153435122Y-103521068D01*
X153435122Y-103521068D02*
X153470646Y-103592115D01*
X154003503Y-102846115D02*
X153257503Y-102846115D01*
X154003503Y-102419830D02*
X153577218Y-102739544D01*
X153257503Y-102419830D02*
X153683789Y-102846115D01*
X154003503Y-102135639D02*
X154003503Y-101958020D01*
X154003503Y-101958020D02*
X153861408Y-101958020D01*
X153861408Y-101958020D02*
X153825884Y-102029068D01*
X153825884Y-102029068D02*
X153754837Y-102100115D01*
X153754837Y-102100115D02*
X153648265Y-102135639D01*
X153648265Y-102135639D02*
X153470646Y-102135639D01*
X153470646Y-102135639D02*
X153364075Y-102100115D01*
X153364075Y-102100115D02*
X153293027Y-102029068D01*
X153293027Y-102029068D02*
X153257503Y-101922496D01*
X153257503Y-101922496D02*
X153257503Y-101780401D01*
X153257503Y-101780401D02*
X153293027Y-101673830D01*
X153293027Y-101673830D02*
X153364075Y-101602782D01*
X153364075Y-101602782D02*
X153470646Y-101567258D01*
X153470646Y-101567258D02*
X153648265Y-101567258D01*
X153648265Y-101567258D02*
X153754837Y-101602782D01*
X153754837Y-101602782D02*
X153825884Y-101673830D01*
X153825884Y-101673830D02*
X153861408Y-101744877D01*
X153861408Y-101744877D02*
X154003503Y-101744877D01*
X154003503Y-101744877D02*
X154003503Y-101567258D01*
X160303503Y-104065830D02*
X160303503Y-104492115D01*
X160303503Y-104278972D02*
X159557503Y-104278972D01*
X159557503Y-104278972D02*
X159664075Y-104350020D01*
X159664075Y-104350020D02*
X159735122Y-104421068D01*
X159735122Y-104421068D02*
X159770646Y-104492115D01*
X159557503Y-103604020D02*
X159557503Y-103532973D01*
X159557503Y-103532973D02*
X159593027Y-103461925D01*
X159593027Y-103461925D02*
X159628551Y-103426401D01*
X159628551Y-103426401D02*
X159699599Y-103390877D01*
X159699599Y-103390877D02*
X159841694Y-103355354D01*
X159841694Y-103355354D02*
X160019313Y-103355354D01*
X160019313Y-103355354D02*
X160161408Y-103390877D01*
X160161408Y-103390877D02*
X160232456Y-103426401D01*
X160232456Y-103426401D02*
X160267980Y-103461925D01*
X160267980Y-103461925D02*
X160303503Y-103532973D01*
X160303503Y-103532973D02*
X160303503Y-103604020D01*
X160303503Y-103604020D02*
X160267980Y-103675068D01*
X160267980Y-103675068D02*
X160232456Y-103710592D01*
X160232456Y-103710592D02*
X160161408Y-103746115D01*
X160161408Y-103746115D02*
X160019313Y-103781639D01*
X160019313Y-103781639D02*
X159841694Y-103781639D01*
X159841694Y-103781639D02*
X159699599Y-103746115D01*
X159699599Y-103746115D02*
X159628551Y-103710592D01*
X159628551Y-103710592D02*
X159593027Y-103675068D01*
X159593027Y-103675068D02*
X159557503Y-103604020D01*
X159557503Y-102893544D02*
X159557503Y-102822497D01*
X159557503Y-102822497D02*
X159593027Y-102751449D01*
X159593027Y-102751449D02*
X159628551Y-102715925D01*
X159628551Y-102715925D02*
X159699599Y-102680401D01*
X159699599Y-102680401D02*
X159841694Y-102644878D01*
X159841694Y-102644878D02*
X160019313Y-102644878D01*
X160019313Y-102644878D02*
X160161408Y-102680401D01*
X160161408Y-102680401D02*
X160232456Y-102715925D01*
X160232456Y-102715925D02*
X160267980Y-102751449D01*
X160267980Y-102751449D02*
X160303503Y-102822497D01*
X160303503Y-102822497D02*
X160303503Y-102893544D01*
X160303503Y-102893544D02*
X160267980Y-102964592D01*
X160267980Y-102964592D02*
X160232456Y-103000116D01*
X160232456Y-103000116D02*
X160161408Y-103035639D01*
X160161408Y-103035639D02*
X160019313Y-103071163D01*
X160019313Y-103071163D02*
X159841694Y-103071163D01*
X159841694Y-103071163D02*
X159699599Y-103035639D01*
X159699599Y-103035639D02*
X159628551Y-103000116D01*
X159628551Y-103000116D02*
X159593027Y-102964592D01*
X159593027Y-102964592D02*
X159557503Y-102893544D01*
X160303503Y-102325163D02*
X159557503Y-102325163D01*
X160303503Y-101898878D02*
X159877218Y-102218592D01*
X159557503Y-101898878D02*
X159983789Y-102325163D01*
X160303503Y-101614687D02*
X160303503Y-101437068D01*
X160303503Y-101437068D02*
X160161408Y-101437068D01*
X160161408Y-101437068D02*
X160125884Y-101508116D01*
X160125884Y-101508116D02*
X160054837Y-101579163D01*
X160054837Y-101579163D02*
X159948265Y-101614687D01*
X159948265Y-101614687D02*
X159770646Y-101614687D01*
X159770646Y-101614687D02*
X159664075Y-101579163D01*
X159664075Y-101579163D02*
X159593027Y-101508116D01*
X159593027Y-101508116D02*
X159557503Y-101401544D01*
X159557503Y-101401544D02*
X159557503Y-101259449D01*
X159557503Y-101259449D02*
X159593027Y-101152878D01*
X159593027Y-101152878D02*
X159664075Y-101081830D01*
X159664075Y-101081830D02*
X159770646Y-101046306D01*
X159770646Y-101046306D02*
X159948265Y-101046306D01*
X159948265Y-101046306D02*
X160054837Y-101081830D01*
X160054837Y-101081830D02*
X160125884Y-101152878D01*
X160125884Y-101152878D02*
X160161408Y-101223925D01*
X160161408Y-101223925D02*
X160303503Y-101223925D01*
X160303503Y-101223925D02*
X160303503Y-101046306D01*
X150703503Y-103365830D02*
X150703503Y-103792115D01*
X150703503Y-103578972D02*
X149957503Y-103578972D01*
X149957503Y-103578972D02*
X150064075Y-103650020D01*
X150064075Y-103650020D02*
X150135122Y-103721068D01*
X150135122Y-103721068D02*
X150170646Y-103792115D01*
X149957503Y-102904020D02*
X149957503Y-102832973D01*
X149957503Y-102832973D02*
X149993027Y-102761925D01*
X149993027Y-102761925D02*
X150028551Y-102726401D01*
X150028551Y-102726401D02*
X150099599Y-102690877D01*
X150099599Y-102690877D02*
X150241694Y-102655354D01*
X150241694Y-102655354D02*
X150419313Y-102655354D01*
X150419313Y-102655354D02*
X150561408Y-102690877D01*
X150561408Y-102690877D02*
X150632456Y-102726401D01*
X150632456Y-102726401D02*
X150667980Y-102761925D01*
X150667980Y-102761925D02*
X150703503Y-102832973D01*
X150703503Y-102832973D02*
X150703503Y-102904020D01*
X150703503Y-102904020D02*
X150667980Y-102975068D01*
X150667980Y-102975068D02*
X150632456Y-103010592D01*
X150632456Y-103010592D02*
X150561408Y-103046115D01*
X150561408Y-103046115D02*
X150419313Y-103081639D01*
X150419313Y-103081639D02*
X150241694Y-103081639D01*
X150241694Y-103081639D02*
X150099599Y-103046115D01*
X150099599Y-103046115D02*
X150028551Y-103010592D01*
X150028551Y-103010592D02*
X149993027Y-102975068D01*
X149993027Y-102975068D02*
X149957503Y-102904020D01*
X149957503Y-102193544D02*
X149957503Y-102122497D01*
X149957503Y-102122497D02*
X149993027Y-102051449D01*
X149993027Y-102051449D02*
X150028551Y-102015925D01*
X150028551Y-102015925D02*
X150099599Y-101980401D01*
X150099599Y-101980401D02*
X150241694Y-101944878D01*
X150241694Y-101944878D02*
X150419313Y-101944878D01*
X150419313Y-101944878D02*
X150561408Y-101980401D01*
X150561408Y-101980401D02*
X150632456Y-102015925D01*
X150632456Y-102015925D02*
X150667980Y-102051449D01*
X150667980Y-102051449D02*
X150703503Y-102122497D01*
X150703503Y-102122497D02*
X150703503Y-102193544D01*
X150703503Y-102193544D02*
X150667980Y-102264592D01*
X150667980Y-102264592D02*
X150632456Y-102300116D01*
X150632456Y-102300116D02*
X150561408Y-102335639D01*
X150561408Y-102335639D02*
X150419313Y-102371163D01*
X150419313Y-102371163D02*
X150241694Y-102371163D01*
X150241694Y-102371163D02*
X150099599Y-102335639D01*
X150099599Y-102335639D02*
X150028551Y-102300116D01*
X150028551Y-102300116D02*
X149993027Y-102264592D01*
X149993027Y-102264592D02*
X149957503Y-102193544D01*
X150703503Y-101660687D02*
X150703503Y-101483068D01*
X150703503Y-101483068D02*
X150561408Y-101483068D01*
X150561408Y-101483068D02*
X150525884Y-101554116D01*
X150525884Y-101554116D02*
X150454837Y-101625163D01*
X150454837Y-101625163D02*
X150348265Y-101660687D01*
X150348265Y-101660687D02*
X150170646Y-101660687D01*
X150170646Y-101660687D02*
X150064075Y-101625163D01*
X150064075Y-101625163D02*
X149993027Y-101554116D01*
X149993027Y-101554116D02*
X149957503Y-101447544D01*
X149957503Y-101447544D02*
X149957503Y-101305449D01*
X149957503Y-101305449D02*
X149993027Y-101198878D01*
X149993027Y-101198878D02*
X150064075Y-101127830D01*
X150064075Y-101127830D02*
X150170646Y-101092306D01*
X150170646Y-101092306D02*
X150348265Y-101092306D01*
X150348265Y-101092306D02*
X150454837Y-101127830D01*
X150454837Y-101127830D02*
X150525884Y-101198878D01*
X150525884Y-101198878D02*
X150561408Y-101269925D01*
X150561408Y-101269925D02*
X150703503Y-101269925D01*
X150703503Y-101269925D02*
X150703503Y-101092306D01*
X157203503Y-103665830D02*
X157203503Y-104092115D01*
X157203503Y-103878972D02*
X156457503Y-103878972D01*
X156457503Y-103878972D02*
X156564075Y-103950020D01*
X156564075Y-103950020D02*
X156635122Y-104021068D01*
X156635122Y-104021068D02*
X156670646Y-104092115D01*
X156457503Y-103204020D02*
X156457503Y-103132973D01*
X156457503Y-103132973D02*
X156493027Y-103061925D01*
X156493027Y-103061925D02*
X156528551Y-103026401D01*
X156528551Y-103026401D02*
X156599599Y-102990877D01*
X156599599Y-102990877D02*
X156741694Y-102955354D01*
X156741694Y-102955354D02*
X156919313Y-102955354D01*
X156919313Y-102955354D02*
X157061408Y-102990877D01*
X157061408Y-102990877D02*
X157132456Y-103026401D01*
X157132456Y-103026401D02*
X157167980Y-103061925D01*
X157167980Y-103061925D02*
X157203503Y-103132973D01*
X157203503Y-103132973D02*
X157203503Y-103204020D01*
X157203503Y-103204020D02*
X157167980Y-103275068D01*
X157167980Y-103275068D02*
X157132456Y-103310592D01*
X157132456Y-103310592D02*
X157061408Y-103346115D01*
X157061408Y-103346115D02*
X156919313Y-103381639D01*
X156919313Y-103381639D02*
X156741694Y-103381639D01*
X156741694Y-103381639D02*
X156599599Y-103346115D01*
X156599599Y-103346115D02*
X156528551Y-103310592D01*
X156528551Y-103310592D02*
X156493027Y-103275068D01*
X156493027Y-103275068D02*
X156457503Y-103204020D01*
X157203503Y-102635639D02*
X156457503Y-102635639D01*
X157203503Y-102209354D02*
X156777218Y-102529068D01*
X156457503Y-102209354D02*
X156883789Y-102635639D01*
X157203503Y-101925163D02*
X157203503Y-101747544D01*
X157203503Y-101747544D02*
X157061408Y-101747544D01*
X157061408Y-101747544D02*
X157025884Y-101818592D01*
X157025884Y-101818592D02*
X156954837Y-101889639D01*
X156954837Y-101889639D02*
X156848265Y-101925163D01*
X156848265Y-101925163D02*
X156670646Y-101925163D01*
X156670646Y-101925163D02*
X156564075Y-101889639D01*
X156564075Y-101889639D02*
X156493027Y-101818592D01*
X156493027Y-101818592D02*
X156457503Y-101712020D01*
X156457503Y-101712020D02*
X156457503Y-101569925D01*
X156457503Y-101569925D02*
X156493027Y-101463354D01*
X156493027Y-101463354D02*
X156564075Y-101392306D01*
X156564075Y-101392306D02*
X156670646Y-101356782D01*
X156670646Y-101356782D02*
X156848265Y-101356782D01*
X156848265Y-101356782D02*
X156954837Y-101392306D01*
X156954837Y-101392306D02*
X157025884Y-101463354D01*
X157025884Y-101463354D02*
X157061408Y-101534401D01*
X157061408Y-101534401D02*
X157203503Y-101534401D01*
X157203503Y-101534401D02*
X157203503Y-101356782D01*
D10*
X168166666Y-102679819D02*
X168166666Y-103394104D01*
X168166666Y-103394104D02*
X168119047Y-103536961D01*
X168119047Y-103536961D02*
X168023809Y-103632200D01*
X168023809Y-103632200D02*
X167880952Y-103679819D01*
X167880952Y-103679819D02*
X167785714Y-103679819D01*
X169166666Y-103679819D02*
X168595238Y-103679819D01*
X168880952Y-103679819D02*
X168880952Y-102679819D01*
X168880952Y-102679819D02*
X168785714Y-102822676D01*
X168785714Y-102822676D02*
X168690476Y-102917914D01*
X168690476Y-102917914D02*
X168595238Y-102965533D01*
X135033333Y-97954819D02*
X134700000Y-97478628D01*
X134461905Y-97954819D02*
X134461905Y-96954819D01*
X134461905Y-96954819D02*
X134842857Y-96954819D01*
X134842857Y-96954819D02*
X134938095Y-97002438D01*
X134938095Y-97002438D02*
X134985714Y-97050057D01*
X134985714Y-97050057D02*
X135033333Y-97145295D01*
X135033333Y-97145295D02*
X135033333Y-97288152D01*
X135033333Y-97288152D02*
X134985714Y-97383390D01*
X134985714Y-97383390D02*
X134938095Y-97431009D01*
X134938095Y-97431009D02*
X134842857Y-97478628D01*
X134842857Y-97478628D02*
X134461905Y-97478628D01*
X135938095Y-96954819D02*
X135461905Y-96954819D01*
X135461905Y-96954819D02*
X135414286Y-97431009D01*
X135414286Y-97431009D02*
X135461905Y-97383390D01*
X135461905Y-97383390D02*
X135557143Y-97335771D01*
X135557143Y-97335771D02*
X135795238Y-97335771D01*
X135795238Y-97335771D02*
X135890476Y-97383390D01*
X135890476Y-97383390D02*
X135938095Y-97431009D01*
X135938095Y-97431009D02*
X135985714Y-97526247D01*
X135985714Y-97526247D02*
X135985714Y-97764342D01*
X135985714Y-97764342D02*
X135938095Y-97859580D01*
X135938095Y-97859580D02*
X135890476Y-97907200D01*
X135890476Y-97907200D02*
X135795238Y-97954819D01*
X135795238Y-97954819D02*
X135557143Y-97954819D01*
X135557143Y-97954819D02*
X135461905Y-97907200D01*
X135461905Y-97907200D02*
X135414286Y-97859580D01*
X134933333Y-89954819D02*
X134600000Y-89478628D01*
X134361905Y-89954819D02*
X134361905Y-88954819D01*
X134361905Y-88954819D02*
X134742857Y-88954819D01*
X134742857Y-88954819D02*
X134838095Y-89002438D01*
X134838095Y-89002438D02*
X134885714Y-89050057D01*
X134885714Y-89050057D02*
X134933333Y-89145295D01*
X134933333Y-89145295D02*
X134933333Y-89288152D01*
X134933333Y-89288152D02*
X134885714Y-89383390D01*
X134885714Y-89383390D02*
X134838095Y-89431009D01*
X134838095Y-89431009D02*
X134742857Y-89478628D01*
X134742857Y-89478628D02*
X134361905Y-89478628D01*
X135266667Y-88954819D02*
X135885714Y-88954819D01*
X135885714Y-88954819D02*
X135552381Y-89335771D01*
X135552381Y-89335771D02*
X135695238Y-89335771D01*
X135695238Y-89335771D02*
X135790476Y-89383390D01*
X135790476Y-89383390D02*
X135838095Y-89431009D01*
X135838095Y-89431009D02*
X135885714Y-89526247D01*
X135885714Y-89526247D02*
X135885714Y-89764342D01*
X135885714Y-89764342D02*
X135838095Y-89859580D01*
X135838095Y-89859580D02*
X135790476Y-89907200D01*
X135790476Y-89907200D02*
X135695238Y-89954819D01*
X135695238Y-89954819D02*
X135409524Y-89954819D01*
X135409524Y-89954819D02*
X135314286Y-89907200D01*
X135314286Y-89907200D02*
X135266667Y-89859580D01*
X134933333Y-85954819D02*
X134600000Y-85478628D01*
X134361905Y-85954819D02*
X134361905Y-84954819D01*
X134361905Y-84954819D02*
X134742857Y-84954819D01*
X134742857Y-84954819D02*
X134838095Y-85002438D01*
X134838095Y-85002438D02*
X134885714Y-85050057D01*
X134885714Y-85050057D02*
X134933333Y-85145295D01*
X134933333Y-85145295D02*
X134933333Y-85288152D01*
X134933333Y-85288152D02*
X134885714Y-85383390D01*
X134885714Y-85383390D02*
X134838095Y-85431009D01*
X134838095Y-85431009D02*
X134742857Y-85478628D01*
X134742857Y-85478628D02*
X134361905Y-85478628D01*
X135314286Y-85050057D02*
X135361905Y-85002438D01*
X135361905Y-85002438D02*
X135457143Y-84954819D01*
X135457143Y-84954819D02*
X135695238Y-84954819D01*
X135695238Y-84954819D02*
X135790476Y-85002438D01*
X135790476Y-85002438D02*
X135838095Y-85050057D01*
X135838095Y-85050057D02*
X135885714Y-85145295D01*
X135885714Y-85145295D02*
X135885714Y-85240533D01*
X135885714Y-85240533D02*
X135838095Y-85383390D01*
X135838095Y-85383390D02*
X135266667Y-85954819D01*
X135266667Y-85954819D02*
X135885714Y-85954819D01*
X150133333Y-105754819D02*
X149800000Y-105278628D01*
X149561905Y-105754819D02*
X149561905Y-104754819D01*
X149561905Y-104754819D02*
X149942857Y-104754819D01*
X149942857Y-104754819D02*
X150038095Y-104802438D01*
X150038095Y-104802438D02*
X150085714Y-104850057D01*
X150085714Y-104850057D02*
X150133333Y-104945295D01*
X150133333Y-104945295D02*
X150133333Y-105088152D01*
X150133333Y-105088152D02*
X150085714Y-105183390D01*
X150085714Y-105183390D02*
X150038095Y-105231009D01*
X150038095Y-105231009D02*
X149942857Y-105278628D01*
X149942857Y-105278628D02*
X149561905Y-105278628D01*
X150990476Y-104754819D02*
X150800000Y-104754819D01*
X150800000Y-104754819D02*
X150704762Y-104802438D01*
X150704762Y-104802438D02*
X150657143Y-104850057D01*
X150657143Y-104850057D02*
X150561905Y-104992914D01*
X150561905Y-104992914D02*
X150514286Y-105183390D01*
X150514286Y-105183390D02*
X150514286Y-105564342D01*
X150514286Y-105564342D02*
X150561905Y-105659580D01*
X150561905Y-105659580D02*
X150609524Y-105707200D01*
X150609524Y-105707200D02*
X150704762Y-105754819D01*
X150704762Y-105754819D02*
X150895238Y-105754819D01*
X150895238Y-105754819D02*
X150990476Y-105707200D01*
X150990476Y-105707200D02*
X151038095Y-105659580D01*
X151038095Y-105659580D02*
X151085714Y-105564342D01*
X151085714Y-105564342D02*
X151085714Y-105326247D01*
X151085714Y-105326247D02*
X151038095Y-105231009D01*
X151038095Y-105231009D02*
X150990476Y-105183390D01*
X150990476Y-105183390D02*
X150895238Y-105135771D01*
X150895238Y-105135771D02*
X150704762Y-105135771D01*
X150704762Y-105135771D02*
X150609524Y-105183390D01*
X150609524Y-105183390D02*
X150561905Y-105231009D01*
X150561905Y-105231009D02*
X150514286Y-105326247D01*
D13*
X156796190Y-75554979D02*
X156796190Y-76069026D01*
X156796190Y-76069026D02*
X156826428Y-76129502D01*
X156826428Y-76129502D02*
X156856666Y-76159741D01*
X156856666Y-76159741D02*
X156917142Y-76189979D01*
X156917142Y-76189979D02*
X157038095Y-76189979D01*
X157038095Y-76189979D02*
X157098571Y-76159741D01*
X157098571Y-76159741D02*
X157128809Y-76129502D01*
X157128809Y-76129502D02*
X157159047Y-76069026D01*
X157159047Y-76069026D02*
X157159047Y-75554979D01*
X157794047Y-76189979D02*
X157431190Y-76189979D01*
X157612618Y-76189979D02*
X157612618Y-75554979D01*
X157612618Y-75554979D02*
X157552142Y-75645693D01*
X157552142Y-75645693D02*
X157491666Y-75706169D01*
X157491666Y-75706169D02*
X157431190Y-75736407D01*
D10*
X162457142Y-105854819D02*
X162123809Y-105378628D01*
X161885714Y-105854819D02*
X161885714Y-104854819D01*
X161885714Y-104854819D02*
X162266666Y-104854819D01*
X162266666Y-104854819D02*
X162361904Y-104902438D01*
X162361904Y-104902438D02*
X162409523Y-104950057D01*
X162409523Y-104950057D02*
X162457142Y-105045295D01*
X162457142Y-105045295D02*
X162457142Y-105188152D01*
X162457142Y-105188152D02*
X162409523Y-105283390D01*
X162409523Y-105283390D02*
X162361904Y-105331009D01*
X162361904Y-105331009D02*
X162266666Y-105378628D01*
X162266666Y-105378628D02*
X161885714Y-105378628D01*
X163409523Y-105854819D02*
X162838095Y-105854819D01*
X163123809Y-105854819D02*
X163123809Y-104854819D01*
X163123809Y-104854819D02*
X163028571Y-104997676D01*
X163028571Y-104997676D02*
X162933333Y-105092914D01*
X162933333Y-105092914D02*
X162838095Y-105140533D01*
X164028571Y-104854819D02*
X164123809Y-104854819D01*
X164123809Y-104854819D02*
X164219047Y-104902438D01*
X164219047Y-104902438D02*
X164266666Y-104950057D01*
X164266666Y-104950057D02*
X164314285Y-105045295D01*
X164314285Y-105045295D02*
X164361904Y-105235771D01*
X164361904Y-105235771D02*
X164361904Y-105473866D01*
X164361904Y-105473866D02*
X164314285Y-105664342D01*
X164314285Y-105664342D02*
X164266666Y-105759580D01*
X164266666Y-105759580D02*
X164219047Y-105807200D01*
X164219047Y-105807200D02*
X164123809Y-105854819D01*
X164123809Y-105854819D02*
X164028571Y-105854819D01*
X164028571Y-105854819D02*
X163933333Y-105807200D01*
X163933333Y-105807200D02*
X163885714Y-105759580D01*
X163885714Y-105759580D02*
X163838095Y-105664342D01*
X163838095Y-105664342D02*
X163790476Y-105473866D01*
X163790476Y-105473866D02*
X163790476Y-105235771D01*
X163790476Y-105235771D02*
X163838095Y-105045295D01*
X163838095Y-105045295D02*
X163885714Y-104950057D01*
X163885714Y-104950057D02*
X163933333Y-104902438D01*
X163933333Y-104902438D02*
X164028571Y-104854819D01*
X168258333Y-98084580D02*
X168210714Y-98132200D01*
X168210714Y-98132200D02*
X168067857Y-98179819D01*
X168067857Y-98179819D02*
X167972619Y-98179819D01*
X167972619Y-98179819D02*
X167829762Y-98132200D01*
X167829762Y-98132200D02*
X167734524Y-98036961D01*
X167734524Y-98036961D02*
X167686905Y-97941723D01*
X167686905Y-97941723D02*
X167639286Y-97751247D01*
X167639286Y-97751247D02*
X167639286Y-97608390D01*
X167639286Y-97608390D02*
X167686905Y-97417914D01*
X167686905Y-97417914D02*
X167734524Y-97322676D01*
X167734524Y-97322676D02*
X167829762Y-97227438D01*
X167829762Y-97227438D02*
X167972619Y-97179819D01*
X167972619Y-97179819D02*
X168067857Y-97179819D01*
X168067857Y-97179819D02*
X168210714Y-97227438D01*
X168210714Y-97227438D02*
X168258333Y-97275057D01*
X169210714Y-98179819D02*
X168639286Y-98179819D01*
X168925000Y-98179819D02*
X168925000Y-97179819D01*
X168925000Y-97179819D02*
X168829762Y-97322676D01*
X168829762Y-97322676D02*
X168734524Y-97417914D01*
X168734524Y-97417914D02*
X168639286Y-97465533D01*
X127950057Y-104625238D02*
X127902438Y-104720476D01*
X127902438Y-104720476D02*
X127807200Y-104815714D01*
X127807200Y-104815714D02*
X127664342Y-104958571D01*
X127664342Y-104958571D02*
X127616723Y-105053809D01*
X127616723Y-105053809D02*
X127616723Y-105149047D01*
X127854819Y-105101428D02*
X127807200Y-105196666D01*
X127807200Y-105196666D02*
X127711961Y-105291904D01*
X127711961Y-105291904D02*
X127521485Y-105339523D01*
X127521485Y-105339523D02*
X127188152Y-105339523D01*
X127188152Y-105339523D02*
X126997676Y-105291904D01*
X126997676Y-105291904D02*
X126902438Y-105196666D01*
X126902438Y-105196666D02*
X126854819Y-105101428D01*
X126854819Y-105101428D02*
X126854819Y-104910952D01*
X126854819Y-104910952D02*
X126902438Y-104815714D01*
X126902438Y-104815714D02*
X126997676Y-104720476D01*
X126997676Y-104720476D02*
X127188152Y-104672857D01*
X127188152Y-104672857D02*
X127521485Y-104672857D01*
X127521485Y-104672857D02*
X127711961Y-104720476D01*
X127711961Y-104720476D02*
X127807200Y-104815714D01*
X127807200Y-104815714D02*
X127854819Y-104910952D01*
X127854819Y-104910952D02*
X127854819Y-105101428D01*
X126854819Y-103768095D02*
X126854819Y-104244285D01*
X126854819Y-104244285D02*
X127331009Y-104291904D01*
X127331009Y-104291904D02*
X127283390Y-104244285D01*
X127283390Y-104244285D02*
X127235771Y-104149047D01*
X127235771Y-104149047D02*
X127235771Y-103910952D01*
X127235771Y-103910952D02*
X127283390Y-103815714D01*
X127283390Y-103815714D02*
X127331009Y-103768095D01*
X127331009Y-103768095D02*
X127426247Y-103720476D01*
X127426247Y-103720476D02*
X127664342Y-103720476D01*
X127664342Y-103720476D02*
X127759580Y-103768095D01*
X127759580Y-103768095D02*
X127807200Y-103815714D01*
X127807200Y-103815714D02*
X127854819Y-103910952D01*
X127854819Y-103910952D02*
X127854819Y-104149047D01*
X127854819Y-104149047D02*
X127807200Y-104244285D01*
X127807200Y-104244285D02*
X127759580Y-104291904D01*
X156533333Y-105854819D02*
X156200000Y-105378628D01*
X155961905Y-105854819D02*
X155961905Y-104854819D01*
X155961905Y-104854819D02*
X156342857Y-104854819D01*
X156342857Y-104854819D02*
X156438095Y-104902438D01*
X156438095Y-104902438D02*
X156485714Y-104950057D01*
X156485714Y-104950057D02*
X156533333Y-105045295D01*
X156533333Y-105045295D02*
X156533333Y-105188152D01*
X156533333Y-105188152D02*
X156485714Y-105283390D01*
X156485714Y-105283390D02*
X156438095Y-105331009D01*
X156438095Y-105331009D02*
X156342857Y-105378628D01*
X156342857Y-105378628D02*
X155961905Y-105378628D01*
X157104762Y-105283390D02*
X157009524Y-105235771D01*
X157009524Y-105235771D02*
X156961905Y-105188152D01*
X156961905Y-105188152D02*
X156914286Y-105092914D01*
X156914286Y-105092914D02*
X156914286Y-105045295D01*
X156914286Y-105045295D02*
X156961905Y-104950057D01*
X156961905Y-104950057D02*
X157009524Y-104902438D01*
X157009524Y-104902438D02*
X157104762Y-104854819D01*
X157104762Y-104854819D02*
X157295238Y-104854819D01*
X157295238Y-104854819D02*
X157390476Y-104902438D01*
X157390476Y-104902438D02*
X157438095Y-104950057D01*
X157438095Y-104950057D02*
X157485714Y-105045295D01*
X157485714Y-105045295D02*
X157485714Y-105092914D01*
X157485714Y-105092914D02*
X157438095Y-105188152D01*
X157438095Y-105188152D02*
X157390476Y-105235771D01*
X157390476Y-105235771D02*
X157295238Y-105283390D01*
X157295238Y-105283390D02*
X157104762Y-105283390D01*
X157104762Y-105283390D02*
X157009524Y-105331009D01*
X157009524Y-105331009D02*
X156961905Y-105378628D01*
X156961905Y-105378628D02*
X156914286Y-105473866D01*
X156914286Y-105473866D02*
X156914286Y-105664342D01*
X156914286Y-105664342D02*
X156961905Y-105759580D01*
X156961905Y-105759580D02*
X157009524Y-105807200D01*
X157009524Y-105807200D02*
X157104762Y-105854819D01*
X157104762Y-105854819D02*
X157295238Y-105854819D01*
X157295238Y-105854819D02*
X157390476Y-105807200D01*
X157390476Y-105807200D02*
X157438095Y-105759580D01*
X157438095Y-105759580D02*
X157485714Y-105664342D01*
X157485714Y-105664342D02*
X157485714Y-105473866D01*
X157485714Y-105473866D02*
X157438095Y-105378628D01*
X157438095Y-105378628D02*
X157390476Y-105331009D01*
X157390476Y-105331009D02*
X157295238Y-105283390D01*
X134933333Y-93854819D02*
X134600000Y-93378628D01*
X134361905Y-93854819D02*
X134361905Y-92854819D01*
X134361905Y-92854819D02*
X134742857Y-92854819D01*
X134742857Y-92854819D02*
X134838095Y-92902438D01*
X134838095Y-92902438D02*
X134885714Y-92950057D01*
X134885714Y-92950057D02*
X134933333Y-93045295D01*
X134933333Y-93045295D02*
X134933333Y-93188152D01*
X134933333Y-93188152D02*
X134885714Y-93283390D01*
X134885714Y-93283390D02*
X134838095Y-93331009D01*
X134838095Y-93331009D02*
X134742857Y-93378628D01*
X134742857Y-93378628D02*
X134361905Y-93378628D01*
X135790476Y-93188152D02*
X135790476Y-93854819D01*
X135552381Y-92807200D02*
X135314286Y-93521485D01*
X135314286Y-93521485D02*
X135933333Y-93521485D01*
X168933333Y-80684580D02*
X168885714Y-80732200D01*
X168885714Y-80732200D02*
X168742857Y-80779819D01*
X168742857Y-80779819D02*
X168647619Y-80779819D01*
X168647619Y-80779819D02*
X168504762Y-80732200D01*
X168504762Y-80732200D02*
X168409524Y-80636961D01*
X168409524Y-80636961D02*
X168361905Y-80541723D01*
X168361905Y-80541723D02*
X168314286Y-80351247D01*
X168314286Y-80351247D02*
X168314286Y-80208390D01*
X168314286Y-80208390D02*
X168361905Y-80017914D01*
X168361905Y-80017914D02*
X168409524Y-79922676D01*
X168409524Y-79922676D02*
X168504762Y-79827438D01*
X168504762Y-79827438D02*
X168647619Y-79779819D01*
X168647619Y-79779819D02*
X168742857Y-79779819D01*
X168742857Y-79779819D02*
X168885714Y-79827438D01*
X168885714Y-79827438D02*
X168933333Y-79875057D01*
X169314286Y-79875057D02*
X169361905Y-79827438D01*
X169361905Y-79827438D02*
X169457143Y-79779819D01*
X169457143Y-79779819D02*
X169695238Y-79779819D01*
X169695238Y-79779819D02*
X169790476Y-79827438D01*
X169790476Y-79827438D02*
X169838095Y-79875057D01*
X169838095Y-79875057D02*
X169885714Y-79970295D01*
X169885714Y-79970295D02*
X169885714Y-80065533D01*
X169885714Y-80065533D02*
X169838095Y-80208390D01*
X169838095Y-80208390D02*
X169266667Y-80779819D01*
X169266667Y-80779819D02*
X169885714Y-80779819D01*
X127950057Y-85225238D02*
X127902438Y-85320476D01*
X127902438Y-85320476D02*
X127807200Y-85415714D01*
X127807200Y-85415714D02*
X127664342Y-85558571D01*
X127664342Y-85558571D02*
X127616723Y-85653809D01*
X127616723Y-85653809D02*
X127616723Y-85749047D01*
X127854819Y-85701428D02*
X127807200Y-85796666D01*
X127807200Y-85796666D02*
X127711961Y-85891904D01*
X127711961Y-85891904D02*
X127521485Y-85939523D01*
X127521485Y-85939523D02*
X127188152Y-85939523D01*
X127188152Y-85939523D02*
X126997676Y-85891904D01*
X126997676Y-85891904D02*
X126902438Y-85796666D01*
X126902438Y-85796666D02*
X126854819Y-85701428D01*
X126854819Y-85701428D02*
X126854819Y-85510952D01*
X126854819Y-85510952D02*
X126902438Y-85415714D01*
X126902438Y-85415714D02*
X126997676Y-85320476D01*
X126997676Y-85320476D02*
X127188152Y-85272857D01*
X127188152Y-85272857D02*
X127521485Y-85272857D01*
X127521485Y-85272857D02*
X127711961Y-85320476D01*
X127711961Y-85320476D02*
X127807200Y-85415714D01*
X127807200Y-85415714D02*
X127854819Y-85510952D01*
X127854819Y-85510952D02*
X127854819Y-85701428D01*
X126950057Y-84891904D02*
X126902438Y-84844285D01*
X126902438Y-84844285D02*
X126854819Y-84749047D01*
X126854819Y-84749047D02*
X126854819Y-84510952D01*
X126854819Y-84510952D02*
X126902438Y-84415714D01*
X126902438Y-84415714D02*
X126950057Y-84368095D01*
X126950057Y-84368095D02*
X127045295Y-84320476D01*
X127045295Y-84320476D02*
X127140533Y-84320476D01*
X127140533Y-84320476D02*
X127283390Y-84368095D01*
X127283390Y-84368095D02*
X127854819Y-84939523D01*
X127854819Y-84939523D02*
X127854819Y-84320476D01*
X136966666Y-102154819D02*
X136966666Y-102869104D01*
X136966666Y-102869104D02*
X136919047Y-103011961D01*
X136919047Y-103011961D02*
X136823809Y-103107200D01*
X136823809Y-103107200D02*
X136680952Y-103154819D01*
X136680952Y-103154819D02*
X136585714Y-103154819D01*
X137395238Y-102250057D02*
X137442857Y-102202438D01*
X137442857Y-102202438D02*
X137538095Y-102154819D01*
X137538095Y-102154819D02*
X137776190Y-102154819D01*
X137776190Y-102154819D02*
X137871428Y-102202438D01*
X137871428Y-102202438D02*
X137919047Y-102250057D01*
X137919047Y-102250057D02*
X137966666Y-102345295D01*
X137966666Y-102345295D02*
X137966666Y-102440533D01*
X137966666Y-102440533D02*
X137919047Y-102583390D01*
X137919047Y-102583390D02*
X137347619Y-103154819D01*
X137347619Y-103154819D02*
X137966666Y-103154819D01*
X137152381Y-108454819D02*
X137152381Y-107454819D01*
X137580952Y-107550057D02*
X137628571Y-107502438D01*
X137628571Y-107502438D02*
X137723809Y-107454819D01*
X137723809Y-107454819D02*
X137961904Y-107454819D01*
X137961904Y-107454819D02*
X138057142Y-107502438D01*
X138057142Y-107502438D02*
X138104761Y-107550057D01*
X138104761Y-107550057D02*
X138152380Y-107645295D01*
X138152380Y-107645295D02*
X138152380Y-107740533D01*
X138152380Y-107740533D02*
X138104761Y-107883390D01*
X138104761Y-107883390D02*
X137533333Y-108454819D01*
X137533333Y-108454819D02*
X138152380Y-108454819D01*
X139152380Y-108359580D02*
X139104761Y-108407200D01*
X139104761Y-108407200D02*
X138961904Y-108454819D01*
X138961904Y-108454819D02*
X138866666Y-108454819D01*
X138866666Y-108454819D02*
X138723809Y-108407200D01*
X138723809Y-108407200D02*
X138628571Y-108311961D01*
X138628571Y-108311961D02*
X138580952Y-108216723D01*
X138580952Y-108216723D02*
X138533333Y-108026247D01*
X138533333Y-108026247D02*
X138533333Y-107883390D01*
X138533333Y-107883390D02*
X138580952Y-107692914D01*
X138580952Y-107692914D02*
X138628571Y-107597676D01*
X138628571Y-107597676D02*
X138723809Y-107502438D01*
X138723809Y-107502438D02*
X138866666Y-107454819D01*
X138866666Y-107454819D02*
X138961904Y-107454819D01*
X138961904Y-107454819D02*
X139104761Y-107502438D01*
X139104761Y-107502438D02*
X139152380Y-107550057D01*
X140342857Y-108454819D02*
X140342857Y-107454819D01*
X140342857Y-107454819D02*
X140580952Y-107454819D01*
X140580952Y-107454819D02*
X140723809Y-107502438D01*
X140723809Y-107502438D02*
X140819047Y-107597676D01*
X140819047Y-107597676D02*
X140866666Y-107692914D01*
X140866666Y-107692914D02*
X140914285Y-107883390D01*
X140914285Y-107883390D02*
X140914285Y-108026247D01*
X140914285Y-108026247D02*
X140866666Y-108216723D01*
X140866666Y-108216723D02*
X140819047Y-108311961D01*
X140819047Y-108311961D02*
X140723809Y-108407200D01*
X140723809Y-108407200D02*
X140580952Y-108454819D01*
X140580952Y-108454819D02*
X140342857Y-108454819D01*
X141342857Y-108454819D02*
X141342857Y-107788152D01*
X141342857Y-107454819D02*
X141295238Y-107502438D01*
X141295238Y-107502438D02*
X141342857Y-107550057D01*
X141342857Y-107550057D02*
X141390476Y-107502438D01*
X141390476Y-107502438D02*
X141342857Y-107454819D01*
X141342857Y-107454819D02*
X141342857Y-107550057D01*
X141771428Y-108407200D02*
X141866666Y-108454819D01*
X141866666Y-108454819D02*
X142057142Y-108454819D01*
X142057142Y-108454819D02*
X142152380Y-108407200D01*
X142152380Y-108407200D02*
X142199999Y-108311961D01*
X142199999Y-108311961D02*
X142199999Y-108264342D01*
X142199999Y-108264342D02*
X142152380Y-108169104D01*
X142152380Y-108169104D02*
X142057142Y-108121485D01*
X142057142Y-108121485D02*
X141914285Y-108121485D01*
X141914285Y-108121485D02*
X141819047Y-108073866D01*
X141819047Y-108073866D02*
X141771428Y-107978628D01*
X141771428Y-107978628D02*
X141771428Y-107931009D01*
X141771428Y-107931009D02*
X141819047Y-107835771D01*
X141819047Y-107835771D02*
X141914285Y-107788152D01*
X141914285Y-107788152D02*
X142057142Y-107788152D01*
X142057142Y-107788152D02*
X142152380Y-107835771D01*
X142628571Y-107788152D02*
X142628571Y-108788152D01*
X142628571Y-107835771D02*
X142723809Y-107788152D01*
X142723809Y-107788152D02*
X142914285Y-107788152D01*
X142914285Y-107788152D02*
X143009523Y-107835771D01*
X143009523Y-107835771D02*
X143057142Y-107883390D01*
X143057142Y-107883390D02*
X143104761Y-107978628D01*
X143104761Y-107978628D02*
X143104761Y-108264342D01*
X143104761Y-108264342D02*
X143057142Y-108359580D01*
X143057142Y-108359580D02*
X143009523Y-108407200D01*
X143009523Y-108407200D02*
X142914285Y-108454819D01*
X142914285Y-108454819D02*
X142723809Y-108454819D01*
X142723809Y-108454819D02*
X142628571Y-108407200D01*
X143676190Y-108454819D02*
X143580952Y-108407200D01*
X143580952Y-108407200D02*
X143533333Y-108311961D01*
X143533333Y-108311961D02*
X143533333Y-107454819D01*
X144485714Y-108454819D02*
X144485714Y-107931009D01*
X144485714Y-107931009D02*
X144438095Y-107835771D01*
X144438095Y-107835771D02*
X144342857Y-107788152D01*
X144342857Y-107788152D02*
X144152381Y-107788152D01*
X144152381Y-107788152D02*
X144057143Y-107835771D01*
X144485714Y-108407200D02*
X144390476Y-108454819D01*
X144390476Y-108454819D02*
X144152381Y-108454819D01*
X144152381Y-108454819D02*
X144057143Y-108407200D01*
X144057143Y-108407200D02*
X144009524Y-108311961D01*
X144009524Y-108311961D02*
X144009524Y-108216723D01*
X144009524Y-108216723D02*
X144057143Y-108121485D01*
X144057143Y-108121485D02*
X144152381Y-108073866D01*
X144152381Y-108073866D02*
X144390476Y-108073866D01*
X144390476Y-108073866D02*
X144485714Y-108026247D01*
X144866667Y-107788152D02*
X145104762Y-108454819D01*
X145342857Y-107788152D02*
X145104762Y-108454819D01*
X145104762Y-108454819D02*
X145009524Y-108692914D01*
X145009524Y-108692914D02*
X144961905Y-108740533D01*
X144961905Y-108740533D02*
X144866667Y-108788152D01*
X153333333Y-105854819D02*
X153000000Y-105378628D01*
X152761905Y-105854819D02*
X152761905Y-104854819D01*
X152761905Y-104854819D02*
X153142857Y-104854819D01*
X153142857Y-104854819D02*
X153238095Y-104902438D01*
X153238095Y-104902438D02*
X153285714Y-104950057D01*
X153285714Y-104950057D02*
X153333333Y-105045295D01*
X153333333Y-105045295D02*
X153333333Y-105188152D01*
X153333333Y-105188152D02*
X153285714Y-105283390D01*
X153285714Y-105283390D02*
X153238095Y-105331009D01*
X153238095Y-105331009D02*
X153142857Y-105378628D01*
X153142857Y-105378628D02*
X152761905Y-105378628D01*
X153666667Y-104854819D02*
X154333333Y-104854819D01*
X154333333Y-104854819D02*
X153904762Y-105854819D01*
X127950057Y-91295238D02*
X127902438Y-91390476D01*
X127902438Y-91390476D02*
X127807200Y-91485714D01*
X127807200Y-91485714D02*
X127664342Y-91628571D01*
X127664342Y-91628571D02*
X127616723Y-91723809D01*
X127616723Y-91723809D02*
X127616723Y-91819047D01*
X127854819Y-91771428D02*
X127807200Y-91866666D01*
X127807200Y-91866666D02*
X127711961Y-91961904D01*
X127711961Y-91961904D02*
X127521485Y-92009523D01*
X127521485Y-92009523D02*
X127188152Y-92009523D01*
X127188152Y-92009523D02*
X126997676Y-91961904D01*
X126997676Y-91961904D02*
X126902438Y-91866666D01*
X126902438Y-91866666D02*
X126854819Y-91771428D01*
X126854819Y-91771428D02*
X126854819Y-91580952D01*
X126854819Y-91580952D02*
X126902438Y-91485714D01*
X126902438Y-91485714D02*
X126997676Y-91390476D01*
X126997676Y-91390476D02*
X127188152Y-91342857D01*
X127188152Y-91342857D02*
X127521485Y-91342857D01*
X127521485Y-91342857D02*
X127711961Y-91390476D01*
X127711961Y-91390476D02*
X127807200Y-91485714D01*
X127807200Y-91485714D02*
X127854819Y-91580952D01*
X127854819Y-91580952D02*
X127854819Y-91771428D01*
X126854819Y-91009523D02*
X126854819Y-90390476D01*
X126854819Y-90390476D02*
X127235771Y-90723809D01*
X127235771Y-90723809D02*
X127235771Y-90580952D01*
X127235771Y-90580952D02*
X127283390Y-90485714D01*
X127283390Y-90485714D02*
X127331009Y-90438095D01*
X127331009Y-90438095D02*
X127426247Y-90390476D01*
X127426247Y-90390476D02*
X127664342Y-90390476D01*
X127664342Y-90390476D02*
X127759580Y-90438095D01*
X127759580Y-90438095D02*
X127807200Y-90485714D01*
X127807200Y-90485714D02*
X127854819Y-90580952D01*
X127854819Y-90580952D02*
X127854819Y-90866666D01*
X127854819Y-90866666D02*
X127807200Y-90961904D01*
X127807200Y-90961904D02*
X127759580Y-91009523D01*
X134933333Y-81854819D02*
X134600000Y-81378628D01*
X134361905Y-81854819D02*
X134361905Y-80854819D01*
X134361905Y-80854819D02*
X134742857Y-80854819D01*
X134742857Y-80854819D02*
X134838095Y-80902438D01*
X134838095Y-80902438D02*
X134885714Y-80950057D01*
X134885714Y-80950057D02*
X134933333Y-81045295D01*
X134933333Y-81045295D02*
X134933333Y-81188152D01*
X134933333Y-81188152D02*
X134885714Y-81283390D01*
X134885714Y-81283390D02*
X134838095Y-81331009D01*
X134838095Y-81331009D02*
X134742857Y-81378628D01*
X134742857Y-81378628D02*
X134361905Y-81378628D01*
X135885714Y-81854819D02*
X135314286Y-81854819D01*
X135600000Y-81854819D02*
X135600000Y-80854819D01*
X135600000Y-80854819D02*
X135504762Y-80997676D01*
X135504762Y-80997676D02*
X135409524Y-81092914D01*
X135409524Y-81092914D02*
X135314286Y-81140533D01*
X127950057Y-98095238D02*
X127902438Y-98190476D01*
X127902438Y-98190476D02*
X127807200Y-98285714D01*
X127807200Y-98285714D02*
X127664342Y-98428571D01*
X127664342Y-98428571D02*
X127616723Y-98523809D01*
X127616723Y-98523809D02*
X127616723Y-98619047D01*
X127854819Y-98571428D02*
X127807200Y-98666666D01*
X127807200Y-98666666D02*
X127711961Y-98761904D01*
X127711961Y-98761904D02*
X127521485Y-98809523D01*
X127521485Y-98809523D02*
X127188152Y-98809523D01*
X127188152Y-98809523D02*
X126997676Y-98761904D01*
X126997676Y-98761904D02*
X126902438Y-98666666D01*
X126902438Y-98666666D02*
X126854819Y-98571428D01*
X126854819Y-98571428D02*
X126854819Y-98380952D01*
X126854819Y-98380952D02*
X126902438Y-98285714D01*
X126902438Y-98285714D02*
X126997676Y-98190476D01*
X126997676Y-98190476D02*
X127188152Y-98142857D01*
X127188152Y-98142857D02*
X127521485Y-98142857D01*
X127521485Y-98142857D02*
X127711961Y-98190476D01*
X127711961Y-98190476D02*
X127807200Y-98285714D01*
X127807200Y-98285714D02*
X127854819Y-98380952D01*
X127854819Y-98380952D02*
X127854819Y-98571428D01*
X127188152Y-97285714D02*
X127854819Y-97285714D01*
X126807200Y-97523809D02*
X127521485Y-97761904D01*
X127521485Y-97761904D02*
X127521485Y-97142857D01*
X127950057Y-78695238D02*
X127902438Y-78790476D01*
X127902438Y-78790476D02*
X127807200Y-78885714D01*
X127807200Y-78885714D02*
X127664342Y-79028571D01*
X127664342Y-79028571D02*
X127616723Y-79123809D01*
X127616723Y-79123809D02*
X127616723Y-79219047D01*
X127854819Y-79171428D02*
X127807200Y-79266666D01*
X127807200Y-79266666D02*
X127711961Y-79361904D01*
X127711961Y-79361904D02*
X127521485Y-79409523D01*
X127521485Y-79409523D02*
X127188152Y-79409523D01*
X127188152Y-79409523D02*
X126997676Y-79361904D01*
X126997676Y-79361904D02*
X126902438Y-79266666D01*
X126902438Y-79266666D02*
X126854819Y-79171428D01*
X126854819Y-79171428D02*
X126854819Y-78980952D01*
X126854819Y-78980952D02*
X126902438Y-78885714D01*
X126902438Y-78885714D02*
X126997676Y-78790476D01*
X126997676Y-78790476D02*
X127188152Y-78742857D01*
X127188152Y-78742857D02*
X127521485Y-78742857D01*
X127521485Y-78742857D02*
X127711961Y-78790476D01*
X127711961Y-78790476D02*
X127807200Y-78885714D01*
X127807200Y-78885714D02*
X127854819Y-78980952D01*
X127854819Y-78980952D02*
X127854819Y-79171428D01*
X127854819Y-77790476D02*
X127854819Y-78361904D01*
X127854819Y-78076190D02*
X126854819Y-78076190D01*
X126854819Y-78076190D02*
X126997676Y-78171428D01*
X126997676Y-78171428D02*
X127092914Y-78266666D01*
X127092914Y-78266666D02*
X127140533Y-78361904D01*
X159733333Y-105854819D02*
X159400000Y-105378628D01*
X159161905Y-105854819D02*
X159161905Y-104854819D01*
X159161905Y-104854819D02*
X159542857Y-104854819D01*
X159542857Y-104854819D02*
X159638095Y-104902438D01*
X159638095Y-104902438D02*
X159685714Y-104950057D01*
X159685714Y-104950057D02*
X159733333Y-105045295D01*
X159733333Y-105045295D02*
X159733333Y-105188152D01*
X159733333Y-105188152D02*
X159685714Y-105283390D01*
X159685714Y-105283390D02*
X159638095Y-105331009D01*
X159638095Y-105331009D02*
X159542857Y-105378628D01*
X159542857Y-105378628D02*
X159161905Y-105378628D01*
X160209524Y-105854819D02*
X160400000Y-105854819D01*
X160400000Y-105854819D02*
X160495238Y-105807200D01*
X160495238Y-105807200D02*
X160542857Y-105759580D01*
X160542857Y-105759580D02*
X160638095Y-105616723D01*
X160638095Y-105616723D02*
X160685714Y-105426247D01*
X160685714Y-105426247D02*
X160685714Y-105045295D01*
X160685714Y-105045295D02*
X160638095Y-104950057D01*
X160638095Y-104950057D02*
X160590476Y-104902438D01*
X160590476Y-104902438D02*
X160495238Y-104854819D01*
X160495238Y-104854819D02*
X160304762Y-104854819D01*
X160304762Y-104854819D02*
X160209524Y-104902438D01*
X160209524Y-104902438D02*
X160161905Y-104950057D01*
X160161905Y-104950057D02*
X160114286Y-105045295D01*
X160114286Y-105045295D02*
X160114286Y-105283390D01*
X160114286Y-105283390D02*
X160161905Y-105378628D01*
X160161905Y-105378628D02*
X160209524Y-105426247D01*
X160209524Y-105426247D02*
X160304762Y-105473866D01*
X160304762Y-105473866D02*
X160495238Y-105473866D01*
X160495238Y-105473866D02*
X160590476Y-105426247D01*
X160590476Y-105426247D02*
X160638095Y-105378628D01*
X160638095Y-105378628D02*
X160685714Y-105283390D01*
D14*
%TO.C,J1*%
X165630000Y-103995000D02*
X165630000Y-106655000D01*
X168230000Y-103995000D02*
X165630000Y-103995000D01*
X168230000Y-103995000D02*
X168230000Y-106655000D01*
X168230000Y-106655000D02*
X165630000Y-106655000D01*
X170830000Y-105325000D02*
X170830000Y-106655000D01*
X170830000Y-106655000D02*
X169500000Y-106655000D01*
%TO.C,R5*%
X137720000Y-96130000D02*
X137720000Y-96460000D01*
X137720000Y-98870000D02*
X137720000Y-98540000D01*
X144260000Y-96130000D02*
X137720000Y-96130000D01*
X144260000Y-96460000D02*
X144260000Y-96130000D01*
X144260000Y-98540000D02*
X144260000Y-98870000D01*
X144260000Y-98870000D02*
X137720000Y-98870000D01*
%TO.C,R3*%
X137620000Y-88130000D02*
X137620000Y-88460000D01*
X137620000Y-90870000D02*
X137620000Y-90540000D01*
X144160000Y-88130000D02*
X137620000Y-88130000D01*
X144160000Y-88460000D02*
X144160000Y-88130000D01*
X144160000Y-90540000D02*
X144160000Y-90870000D01*
X144160000Y-90870000D02*
X137620000Y-90870000D01*
%TO.C,R2*%
X137620000Y-84130000D02*
X137620000Y-84460000D01*
X137620000Y-86870000D02*
X137620000Y-86540000D01*
X144160000Y-84130000D02*
X137620000Y-84130000D01*
X144160000Y-84460000D02*
X144160000Y-84130000D01*
X144160000Y-86540000D02*
X144160000Y-86870000D01*
X144160000Y-86870000D02*
X137620000Y-86870000D01*
%TO.C,R6*%
X149030000Y-100150000D02*
X149360000Y-100150000D01*
X149030000Y-106690000D02*
X149030000Y-100150000D01*
X149360000Y-106690000D02*
X149030000Y-106690000D01*
X151440000Y-106690000D02*
X151770000Y-106690000D01*
X151770000Y-100150000D02*
X151440000Y-100150000D01*
X151770000Y-106690000D02*
X151770000Y-100150000D01*
D15*
%TO.C,U1*%
X148290000Y-95629000D02*
X148290000Y-78484000D01*
X150195000Y-97534000D02*
X164165000Y-97534000D01*
X152685000Y-76579000D02*
X152688728Y-75568728D01*
X153188728Y-75069000D02*
X161184000Y-75069000D01*
X161684000Y-75569000D02*
X161684000Y-76579000D01*
D12*
X164165000Y-76579000D02*
X150195000Y-76579000D01*
D15*
X164165000Y-76579000D02*
X150195000Y-76579000D01*
X166070000Y-95629000D02*
X166070000Y-78484000D01*
X148290000Y-78484000D02*
G75*
G02*
X150195000Y-76579000I1905001J-1D01*
G01*
X150195000Y-97534000D02*
G75*
G02*
X148290000Y-95629000I1J1905001D01*
G01*
X152688728Y-75568728D02*
G75*
G02*
X153188728Y-75069001I500018J-291D01*
G01*
X161184000Y-75069000D02*
G75*
G02*
X161684000Y-75569000I0J-500000D01*
G01*
X164165000Y-76579000D02*
G75*
G02*
X166070000Y-78484000I0J-1905000D01*
G01*
X166070000Y-95629000D02*
G75*
G02*
X164165000Y-97534000I-1905000J0D01*
G01*
D16*
X148482000Y-76820000D02*
G75*
G02*
X147978000Y-76820000I-252000J0D01*
G01*
X147978000Y-76820000D02*
G75*
G02*
X148482000Y-76820000I252000J0D01*
G01*
X149625000Y-77700000D02*
G75*
G02*
X149121000Y-77700000I-252000J0D01*
G01*
X149121000Y-77700000D02*
G75*
G02*
X149625000Y-77700000I252000J0D01*
G01*
D14*
%TO.C,R10*%
X161830000Y-100140000D02*
X162160000Y-100140000D01*
X161830000Y-106680000D02*
X161830000Y-100140000D01*
X162160000Y-106680000D02*
X161830000Y-106680000D01*
X164240000Y-106680000D02*
X164570000Y-106680000D01*
X164570000Y-100140000D02*
X164240000Y-100140000D01*
X164570000Y-106680000D02*
X164570000Y-100140000D01*
%TO.C,C1*%
X169029000Y-98680000D02*
X167771000Y-98680000D01*
X169029000Y-100520000D02*
X167771000Y-100520000D01*
%TO.C,Q5*%
X132450000Y-106330000D02*
X132450000Y-102730000D01*
X128000000Y-104530000D02*
G75*
G02*
X132438478Y-102691522I2600000J0D01*
G01*
X132438478Y-106368478D02*
G75*
G02*
X127999999Y-104530000I-1838478J1838478D01*
G01*
%TO.C,R8*%
X155430000Y-100130000D02*
X155760000Y-100130000D01*
X155430000Y-106670000D02*
X155430000Y-100130000D01*
X155760000Y-106670000D02*
X155430000Y-106670000D01*
X157840000Y-106670000D02*
X158170000Y-106670000D01*
X158170000Y-100130000D02*
X157840000Y-100130000D01*
X158170000Y-106670000D02*
X158170000Y-100130000D01*
%TO.C,R4*%
X137620000Y-92130000D02*
X137620000Y-92460000D01*
X137620000Y-94870000D02*
X137620000Y-94540000D01*
X144160000Y-92130000D02*
X137620000Y-92130000D01*
X144160000Y-92460000D02*
X144160000Y-92130000D01*
X144160000Y-94540000D02*
X144160000Y-94870000D01*
X144160000Y-94870000D02*
X137620000Y-94870000D01*
%TO.C,C2*%
X168180000Y-82721000D02*
X168180000Y-83979000D01*
X170020000Y-82721000D02*
X170020000Y-83979000D01*
%TO.C,Q2*%
X132450000Y-86930000D02*
X132450000Y-83330000D01*
X128000000Y-85130000D02*
G75*
G02*
X132438478Y-83291522I2600000J0D01*
G01*
X132438478Y-86968478D02*
G75*
G02*
X127999999Y-85130000I-1838478J1838478D01*
G01*
%TO.C,J2*%
X136170000Y-103945000D02*
X137500000Y-103945000D01*
X136170000Y-105275000D02*
X136170000Y-103945000D01*
X138770000Y-103945000D02*
X146450000Y-103945000D01*
X138770000Y-106605000D02*
X138770000Y-103945000D01*
X138770000Y-106605000D02*
X146450000Y-106605000D01*
X146450000Y-106605000D02*
X146450000Y-103945000D01*
%TO.C,R7*%
X152230000Y-100140000D02*
X152560000Y-100140000D01*
X152230000Y-106680000D02*
X152230000Y-100140000D01*
X152560000Y-106680000D02*
X152230000Y-106680000D01*
X154640000Y-106680000D02*
X154970000Y-106680000D01*
X154970000Y-100140000D02*
X154640000Y-100140000D01*
X154970000Y-106680000D02*
X154970000Y-100140000D01*
%TO.C,Q3*%
X132450000Y-93330000D02*
X132450000Y-89730000D01*
X128000000Y-91530000D02*
G75*
G02*
X132438478Y-89691522I2600000J0D01*
G01*
X132438478Y-93368478D02*
G75*
G02*
X127999999Y-91530000I-1838478J1838478D01*
G01*
%TO.C,R1*%
X137620000Y-80130000D02*
X137620000Y-80460000D01*
X137620000Y-82870000D02*
X137620000Y-82540000D01*
X144160000Y-80130000D02*
X137620000Y-80130000D01*
X144160000Y-80460000D02*
X144160000Y-80130000D01*
X144160000Y-82540000D02*
X144160000Y-82870000D01*
X144160000Y-82870000D02*
X137620000Y-82870000D01*
%TO.C,Q4*%
X132450000Y-99930000D02*
X132450000Y-96330000D01*
X128000000Y-98130000D02*
G75*
G02*
X132438478Y-96291522I2600000J0D01*
G01*
X132438478Y-99968478D02*
G75*
G02*
X127999999Y-98130000I-1838478J1838478D01*
G01*
%TO.C,Q1*%
X132450000Y-80470000D02*
X132450000Y-76870000D01*
X128000000Y-78670000D02*
G75*
G02*
X132438478Y-76831522I2600000J0D01*
G01*
X132438478Y-80508478D02*
G75*
G02*
X127999999Y-78670000I-1838478J1838478D01*
G01*
%TO.C,R9*%
X158630000Y-100130000D02*
X158960000Y-100130000D01*
X158630000Y-106670000D02*
X158630000Y-100130000D01*
X158960000Y-106670000D02*
X158630000Y-106670000D01*
X161040000Y-106670000D02*
X161370000Y-106670000D01*
X161370000Y-100130000D02*
X161040000Y-100130000D01*
X161370000Y-106670000D02*
X161370000Y-100130000D01*
%TD*%
M02*
