%TF.GenerationSoftware,KiCad,Pcbnew,8.0.6*%
%TF.CreationDate,2024-12-06T19:29:03-08:00*%
%TF.ProjectId,ohmnote,6f686d6e-6f74-4652-9e6b-696361645f70,rev?*%
%TF.SameCoordinates,Original*%
%TF.FileFunction,Drillmap*%
%TF.FilePolarity,Positive*%
%FSLAX45Y45*%
G04 Gerber Fmt 4.5, Leading zero omitted, Abs format (unit mm)*
G04 Created by KiCad (PCBNEW 8.0.6) date 2024-12-06 19:29:03*
%MOMM*%
%LPD*%
G01*
G04 APERTURE LIST*
%ADD10C,0.050000*%
%ADD11C,0.200000*%
%ADD12C,0.100000*%
G04 APERTURE END LIST*
D10*
X12670800Y-10920000D02*
G75*
G02*
X12620000Y-10869200I0J50800D01*
G01*
X17109200Y-7470000D02*
G75*
G02*
X17160000Y-7520800I0J-50800D01*
G01*
X17160000Y-7520800D02*
X17160000Y-10869200D01*
X12620000Y-10869200D02*
X12620000Y-7520800D01*
X17160000Y-10869200D02*
G75*
G02*
X17109200Y-10920000I-50800J0D01*
G01*
X12620000Y-7520800D02*
G75*
G02*
X12670800Y-7470000I50800J0D01*
G01*
X17109200Y-10920000D02*
X12670800Y-10920000D01*
X12670800Y-7470000D02*
X17109200Y-7470000D01*
D11*
D12*
X14432500Y-10322500D02*
X14462500Y-10352500D01*
X14462500Y-10322500D02*
X14432500Y-10352500D01*
X14685000Y-10510000D02*
X14715000Y-10540000D01*
X14715000Y-10510000D02*
X14685000Y-10540000D01*
X14767500Y-10707500D02*
X14797500Y-10737500D01*
X14797500Y-10707500D02*
X14767500Y-10737500D01*
X13097500Y-7740000D02*
G75*
G02*
X13022500Y-7740000I-37500J0D01*
G01*
X13022500Y-7740000D02*
G75*
G02*
X13097500Y-7740000I37500J0D01*
G01*
X13097500Y-7867000D02*
G75*
G02*
X13022500Y-7867000I-37500J0D01*
G01*
X13022500Y-7867000D02*
G75*
G02*
X13097500Y-7867000I37500J0D01*
G01*
X13097500Y-7994000D02*
G75*
G02*
X13022500Y-7994000I-37500J0D01*
G01*
X13022500Y-7994000D02*
G75*
G02*
X13097500Y-7994000I37500J0D01*
G01*
X13097500Y-8386000D02*
G75*
G02*
X13022500Y-8386000I-37500J0D01*
G01*
X13022500Y-8386000D02*
G75*
G02*
X13097500Y-8386000I37500J0D01*
G01*
X13097500Y-8513000D02*
G75*
G02*
X13022500Y-8513000I-37500J0D01*
G01*
X13022500Y-8513000D02*
G75*
G02*
X13097500Y-8513000I37500J0D01*
G01*
X13097500Y-8640000D02*
G75*
G02*
X13022500Y-8640000I-37500J0D01*
G01*
X13022500Y-8640000D02*
G75*
G02*
X13097500Y-8640000I37500J0D01*
G01*
X13097500Y-9026000D02*
G75*
G02*
X13022500Y-9026000I-37500J0D01*
G01*
X13022500Y-9026000D02*
G75*
G02*
X13097500Y-9026000I37500J0D01*
G01*
X13097500Y-9153000D02*
G75*
G02*
X13022500Y-9153000I-37500J0D01*
G01*
X13022500Y-9153000D02*
G75*
G02*
X13097500Y-9153000I37500J0D01*
G01*
X13097500Y-9280000D02*
G75*
G02*
X13022500Y-9280000I-37500J0D01*
G01*
X13022500Y-9280000D02*
G75*
G02*
X13097500Y-9280000I37500J0D01*
G01*
X13097500Y-9686000D02*
G75*
G02*
X13022500Y-9686000I-37500J0D01*
G01*
X13022500Y-9686000D02*
G75*
G02*
X13097500Y-9686000I37500J0D01*
G01*
X13097500Y-9813000D02*
G75*
G02*
X13022500Y-9813000I-37500J0D01*
G01*
X13022500Y-9813000D02*
G75*
G02*
X13097500Y-9813000I37500J0D01*
G01*
X13097500Y-9940000D02*
G75*
G02*
X13022500Y-9940000I-37500J0D01*
G01*
X13022500Y-9940000D02*
G75*
G02*
X13097500Y-9940000I37500J0D01*
G01*
X13097500Y-10326000D02*
G75*
G02*
X13022500Y-10326000I-37500J0D01*
G01*
X13022500Y-10326000D02*
G75*
G02*
X13097500Y-10326000I37500J0D01*
G01*
X13097500Y-10453000D02*
G75*
G02*
X13022500Y-10453000I-37500J0D01*
G01*
X13022500Y-10453000D02*
G75*
G02*
X13097500Y-10453000I37500J0D01*
G01*
X13097500Y-10580000D02*
G75*
G02*
X13022500Y-10580000I-37500J0D01*
G01*
X13022500Y-10580000D02*
G75*
G02*
X13097500Y-10580000I37500J0D01*
G01*
X13708000Y-8110000D02*
X13708000Y-8190000D01*
X13668000Y-8150000D02*
X13748000Y-8150000D01*
X13708000Y-8510000D02*
X13708000Y-8590000D01*
X13668000Y-8550000D02*
X13748000Y-8550000D01*
X13708000Y-8910000D02*
X13708000Y-8990000D01*
X13668000Y-8950000D02*
X13748000Y-8950000D01*
X13708000Y-9310000D02*
X13708000Y-9390000D01*
X13668000Y-9350000D02*
X13748000Y-9350000D01*
X13718000Y-9710000D02*
X13718000Y-9790000D01*
X13678000Y-9750000D02*
X13758000Y-9750000D01*
X14470000Y-8110000D02*
X14470000Y-8190000D01*
X14430000Y-8150000D02*
X14510000Y-8150000D01*
X14470000Y-8510000D02*
X14470000Y-8590000D01*
X14430000Y-8550000D02*
X14510000Y-8550000D01*
X14470000Y-8910000D02*
X14470000Y-8990000D01*
X14430000Y-8950000D02*
X14510000Y-8950000D01*
X14470000Y-9310000D02*
X14470000Y-9390000D01*
X14430000Y-9350000D02*
X14510000Y-9350000D01*
X14480000Y-9710000D02*
X14480000Y-9790000D01*
X14440000Y-9750000D02*
X14520000Y-9750000D01*
X15040000Y-9921000D02*
X15040000Y-10001000D01*
X15000000Y-9961000D02*
X15080000Y-9961000D01*
X15040000Y-10683000D02*
X15040000Y-10763000D01*
X15000000Y-10723000D02*
X15080000Y-10723000D01*
X15360000Y-9920000D02*
X15360000Y-10000000D01*
X15320000Y-9960000D02*
X15400000Y-9960000D01*
X15360000Y-10682000D02*
X15360000Y-10762000D01*
X15320000Y-10722000D02*
X15400000Y-10722000D01*
X15680000Y-9919000D02*
X15680000Y-9999000D01*
X15640000Y-9959000D02*
X15720000Y-9959000D01*
X15680000Y-10681000D02*
X15680000Y-10761000D01*
X15640000Y-10721000D02*
X15720000Y-10721000D01*
X16000000Y-9919000D02*
X16000000Y-9999000D01*
X15960000Y-9959000D02*
X16040000Y-9959000D01*
X16000000Y-10681000D02*
X16000000Y-10761000D01*
X15960000Y-10721000D02*
X16040000Y-10721000D01*
X16320000Y-9920000D02*
X16320000Y-10000000D01*
X16280000Y-9960000D02*
X16360000Y-9960000D01*
X16320000Y-10682000D02*
X16320000Y-10762000D01*
X16280000Y-10722000D02*
X16360000Y-10722000D01*
X16715000Y-9920000D02*
X16715000Y-10000000D01*
X16675000Y-9960000D02*
X16755000Y-9960000D01*
X16910000Y-8170000D02*
X16910000Y-8250000D01*
X16870000Y-8210000D02*
X16950000Y-8210000D01*
X16910000Y-8420000D02*
X16910000Y-8500000D01*
X16870000Y-8460000D02*
X16950000Y-8460000D01*
X16965000Y-9920000D02*
X16965000Y-10000000D01*
X16925000Y-9960000D02*
X17005000Y-9960000D01*
X14987431Y-7981431D02*
X14987431Y-7918569D01*
X14924569Y-7918569D01*
X14924569Y-7981431D01*
X14987431Y-7981431D01*
X14987431Y-8235431D02*
X14987431Y-8172569D01*
X14924569Y-8172569D01*
X14924569Y-8235431D01*
X14987431Y-8235431D01*
X14987431Y-8489431D02*
X14987431Y-8426569D01*
X14924569Y-8426569D01*
X14924569Y-8489431D01*
X14987431Y-8489431D01*
X14987431Y-8743431D02*
X14987431Y-8680569D01*
X14924569Y-8680569D01*
X14924569Y-8743431D01*
X14987431Y-8743431D01*
X14987431Y-8997431D02*
X14987431Y-8934569D01*
X14924569Y-8934569D01*
X14924569Y-8997431D01*
X14987431Y-8997431D01*
X14987431Y-9251431D02*
X14987431Y-9188569D01*
X14924569Y-9188569D01*
X14924569Y-9251431D01*
X14987431Y-9251431D01*
X14987431Y-9505431D02*
X14987431Y-9442569D01*
X14924569Y-9442569D01*
X14924569Y-9505431D01*
X14987431Y-9505431D01*
X16511431Y-7981431D02*
X16511431Y-7918569D01*
X16448569Y-7918569D01*
X16448569Y-7981431D01*
X16511431Y-7981431D01*
X16511431Y-8235431D02*
X16511431Y-8172569D01*
X16448569Y-8172569D01*
X16448569Y-8235431D01*
X16511431Y-8235431D01*
X16511431Y-8489431D02*
X16511431Y-8426569D01*
X16448569Y-8426569D01*
X16448569Y-8489431D01*
X16511431Y-8489431D01*
X16511431Y-8743431D02*
X16511431Y-8680569D01*
X16448569Y-8680569D01*
X16448569Y-8743431D01*
X16511431Y-8743431D01*
X16511431Y-8997431D02*
X16511431Y-8934569D01*
X16448569Y-8934569D01*
X16448569Y-8997431D01*
X16511431Y-8997431D01*
X16511431Y-9251431D02*
X16511431Y-9188569D01*
X16448569Y-9188569D01*
X16448569Y-9251431D01*
X16511431Y-9251431D01*
X16511431Y-9505431D02*
X16511431Y-9442569D01*
X16448569Y-9442569D01*
X16448569Y-9505431D01*
X16511431Y-9505431D01*
X13750000Y-10577500D02*
X13800000Y-10527500D01*
X13750000Y-10477500D01*
X13700000Y-10527500D01*
X13750000Y-10577500D01*
X14004000Y-10577500D02*
X14054000Y-10527500D01*
X14004000Y-10477500D01*
X13954000Y-10527500D01*
X14004000Y-10577500D01*
X14258000Y-10577500D02*
X14308000Y-10527500D01*
X14258000Y-10477500D01*
X14208000Y-10527500D01*
X14258000Y-10577500D01*
X14512000Y-10577500D02*
X14562000Y-10527500D01*
X14512000Y-10477500D01*
X14462000Y-10527500D01*
X14512000Y-10577500D01*
X16696000Y-10582500D02*
X16746000Y-10532500D01*
X16696000Y-10482500D01*
X16646000Y-10532500D01*
X16696000Y-10582500D01*
X16950000Y-10582500D02*
X17000000Y-10532500D01*
X16950000Y-10482500D01*
X16900000Y-10532500D01*
X16950000Y-10582500D01*
D11*
X12878277Y-11233984D02*
X12878277Y-11033984D01*
X12878277Y-11033984D02*
X12925896Y-11033984D01*
X12925896Y-11033984D02*
X12954467Y-11043508D01*
X12954467Y-11043508D02*
X12973515Y-11062555D01*
X12973515Y-11062555D02*
X12983039Y-11081603D01*
X12983039Y-11081603D02*
X12992562Y-11119698D01*
X12992562Y-11119698D02*
X12992562Y-11148270D01*
X12992562Y-11148270D02*
X12983039Y-11186365D01*
X12983039Y-11186365D02*
X12973515Y-11205412D01*
X12973515Y-11205412D02*
X12954467Y-11224460D01*
X12954467Y-11224460D02*
X12925896Y-11233984D01*
X12925896Y-11233984D02*
X12878277Y-11233984D01*
X13078277Y-11233984D02*
X13078277Y-11100650D01*
X13078277Y-11138746D02*
X13087801Y-11119698D01*
X13087801Y-11119698D02*
X13097324Y-11110174D01*
X13097324Y-11110174D02*
X13116372Y-11100650D01*
X13116372Y-11100650D02*
X13135420Y-11100650D01*
X13202086Y-11233984D02*
X13202086Y-11100650D01*
X13202086Y-11033984D02*
X13192562Y-11043508D01*
X13192562Y-11043508D02*
X13202086Y-11053031D01*
X13202086Y-11053031D02*
X13211610Y-11043508D01*
X13211610Y-11043508D02*
X13202086Y-11033984D01*
X13202086Y-11033984D02*
X13202086Y-11053031D01*
X13325896Y-11233984D02*
X13306848Y-11224460D01*
X13306848Y-11224460D02*
X13297324Y-11205412D01*
X13297324Y-11205412D02*
X13297324Y-11033984D01*
X13430658Y-11233984D02*
X13411610Y-11224460D01*
X13411610Y-11224460D02*
X13402086Y-11205412D01*
X13402086Y-11205412D02*
X13402086Y-11033984D01*
X13659229Y-11233984D02*
X13659229Y-11033984D01*
X13659229Y-11033984D02*
X13725896Y-11176841D01*
X13725896Y-11176841D02*
X13792562Y-11033984D01*
X13792562Y-11033984D02*
X13792562Y-11233984D01*
X13973515Y-11233984D02*
X13973515Y-11129222D01*
X13973515Y-11129222D02*
X13963991Y-11110174D01*
X13963991Y-11110174D02*
X13944943Y-11100650D01*
X13944943Y-11100650D02*
X13906848Y-11100650D01*
X13906848Y-11100650D02*
X13887801Y-11110174D01*
X13973515Y-11224460D02*
X13954467Y-11233984D01*
X13954467Y-11233984D02*
X13906848Y-11233984D01*
X13906848Y-11233984D02*
X13887801Y-11224460D01*
X13887801Y-11224460D02*
X13878277Y-11205412D01*
X13878277Y-11205412D02*
X13878277Y-11186365D01*
X13878277Y-11186365D02*
X13887801Y-11167317D01*
X13887801Y-11167317D02*
X13906848Y-11157793D01*
X13906848Y-11157793D02*
X13954467Y-11157793D01*
X13954467Y-11157793D02*
X13973515Y-11148270D01*
X14068753Y-11100650D02*
X14068753Y-11300650D01*
X14068753Y-11110174D02*
X14087801Y-11100650D01*
X14087801Y-11100650D02*
X14125896Y-11100650D01*
X14125896Y-11100650D02*
X14144943Y-11110174D01*
X14144943Y-11110174D02*
X14154467Y-11119698D01*
X14154467Y-11119698D02*
X14163991Y-11138746D01*
X14163991Y-11138746D02*
X14163991Y-11195888D01*
X14163991Y-11195888D02*
X14154467Y-11214936D01*
X14154467Y-11214936D02*
X14144943Y-11224460D01*
X14144943Y-11224460D02*
X14125896Y-11233984D01*
X14125896Y-11233984D02*
X14087801Y-11233984D01*
X14087801Y-11233984D02*
X14068753Y-11224460D01*
X14249705Y-11214936D02*
X14259229Y-11224460D01*
X14259229Y-11224460D02*
X14249705Y-11233984D01*
X14249705Y-11233984D02*
X14240182Y-11224460D01*
X14240182Y-11224460D02*
X14249705Y-11214936D01*
X14249705Y-11214936D02*
X14249705Y-11233984D01*
X14249705Y-11110174D02*
X14259229Y-11119698D01*
X14259229Y-11119698D02*
X14249705Y-11129222D01*
X14249705Y-11129222D02*
X14240182Y-11119698D01*
X14240182Y-11119698D02*
X14249705Y-11110174D01*
X14249705Y-11110174D02*
X14249705Y-11129222D01*
D12*
X12587500Y-11547500D02*
X12617500Y-11577500D01*
X12617500Y-11547500D02*
X12587500Y-11577500D01*
D11*
X12916372Y-11453984D02*
X12935420Y-11453984D01*
X12935420Y-11453984D02*
X12954467Y-11463508D01*
X12954467Y-11463508D02*
X12963991Y-11473031D01*
X12963991Y-11473031D02*
X12973515Y-11492079D01*
X12973515Y-11492079D02*
X12983039Y-11530174D01*
X12983039Y-11530174D02*
X12983039Y-11577793D01*
X12983039Y-11577793D02*
X12973515Y-11615888D01*
X12973515Y-11615888D02*
X12963991Y-11634936D01*
X12963991Y-11634936D02*
X12954467Y-11644460D01*
X12954467Y-11644460D02*
X12935420Y-11653984D01*
X12935420Y-11653984D02*
X12916372Y-11653984D01*
X12916372Y-11653984D02*
X12897324Y-11644460D01*
X12897324Y-11644460D02*
X12887801Y-11634936D01*
X12887801Y-11634936D02*
X12878277Y-11615888D01*
X12878277Y-11615888D02*
X12868753Y-11577793D01*
X12868753Y-11577793D02*
X12868753Y-11530174D01*
X12868753Y-11530174D02*
X12878277Y-11492079D01*
X12878277Y-11492079D02*
X12887801Y-11473031D01*
X12887801Y-11473031D02*
X12897324Y-11463508D01*
X12897324Y-11463508D02*
X12916372Y-11453984D01*
X13068753Y-11634936D02*
X13078277Y-11644460D01*
X13078277Y-11644460D02*
X13068753Y-11653984D01*
X13068753Y-11653984D02*
X13059229Y-11644460D01*
X13059229Y-11644460D02*
X13068753Y-11634936D01*
X13068753Y-11634936D02*
X13068753Y-11653984D01*
X13144943Y-11453984D02*
X13268753Y-11453984D01*
X13268753Y-11453984D02*
X13202086Y-11530174D01*
X13202086Y-11530174D02*
X13230658Y-11530174D01*
X13230658Y-11530174D02*
X13249705Y-11539698D01*
X13249705Y-11539698D02*
X13259229Y-11549222D01*
X13259229Y-11549222D02*
X13268753Y-11568269D01*
X13268753Y-11568269D02*
X13268753Y-11615888D01*
X13268753Y-11615888D02*
X13259229Y-11634936D01*
X13259229Y-11634936D02*
X13249705Y-11644460D01*
X13249705Y-11644460D02*
X13230658Y-11653984D01*
X13230658Y-11653984D02*
X13173515Y-11653984D01*
X13173515Y-11653984D02*
X13154467Y-11644460D01*
X13154467Y-11644460D02*
X13144943Y-11634936D01*
X13392562Y-11453984D02*
X13411610Y-11453984D01*
X13411610Y-11453984D02*
X13430658Y-11463508D01*
X13430658Y-11463508D02*
X13440182Y-11473031D01*
X13440182Y-11473031D02*
X13449705Y-11492079D01*
X13449705Y-11492079D02*
X13459229Y-11530174D01*
X13459229Y-11530174D02*
X13459229Y-11577793D01*
X13459229Y-11577793D02*
X13449705Y-11615888D01*
X13449705Y-11615888D02*
X13440182Y-11634936D01*
X13440182Y-11634936D02*
X13430658Y-11644460D01*
X13430658Y-11644460D02*
X13411610Y-11653984D01*
X13411610Y-11653984D02*
X13392562Y-11653984D01*
X13392562Y-11653984D02*
X13373515Y-11644460D01*
X13373515Y-11644460D02*
X13363991Y-11634936D01*
X13363991Y-11634936D02*
X13354467Y-11615888D01*
X13354467Y-11615888D02*
X13344943Y-11577793D01*
X13344943Y-11577793D02*
X13344943Y-11530174D01*
X13344943Y-11530174D02*
X13354467Y-11492079D01*
X13354467Y-11492079D02*
X13363991Y-11473031D01*
X13363991Y-11473031D02*
X13373515Y-11463508D01*
X13373515Y-11463508D02*
X13392562Y-11453984D01*
X13583039Y-11453984D02*
X13602086Y-11453984D01*
X13602086Y-11453984D02*
X13621134Y-11463508D01*
X13621134Y-11463508D02*
X13630658Y-11473031D01*
X13630658Y-11473031D02*
X13640182Y-11492079D01*
X13640182Y-11492079D02*
X13649705Y-11530174D01*
X13649705Y-11530174D02*
X13649705Y-11577793D01*
X13649705Y-11577793D02*
X13640182Y-11615888D01*
X13640182Y-11615888D02*
X13630658Y-11634936D01*
X13630658Y-11634936D02*
X13621134Y-11644460D01*
X13621134Y-11644460D02*
X13602086Y-11653984D01*
X13602086Y-11653984D02*
X13583039Y-11653984D01*
X13583039Y-11653984D02*
X13563991Y-11644460D01*
X13563991Y-11644460D02*
X13554467Y-11634936D01*
X13554467Y-11634936D02*
X13544943Y-11615888D01*
X13544943Y-11615888D02*
X13535420Y-11577793D01*
X13535420Y-11577793D02*
X13535420Y-11530174D01*
X13535420Y-11530174D02*
X13544943Y-11492079D01*
X13544943Y-11492079D02*
X13554467Y-11473031D01*
X13554467Y-11473031D02*
X13563991Y-11463508D01*
X13563991Y-11463508D02*
X13583039Y-11453984D01*
X13735420Y-11653984D02*
X13735420Y-11520650D01*
X13735420Y-11539698D02*
X13744943Y-11530174D01*
X13744943Y-11530174D02*
X13763991Y-11520650D01*
X13763991Y-11520650D02*
X13792563Y-11520650D01*
X13792563Y-11520650D02*
X13811610Y-11530174D01*
X13811610Y-11530174D02*
X13821134Y-11549222D01*
X13821134Y-11549222D02*
X13821134Y-11653984D01*
X13821134Y-11549222D02*
X13830658Y-11530174D01*
X13830658Y-11530174D02*
X13849705Y-11520650D01*
X13849705Y-11520650D02*
X13878277Y-11520650D01*
X13878277Y-11520650D02*
X13897324Y-11530174D01*
X13897324Y-11530174D02*
X13906848Y-11549222D01*
X13906848Y-11549222D02*
X13906848Y-11653984D01*
X14002086Y-11653984D02*
X14002086Y-11520650D01*
X14002086Y-11539698D02*
X14011610Y-11530174D01*
X14011610Y-11530174D02*
X14030658Y-11520650D01*
X14030658Y-11520650D02*
X14059229Y-11520650D01*
X14059229Y-11520650D02*
X14078277Y-11530174D01*
X14078277Y-11530174D02*
X14087801Y-11549222D01*
X14087801Y-11549222D02*
X14087801Y-11653984D01*
X14087801Y-11549222D02*
X14097324Y-11530174D01*
X14097324Y-11530174D02*
X14116372Y-11520650D01*
X14116372Y-11520650D02*
X14144943Y-11520650D01*
X14144943Y-11520650D02*
X14163991Y-11530174D01*
X14163991Y-11530174D02*
X14173515Y-11549222D01*
X14173515Y-11549222D02*
X14173515Y-11653984D01*
X14563991Y-11444460D02*
X14392563Y-11701603D01*
X14821134Y-11453984D02*
X14840182Y-11453984D01*
X14840182Y-11453984D02*
X14859229Y-11463508D01*
X14859229Y-11463508D02*
X14868753Y-11473031D01*
X14868753Y-11473031D02*
X14878277Y-11492079D01*
X14878277Y-11492079D02*
X14887801Y-11530174D01*
X14887801Y-11530174D02*
X14887801Y-11577793D01*
X14887801Y-11577793D02*
X14878277Y-11615888D01*
X14878277Y-11615888D02*
X14868753Y-11634936D01*
X14868753Y-11634936D02*
X14859229Y-11644460D01*
X14859229Y-11644460D02*
X14840182Y-11653984D01*
X14840182Y-11653984D02*
X14821134Y-11653984D01*
X14821134Y-11653984D02*
X14802086Y-11644460D01*
X14802086Y-11644460D02*
X14792563Y-11634936D01*
X14792563Y-11634936D02*
X14783039Y-11615888D01*
X14783039Y-11615888D02*
X14773515Y-11577793D01*
X14773515Y-11577793D02*
X14773515Y-11530174D01*
X14773515Y-11530174D02*
X14783039Y-11492079D01*
X14783039Y-11492079D02*
X14792563Y-11473031D01*
X14792563Y-11473031D02*
X14802086Y-11463508D01*
X14802086Y-11463508D02*
X14821134Y-11453984D01*
X14973515Y-11634936D02*
X14983039Y-11644460D01*
X14983039Y-11644460D02*
X14973515Y-11653984D01*
X14973515Y-11653984D02*
X14963991Y-11644460D01*
X14963991Y-11644460D02*
X14973515Y-11634936D01*
X14973515Y-11634936D02*
X14973515Y-11653984D01*
X15106848Y-11453984D02*
X15125896Y-11453984D01*
X15125896Y-11453984D02*
X15144944Y-11463508D01*
X15144944Y-11463508D02*
X15154467Y-11473031D01*
X15154467Y-11473031D02*
X15163991Y-11492079D01*
X15163991Y-11492079D02*
X15173515Y-11530174D01*
X15173515Y-11530174D02*
X15173515Y-11577793D01*
X15173515Y-11577793D02*
X15163991Y-11615888D01*
X15163991Y-11615888D02*
X15154467Y-11634936D01*
X15154467Y-11634936D02*
X15144944Y-11644460D01*
X15144944Y-11644460D02*
X15125896Y-11653984D01*
X15125896Y-11653984D02*
X15106848Y-11653984D01*
X15106848Y-11653984D02*
X15087801Y-11644460D01*
X15087801Y-11644460D02*
X15078277Y-11634936D01*
X15078277Y-11634936D02*
X15068753Y-11615888D01*
X15068753Y-11615888D02*
X15059229Y-11577793D01*
X15059229Y-11577793D02*
X15059229Y-11530174D01*
X15059229Y-11530174D02*
X15068753Y-11492079D01*
X15068753Y-11492079D02*
X15078277Y-11473031D01*
X15078277Y-11473031D02*
X15087801Y-11463508D01*
X15087801Y-11463508D02*
X15106848Y-11453984D01*
X15363991Y-11653984D02*
X15249706Y-11653984D01*
X15306848Y-11653984D02*
X15306848Y-11453984D01*
X15306848Y-11453984D02*
X15287801Y-11482555D01*
X15287801Y-11482555D02*
X15268753Y-11501603D01*
X15268753Y-11501603D02*
X15249706Y-11511127D01*
X15554467Y-11653984D02*
X15440182Y-11653984D01*
X15497325Y-11653984D02*
X15497325Y-11453984D01*
X15497325Y-11453984D02*
X15478277Y-11482555D01*
X15478277Y-11482555D02*
X15459229Y-11501603D01*
X15459229Y-11501603D02*
X15440182Y-11511127D01*
X15668753Y-11539698D02*
X15649706Y-11530174D01*
X15649706Y-11530174D02*
X15640182Y-11520650D01*
X15640182Y-11520650D02*
X15630658Y-11501603D01*
X15630658Y-11501603D02*
X15630658Y-11492079D01*
X15630658Y-11492079D02*
X15640182Y-11473031D01*
X15640182Y-11473031D02*
X15649706Y-11463508D01*
X15649706Y-11463508D02*
X15668753Y-11453984D01*
X15668753Y-11453984D02*
X15706848Y-11453984D01*
X15706848Y-11453984D02*
X15725896Y-11463508D01*
X15725896Y-11463508D02*
X15735420Y-11473031D01*
X15735420Y-11473031D02*
X15744944Y-11492079D01*
X15744944Y-11492079D02*
X15744944Y-11501603D01*
X15744944Y-11501603D02*
X15735420Y-11520650D01*
X15735420Y-11520650D02*
X15725896Y-11530174D01*
X15725896Y-11530174D02*
X15706848Y-11539698D01*
X15706848Y-11539698D02*
X15668753Y-11539698D01*
X15668753Y-11539698D02*
X15649706Y-11549222D01*
X15649706Y-11549222D02*
X15640182Y-11558746D01*
X15640182Y-11558746D02*
X15630658Y-11577793D01*
X15630658Y-11577793D02*
X15630658Y-11615888D01*
X15630658Y-11615888D02*
X15640182Y-11634936D01*
X15640182Y-11634936D02*
X15649706Y-11644460D01*
X15649706Y-11644460D02*
X15668753Y-11653984D01*
X15668753Y-11653984D02*
X15706848Y-11653984D01*
X15706848Y-11653984D02*
X15725896Y-11644460D01*
X15725896Y-11644460D02*
X15735420Y-11634936D01*
X15735420Y-11634936D02*
X15744944Y-11615888D01*
X15744944Y-11615888D02*
X15744944Y-11577793D01*
X15744944Y-11577793D02*
X15735420Y-11558746D01*
X15735420Y-11558746D02*
X15725896Y-11549222D01*
X15725896Y-11549222D02*
X15706848Y-11539698D01*
X15821134Y-11453984D02*
X15821134Y-11492079D01*
X15897325Y-11453984D02*
X15897325Y-11492079D01*
X16192563Y-11730174D02*
X16183039Y-11720650D01*
X16183039Y-11720650D02*
X16163991Y-11692079D01*
X16163991Y-11692079D02*
X16154468Y-11673031D01*
X16154468Y-11673031D02*
X16144944Y-11644460D01*
X16144944Y-11644460D02*
X16135420Y-11596841D01*
X16135420Y-11596841D02*
X16135420Y-11558746D01*
X16135420Y-11558746D02*
X16144944Y-11511127D01*
X16144944Y-11511127D02*
X16154468Y-11482555D01*
X16154468Y-11482555D02*
X16163991Y-11463508D01*
X16163991Y-11463508D02*
X16183039Y-11434936D01*
X16183039Y-11434936D02*
X16192563Y-11425412D01*
X16249706Y-11453984D02*
X16373515Y-11453984D01*
X16373515Y-11453984D02*
X16306848Y-11530174D01*
X16306848Y-11530174D02*
X16335420Y-11530174D01*
X16335420Y-11530174D02*
X16354468Y-11539698D01*
X16354468Y-11539698D02*
X16363991Y-11549222D01*
X16363991Y-11549222D02*
X16373515Y-11568269D01*
X16373515Y-11568269D02*
X16373515Y-11615888D01*
X16373515Y-11615888D02*
X16363991Y-11634936D01*
X16363991Y-11634936D02*
X16354468Y-11644460D01*
X16354468Y-11644460D02*
X16335420Y-11653984D01*
X16335420Y-11653984D02*
X16278277Y-11653984D01*
X16278277Y-11653984D02*
X16259229Y-11644460D01*
X16259229Y-11644460D02*
X16249706Y-11634936D01*
X16611610Y-11653984D02*
X16611610Y-11453984D01*
X16697325Y-11653984D02*
X16697325Y-11549222D01*
X16697325Y-11549222D02*
X16687801Y-11530174D01*
X16687801Y-11530174D02*
X16668753Y-11520650D01*
X16668753Y-11520650D02*
X16640182Y-11520650D01*
X16640182Y-11520650D02*
X16621134Y-11530174D01*
X16621134Y-11530174D02*
X16611610Y-11539698D01*
X16821134Y-11653984D02*
X16802087Y-11644460D01*
X16802087Y-11644460D02*
X16792563Y-11634936D01*
X16792563Y-11634936D02*
X16783039Y-11615888D01*
X16783039Y-11615888D02*
X16783039Y-11558746D01*
X16783039Y-11558746D02*
X16792563Y-11539698D01*
X16792563Y-11539698D02*
X16802087Y-11530174D01*
X16802087Y-11530174D02*
X16821134Y-11520650D01*
X16821134Y-11520650D02*
X16849706Y-11520650D01*
X16849706Y-11520650D02*
X16868753Y-11530174D01*
X16868753Y-11530174D02*
X16878277Y-11539698D01*
X16878277Y-11539698D02*
X16887801Y-11558746D01*
X16887801Y-11558746D02*
X16887801Y-11615888D01*
X16887801Y-11615888D02*
X16878277Y-11634936D01*
X16878277Y-11634936D02*
X16868753Y-11644460D01*
X16868753Y-11644460D02*
X16849706Y-11653984D01*
X16849706Y-11653984D02*
X16821134Y-11653984D01*
X17002087Y-11653984D02*
X16983039Y-11644460D01*
X16983039Y-11644460D02*
X16973515Y-11625412D01*
X16973515Y-11625412D02*
X16973515Y-11453984D01*
X17154468Y-11644460D02*
X17135420Y-11653984D01*
X17135420Y-11653984D02*
X17097325Y-11653984D01*
X17097325Y-11653984D02*
X17078277Y-11644460D01*
X17078277Y-11644460D02*
X17068753Y-11625412D01*
X17068753Y-11625412D02*
X17068753Y-11549222D01*
X17068753Y-11549222D02*
X17078277Y-11530174D01*
X17078277Y-11530174D02*
X17097325Y-11520650D01*
X17097325Y-11520650D02*
X17135420Y-11520650D01*
X17135420Y-11520650D02*
X17154468Y-11530174D01*
X17154468Y-11530174D02*
X17163992Y-11549222D01*
X17163992Y-11549222D02*
X17163992Y-11568269D01*
X17163992Y-11568269D02*
X17068753Y-11587317D01*
X17240182Y-11644460D02*
X17259230Y-11653984D01*
X17259230Y-11653984D02*
X17297325Y-11653984D01*
X17297325Y-11653984D02*
X17316373Y-11644460D01*
X17316373Y-11644460D02*
X17325896Y-11625412D01*
X17325896Y-11625412D02*
X17325896Y-11615888D01*
X17325896Y-11615888D02*
X17316373Y-11596841D01*
X17316373Y-11596841D02*
X17297325Y-11587317D01*
X17297325Y-11587317D02*
X17268753Y-11587317D01*
X17268753Y-11587317D02*
X17249706Y-11577793D01*
X17249706Y-11577793D02*
X17240182Y-11558746D01*
X17240182Y-11558746D02*
X17240182Y-11549222D01*
X17240182Y-11549222D02*
X17249706Y-11530174D01*
X17249706Y-11530174D02*
X17268753Y-11520650D01*
X17268753Y-11520650D02*
X17297325Y-11520650D01*
X17297325Y-11520650D02*
X17316373Y-11530174D01*
X17392563Y-11730174D02*
X17402087Y-11720650D01*
X17402087Y-11720650D02*
X17421134Y-11692079D01*
X17421134Y-11692079D02*
X17430658Y-11673031D01*
X17430658Y-11673031D02*
X17440182Y-11644460D01*
X17440182Y-11644460D02*
X17449706Y-11596841D01*
X17449706Y-11596841D02*
X17449706Y-11558746D01*
X17449706Y-11558746D02*
X17440182Y-11511127D01*
X17440182Y-11511127D02*
X17430658Y-11482555D01*
X17430658Y-11482555D02*
X17421134Y-11463508D01*
X17421134Y-11463508D02*
X17402087Y-11434936D01*
X17402087Y-11434936D02*
X17392563Y-11425412D01*
D12*
X12617500Y-11826500D02*
G75*
G02*
X12542500Y-11826500I-37500J0D01*
G01*
X12542500Y-11826500D02*
G75*
G02*
X12617500Y-11826500I37500J0D01*
G01*
D11*
X12916372Y-11717984D02*
X12935420Y-11717984D01*
X12935420Y-11717984D02*
X12954467Y-11727508D01*
X12954467Y-11727508D02*
X12963991Y-11737031D01*
X12963991Y-11737031D02*
X12973515Y-11756079D01*
X12973515Y-11756079D02*
X12983039Y-11794174D01*
X12983039Y-11794174D02*
X12983039Y-11841793D01*
X12983039Y-11841793D02*
X12973515Y-11879888D01*
X12973515Y-11879888D02*
X12963991Y-11898936D01*
X12963991Y-11898936D02*
X12954467Y-11908460D01*
X12954467Y-11908460D02*
X12935420Y-11917984D01*
X12935420Y-11917984D02*
X12916372Y-11917984D01*
X12916372Y-11917984D02*
X12897324Y-11908460D01*
X12897324Y-11908460D02*
X12887801Y-11898936D01*
X12887801Y-11898936D02*
X12878277Y-11879888D01*
X12878277Y-11879888D02*
X12868753Y-11841793D01*
X12868753Y-11841793D02*
X12868753Y-11794174D01*
X12868753Y-11794174D02*
X12878277Y-11756079D01*
X12878277Y-11756079D02*
X12887801Y-11737031D01*
X12887801Y-11737031D02*
X12897324Y-11727508D01*
X12897324Y-11727508D02*
X12916372Y-11717984D01*
X13068753Y-11898936D02*
X13078277Y-11908460D01*
X13078277Y-11908460D02*
X13068753Y-11917984D01*
X13068753Y-11917984D02*
X13059229Y-11908460D01*
X13059229Y-11908460D02*
X13068753Y-11898936D01*
X13068753Y-11898936D02*
X13068753Y-11917984D01*
X13144943Y-11717984D02*
X13278277Y-11717984D01*
X13278277Y-11717984D02*
X13192562Y-11917984D01*
X13449705Y-11717984D02*
X13354467Y-11717984D01*
X13354467Y-11717984D02*
X13344943Y-11813222D01*
X13344943Y-11813222D02*
X13354467Y-11803698D01*
X13354467Y-11803698D02*
X13373515Y-11794174D01*
X13373515Y-11794174D02*
X13421134Y-11794174D01*
X13421134Y-11794174D02*
X13440182Y-11803698D01*
X13440182Y-11803698D02*
X13449705Y-11813222D01*
X13449705Y-11813222D02*
X13459229Y-11832269D01*
X13459229Y-11832269D02*
X13459229Y-11879888D01*
X13459229Y-11879888D02*
X13449705Y-11898936D01*
X13449705Y-11898936D02*
X13440182Y-11908460D01*
X13440182Y-11908460D02*
X13421134Y-11917984D01*
X13421134Y-11917984D02*
X13373515Y-11917984D01*
X13373515Y-11917984D02*
X13354467Y-11908460D01*
X13354467Y-11908460D02*
X13344943Y-11898936D01*
X13583039Y-11717984D02*
X13602086Y-11717984D01*
X13602086Y-11717984D02*
X13621134Y-11727508D01*
X13621134Y-11727508D02*
X13630658Y-11737031D01*
X13630658Y-11737031D02*
X13640182Y-11756079D01*
X13640182Y-11756079D02*
X13649705Y-11794174D01*
X13649705Y-11794174D02*
X13649705Y-11841793D01*
X13649705Y-11841793D02*
X13640182Y-11879888D01*
X13640182Y-11879888D02*
X13630658Y-11898936D01*
X13630658Y-11898936D02*
X13621134Y-11908460D01*
X13621134Y-11908460D02*
X13602086Y-11917984D01*
X13602086Y-11917984D02*
X13583039Y-11917984D01*
X13583039Y-11917984D02*
X13563991Y-11908460D01*
X13563991Y-11908460D02*
X13554467Y-11898936D01*
X13554467Y-11898936D02*
X13544943Y-11879888D01*
X13544943Y-11879888D02*
X13535420Y-11841793D01*
X13535420Y-11841793D02*
X13535420Y-11794174D01*
X13535420Y-11794174D02*
X13544943Y-11756079D01*
X13544943Y-11756079D02*
X13554467Y-11737031D01*
X13554467Y-11737031D02*
X13563991Y-11727508D01*
X13563991Y-11727508D02*
X13583039Y-11717984D01*
X13735420Y-11917984D02*
X13735420Y-11784650D01*
X13735420Y-11803698D02*
X13744943Y-11794174D01*
X13744943Y-11794174D02*
X13763991Y-11784650D01*
X13763991Y-11784650D02*
X13792563Y-11784650D01*
X13792563Y-11784650D02*
X13811610Y-11794174D01*
X13811610Y-11794174D02*
X13821134Y-11813222D01*
X13821134Y-11813222D02*
X13821134Y-11917984D01*
X13821134Y-11813222D02*
X13830658Y-11794174D01*
X13830658Y-11794174D02*
X13849705Y-11784650D01*
X13849705Y-11784650D02*
X13878277Y-11784650D01*
X13878277Y-11784650D02*
X13897324Y-11794174D01*
X13897324Y-11794174D02*
X13906848Y-11813222D01*
X13906848Y-11813222D02*
X13906848Y-11917984D01*
X14002086Y-11917984D02*
X14002086Y-11784650D01*
X14002086Y-11803698D02*
X14011610Y-11794174D01*
X14011610Y-11794174D02*
X14030658Y-11784650D01*
X14030658Y-11784650D02*
X14059229Y-11784650D01*
X14059229Y-11784650D02*
X14078277Y-11794174D01*
X14078277Y-11794174D02*
X14087801Y-11813222D01*
X14087801Y-11813222D02*
X14087801Y-11917984D01*
X14087801Y-11813222D02*
X14097324Y-11794174D01*
X14097324Y-11794174D02*
X14116372Y-11784650D01*
X14116372Y-11784650D02*
X14144943Y-11784650D01*
X14144943Y-11784650D02*
X14163991Y-11794174D01*
X14163991Y-11794174D02*
X14173515Y-11813222D01*
X14173515Y-11813222D02*
X14173515Y-11917984D01*
X14563991Y-11708460D02*
X14392563Y-11965603D01*
X14821134Y-11717984D02*
X14840182Y-11717984D01*
X14840182Y-11717984D02*
X14859229Y-11727508D01*
X14859229Y-11727508D02*
X14868753Y-11737031D01*
X14868753Y-11737031D02*
X14878277Y-11756079D01*
X14878277Y-11756079D02*
X14887801Y-11794174D01*
X14887801Y-11794174D02*
X14887801Y-11841793D01*
X14887801Y-11841793D02*
X14878277Y-11879888D01*
X14878277Y-11879888D02*
X14868753Y-11898936D01*
X14868753Y-11898936D02*
X14859229Y-11908460D01*
X14859229Y-11908460D02*
X14840182Y-11917984D01*
X14840182Y-11917984D02*
X14821134Y-11917984D01*
X14821134Y-11917984D02*
X14802086Y-11908460D01*
X14802086Y-11908460D02*
X14792563Y-11898936D01*
X14792563Y-11898936D02*
X14783039Y-11879888D01*
X14783039Y-11879888D02*
X14773515Y-11841793D01*
X14773515Y-11841793D02*
X14773515Y-11794174D01*
X14773515Y-11794174D02*
X14783039Y-11756079D01*
X14783039Y-11756079D02*
X14792563Y-11737031D01*
X14792563Y-11737031D02*
X14802086Y-11727508D01*
X14802086Y-11727508D02*
X14821134Y-11717984D01*
X14973515Y-11898936D02*
X14983039Y-11908460D01*
X14983039Y-11908460D02*
X14973515Y-11917984D01*
X14973515Y-11917984D02*
X14963991Y-11908460D01*
X14963991Y-11908460D02*
X14973515Y-11898936D01*
X14973515Y-11898936D02*
X14973515Y-11917984D01*
X15106848Y-11717984D02*
X15125896Y-11717984D01*
X15125896Y-11717984D02*
X15144944Y-11727508D01*
X15144944Y-11727508D02*
X15154467Y-11737031D01*
X15154467Y-11737031D02*
X15163991Y-11756079D01*
X15163991Y-11756079D02*
X15173515Y-11794174D01*
X15173515Y-11794174D02*
X15173515Y-11841793D01*
X15173515Y-11841793D02*
X15163991Y-11879888D01*
X15163991Y-11879888D02*
X15154467Y-11898936D01*
X15154467Y-11898936D02*
X15144944Y-11908460D01*
X15144944Y-11908460D02*
X15125896Y-11917984D01*
X15125896Y-11917984D02*
X15106848Y-11917984D01*
X15106848Y-11917984D02*
X15087801Y-11908460D01*
X15087801Y-11908460D02*
X15078277Y-11898936D01*
X15078277Y-11898936D02*
X15068753Y-11879888D01*
X15068753Y-11879888D02*
X15059229Y-11841793D01*
X15059229Y-11841793D02*
X15059229Y-11794174D01*
X15059229Y-11794174D02*
X15068753Y-11756079D01*
X15068753Y-11756079D02*
X15078277Y-11737031D01*
X15078277Y-11737031D02*
X15087801Y-11727508D01*
X15087801Y-11727508D02*
X15106848Y-11717984D01*
X15249706Y-11737031D02*
X15259229Y-11727508D01*
X15259229Y-11727508D02*
X15278277Y-11717984D01*
X15278277Y-11717984D02*
X15325896Y-11717984D01*
X15325896Y-11717984D02*
X15344944Y-11727508D01*
X15344944Y-11727508D02*
X15354467Y-11737031D01*
X15354467Y-11737031D02*
X15363991Y-11756079D01*
X15363991Y-11756079D02*
X15363991Y-11775127D01*
X15363991Y-11775127D02*
X15354467Y-11803698D01*
X15354467Y-11803698D02*
X15240182Y-11917984D01*
X15240182Y-11917984D02*
X15363991Y-11917984D01*
X15459229Y-11917984D02*
X15497325Y-11917984D01*
X15497325Y-11917984D02*
X15516372Y-11908460D01*
X15516372Y-11908460D02*
X15525896Y-11898936D01*
X15525896Y-11898936D02*
X15544944Y-11870365D01*
X15544944Y-11870365D02*
X15554467Y-11832269D01*
X15554467Y-11832269D02*
X15554467Y-11756079D01*
X15554467Y-11756079D02*
X15544944Y-11737031D01*
X15544944Y-11737031D02*
X15535420Y-11727508D01*
X15535420Y-11727508D02*
X15516372Y-11717984D01*
X15516372Y-11717984D02*
X15478277Y-11717984D01*
X15478277Y-11717984D02*
X15459229Y-11727508D01*
X15459229Y-11727508D02*
X15449706Y-11737031D01*
X15449706Y-11737031D02*
X15440182Y-11756079D01*
X15440182Y-11756079D02*
X15440182Y-11803698D01*
X15440182Y-11803698D02*
X15449706Y-11822746D01*
X15449706Y-11822746D02*
X15459229Y-11832269D01*
X15459229Y-11832269D02*
X15478277Y-11841793D01*
X15478277Y-11841793D02*
X15516372Y-11841793D01*
X15516372Y-11841793D02*
X15535420Y-11832269D01*
X15535420Y-11832269D02*
X15544944Y-11822746D01*
X15544944Y-11822746D02*
X15554467Y-11803698D01*
X15735420Y-11717984D02*
X15640182Y-11717984D01*
X15640182Y-11717984D02*
X15630658Y-11813222D01*
X15630658Y-11813222D02*
X15640182Y-11803698D01*
X15640182Y-11803698D02*
X15659229Y-11794174D01*
X15659229Y-11794174D02*
X15706848Y-11794174D01*
X15706848Y-11794174D02*
X15725896Y-11803698D01*
X15725896Y-11803698D02*
X15735420Y-11813222D01*
X15735420Y-11813222D02*
X15744944Y-11832269D01*
X15744944Y-11832269D02*
X15744944Y-11879888D01*
X15744944Y-11879888D02*
X15735420Y-11898936D01*
X15735420Y-11898936D02*
X15725896Y-11908460D01*
X15725896Y-11908460D02*
X15706848Y-11917984D01*
X15706848Y-11917984D02*
X15659229Y-11917984D01*
X15659229Y-11917984D02*
X15640182Y-11908460D01*
X15640182Y-11908460D02*
X15630658Y-11898936D01*
X15821134Y-11717984D02*
X15821134Y-11756079D01*
X15897325Y-11717984D02*
X15897325Y-11756079D01*
X16192563Y-11994174D02*
X16183039Y-11984650D01*
X16183039Y-11984650D02*
X16163991Y-11956079D01*
X16163991Y-11956079D02*
X16154468Y-11937031D01*
X16154468Y-11937031D02*
X16144944Y-11908460D01*
X16144944Y-11908460D02*
X16135420Y-11860841D01*
X16135420Y-11860841D02*
X16135420Y-11822746D01*
X16135420Y-11822746D02*
X16144944Y-11775127D01*
X16144944Y-11775127D02*
X16154468Y-11746555D01*
X16154468Y-11746555D02*
X16163991Y-11727508D01*
X16163991Y-11727508D02*
X16183039Y-11698936D01*
X16183039Y-11698936D02*
X16192563Y-11689412D01*
X16373515Y-11917984D02*
X16259229Y-11917984D01*
X16316372Y-11917984D02*
X16316372Y-11717984D01*
X16316372Y-11717984D02*
X16297325Y-11746555D01*
X16297325Y-11746555D02*
X16278277Y-11765603D01*
X16278277Y-11765603D02*
X16259229Y-11775127D01*
X16554468Y-11717984D02*
X16459229Y-11717984D01*
X16459229Y-11717984D02*
X16449706Y-11813222D01*
X16449706Y-11813222D02*
X16459229Y-11803698D01*
X16459229Y-11803698D02*
X16478277Y-11794174D01*
X16478277Y-11794174D02*
X16525896Y-11794174D01*
X16525896Y-11794174D02*
X16544944Y-11803698D01*
X16544944Y-11803698D02*
X16554468Y-11813222D01*
X16554468Y-11813222D02*
X16563991Y-11832269D01*
X16563991Y-11832269D02*
X16563991Y-11879888D01*
X16563991Y-11879888D02*
X16554468Y-11898936D01*
X16554468Y-11898936D02*
X16544944Y-11908460D01*
X16544944Y-11908460D02*
X16525896Y-11917984D01*
X16525896Y-11917984D02*
X16478277Y-11917984D01*
X16478277Y-11917984D02*
X16459229Y-11908460D01*
X16459229Y-11908460D02*
X16449706Y-11898936D01*
X16802087Y-11917984D02*
X16802087Y-11717984D01*
X16887801Y-11917984D02*
X16887801Y-11813222D01*
X16887801Y-11813222D02*
X16878277Y-11794174D01*
X16878277Y-11794174D02*
X16859230Y-11784650D01*
X16859230Y-11784650D02*
X16830658Y-11784650D01*
X16830658Y-11784650D02*
X16811611Y-11794174D01*
X16811611Y-11794174D02*
X16802087Y-11803698D01*
X17011611Y-11917984D02*
X16992563Y-11908460D01*
X16992563Y-11908460D02*
X16983039Y-11898936D01*
X16983039Y-11898936D02*
X16973515Y-11879888D01*
X16973515Y-11879888D02*
X16973515Y-11822746D01*
X16973515Y-11822746D02*
X16983039Y-11803698D01*
X16983039Y-11803698D02*
X16992563Y-11794174D01*
X16992563Y-11794174D02*
X17011611Y-11784650D01*
X17011611Y-11784650D02*
X17040182Y-11784650D01*
X17040182Y-11784650D02*
X17059230Y-11794174D01*
X17059230Y-11794174D02*
X17068753Y-11803698D01*
X17068753Y-11803698D02*
X17078277Y-11822746D01*
X17078277Y-11822746D02*
X17078277Y-11879888D01*
X17078277Y-11879888D02*
X17068753Y-11898936D01*
X17068753Y-11898936D02*
X17059230Y-11908460D01*
X17059230Y-11908460D02*
X17040182Y-11917984D01*
X17040182Y-11917984D02*
X17011611Y-11917984D01*
X17192563Y-11917984D02*
X17173515Y-11908460D01*
X17173515Y-11908460D02*
X17163992Y-11889412D01*
X17163992Y-11889412D02*
X17163992Y-11717984D01*
X17344944Y-11908460D02*
X17325896Y-11917984D01*
X17325896Y-11917984D02*
X17287801Y-11917984D01*
X17287801Y-11917984D02*
X17268753Y-11908460D01*
X17268753Y-11908460D02*
X17259230Y-11889412D01*
X17259230Y-11889412D02*
X17259230Y-11813222D01*
X17259230Y-11813222D02*
X17268753Y-11794174D01*
X17268753Y-11794174D02*
X17287801Y-11784650D01*
X17287801Y-11784650D02*
X17325896Y-11784650D01*
X17325896Y-11784650D02*
X17344944Y-11794174D01*
X17344944Y-11794174D02*
X17354468Y-11813222D01*
X17354468Y-11813222D02*
X17354468Y-11832269D01*
X17354468Y-11832269D02*
X17259230Y-11851317D01*
X17430658Y-11908460D02*
X17449706Y-11917984D01*
X17449706Y-11917984D02*
X17487801Y-11917984D01*
X17487801Y-11917984D02*
X17506849Y-11908460D01*
X17506849Y-11908460D02*
X17516373Y-11889412D01*
X17516373Y-11889412D02*
X17516373Y-11879888D01*
X17516373Y-11879888D02*
X17506849Y-11860841D01*
X17506849Y-11860841D02*
X17487801Y-11851317D01*
X17487801Y-11851317D02*
X17459230Y-11851317D01*
X17459230Y-11851317D02*
X17440182Y-11841793D01*
X17440182Y-11841793D02*
X17430658Y-11822746D01*
X17430658Y-11822746D02*
X17430658Y-11813222D01*
X17430658Y-11813222D02*
X17440182Y-11794174D01*
X17440182Y-11794174D02*
X17459230Y-11784650D01*
X17459230Y-11784650D02*
X17487801Y-11784650D01*
X17487801Y-11784650D02*
X17506849Y-11794174D01*
X17583039Y-11994174D02*
X17592563Y-11984650D01*
X17592563Y-11984650D02*
X17611611Y-11956079D01*
X17611611Y-11956079D02*
X17621134Y-11937031D01*
X17621134Y-11937031D02*
X17630658Y-11908460D01*
X17630658Y-11908460D02*
X17640182Y-11860841D01*
X17640182Y-11860841D02*
X17640182Y-11822746D01*
X17640182Y-11822746D02*
X17630658Y-11775127D01*
X17630658Y-11775127D02*
X17621134Y-11746555D01*
X17621134Y-11746555D02*
X17611611Y-11727508D01*
X17611611Y-11727508D02*
X17592563Y-11698936D01*
X17592563Y-11698936D02*
X17583039Y-11689412D01*
D12*
X12577500Y-12050500D02*
X12577500Y-12130500D01*
X12537500Y-12090500D02*
X12617500Y-12090500D01*
D11*
X12916372Y-11981984D02*
X12935420Y-11981984D01*
X12935420Y-11981984D02*
X12954467Y-11991508D01*
X12954467Y-11991508D02*
X12963991Y-12001031D01*
X12963991Y-12001031D02*
X12973515Y-12020079D01*
X12973515Y-12020079D02*
X12983039Y-12058174D01*
X12983039Y-12058174D02*
X12983039Y-12105793D01*
X12983039Y-12105793D02*
X12973515Y-12143888D01*
X12973515Y-12143888D02*
X12963991Y-12162936D01*
X12963991Y-12162936D02*
X12954467Y-12172460D01*
X12954467Y-12172460D02*
X12935420Y-12181984D01*
X12935420Y-12181984D02*
X12916372Y-12181984D01*
X12916372Y-12181984D02*
X12897324Y-12172460D01*
X12897324Y-12172460D02*
X12887801Y-12162936D01*
X12887801Y-12162936D02*
X12878277Y-12143888D01*
X12878277Y-12143888D02*
X12868753Y-12105793D01*
X12868753Y-12105793D02*
X12868753Y-12058174D01*
X12868753Y-12058174D02*
X12878277Y-12020079D01*
X12878277Y-12020079D02*
X12887801Y-12001031D01*
X12887801Y-12001031D02*
X12897324Y-11991508D01*
X12897324Y-11991508D02*
X12916372Y-11981984D01*
X13068753Y-12162936D02*
X13078277Y-12172460D01*
X13078277Y-12172460D02*
X13068753Y-12181984D01*
X13068753Y-12181984D02*
X13059229Y-12172460D01*
X13059229Y-12172460D02*
X13068753Y-12162936D01*
X13068753Y-12162936D02*
X13068753Y-12181984D01*
X13192562Y-12067698D02*
X13173515Y-12058174D01*
X13173515Y-12058174D02*
X13163991Y-12048650D01*
X13163991Y-12048650D02*
X13154467Y-12029603D01*
X13154467Y-12029603D02*
X13154467Y-12020079D01*
X13154467Y-12020079D02*
X13163991Y-12001031D01*
X13163991Y-12001031D02*
X13173515Y-11991508D01*
X13173515Y-11991508D02*
X13192562Y-11981984D01*
X13192562Y-11981984D02*
X13230658Y-11981984D01*
X13230658Y-11981984D02*
X13249705Y-11991508D01*
X13249705Y-11991508D02*
X13259229Y-12001031D01*
X13259229Y-12001031D02*
X13268753Y-12020079D01*
X13268753Y-12020079D02*
X13268753Y-12029603D01*
X13268753Y-12029603D02*
X13259229Y-12048650D01*
X13259229Y-12048650D02*
X13249705Y-12058174D01*
X13249705Y-12058174D02*
X13230658Y-12067698D01*
X13230658Y-12067698D02*
X13192562Y-12067698D01*
X13192562Y-12067698D02*
X13173515Y-12077222D01*
X13173515Y-12077222D02*
X13163991Y-12086746D01*
X13163991Y-12086746D02*
X13154467Y-12105793D01*
X13154467Y-12105793D02*
X13154467Y-12143888D01*
X13154467Y-12143888D02*
X13163991Y-12162936D01*
X13163991Y-12162936D02*
X13173515Y-12172460D01*
X13173515Y-12172460D02*
X13192562Y-12181984D01*
X13192562Y-12181984D02*
X13230658Y-12181984D01*
X13230658Y-12181984D02*
X13249705Y-12172460D01*
X13249705Y-12172460D02*
X13259229Y-12162936D01*
X13259229Y-12162936D02*
X13268753Y-12143888D01*
X13268753Y-12143888D02*
X13268753Y-12105793D01*
X13268753Y-12105793D02*
X13259229Y-12086746D01*
X13259229Y-12086746D02*
X13249705Y-12077222D01*
X13249705Y-12077222D02*
X13230658Y-12067698D01*
X13392562Y-11981984D02*
X13411610Y-11981984D01*
X13411610Y-11981984D02*
X13430658Y-11991508D01*
X13430658Y-11991508D02*
X13440182Y-12001031D01*
X13440182Y-12001031D02*
X13449705Y-12020079D01*
X13449705Y-12020079D02*
X13459229Y-12058174D01*
X13459229Y-12058174D02*
X13459229Y-12105793D01*
X13459229Y-12105793D02*
X13449705Y-12143888D01*
X13449705Y-12143888D02*
X13440182Y-12162936D01*
X13440182Y-12162936D02*
X13430658Y-12172460D01*
X13430658Y-12172460D02*
X13411610Y-12181984D01*
X13411610Y-12181984D02*
X13392562Y-12181984D01*
X13392562Y-12181984D02*
X13373515Y-12172460D01*
X13373515Y-12172460D02*
X13363991Y-12162936D01*
X13363991Y-12162936D02*
X13354467Y-12143888D01*
X13354467Y-12143888D02*
X13344943Y-12105793D01*
X13344943Y-12105793D02*
X13344943Y-12058174D01*
X13344943Y-12058174D02*
X13354467Y-12020079D01*
X13354467Y-12020079D02*
X13363991Y-12001031D01*
X13363991Y-12001031D02*
X13373515Y-11991508D01*
X13373515Y-11991508D02*
X13392562Y-11981984D01*
X13583039Y-11981984D02*
X13602086Y-11981984D01*
X13602086Y-11981984D02*
X13621134Y-11991508D01*
X13621134Y-11991508D02*
X13630658Y-12001031D01*
X13630658Y-12001031D02*
X13640182Y-12020079D01*
X13640182Y-12020079D02*
X13649705Y-12058174D01*
X13649705Y-12058174D02*
X13649705Y-12105793D01*
X13649705Y-12105793D02*
X13640182Y-12143888D01*
X13640182Y-12143888D02*
X13630658Y-12162936D01*
X13630658Y-12162936D02*
X13621134Y-12172460D01*
X13621134Y-12172460D02*
X13602086Y-12181984D01*
X13602086Y-12181984D02*
X13583039Y-12181984D01*
X13583039Y-12181984D02*
X13563991Y-12172460D01*
X13563991Y-12172460D02*
X13554467Y-12162936D01*
X13554467Y-12162936D02*
X13544943Y-12143888D01*
X13544943Y-12143888D02*
X13535420Y-12105793D01*
X13535420Y-12105793D02*
X13535420Y-12058174D01*
X13535420Y-12058174D02*
X13544943Y-12020079D01*
X13544943Y-12020079D02*
X13554467Y-12001031D01*
X13554467Y-12001031D02*
X13563991Y-11991508D01*
X13563991Y-11991508D02*
X13583039Y-11981984D01*
X13735420Y-12181984D02*
X13735420Y-12048650D01*
X13735420Y-12067698D02*
X13744943Y-12058174D01*
X13744943Y-12058174D02*
X13763991Y-12048650D01*
X13763991Y-12048650D02*
X13792563Y-12048650D01*
X13792563Y-12048650D02*
X13811610Y-12058174D01*
X13811610Y-12058174D02*
X13821134Y-12077222D01*
X13821134Y-12077222D02*
X13821134Y-12181984D01*
X13821134Y-12077222D02*
X13830658Y-12058174D01*
X13830658Y-12058174D02*
X13849705Y-12048650D01*
X13849705Y-12048650D02*
X13878277Y-12048650D01*
X13878277Y-12048650D02*
X13897324Y-12058174D01*
X13897324Y-12058174D02*
X13906848Y-12077222D01*
X13906848Y-12077222D02*
X13906848Y-12181984D01*
X14002086Y-12181984D02*
X14002086Y-12048650D01*
X14002086Y-12067698D02*
X14011610Y-12058174D01*
X14011610Y-12058174D02*
X14030658Y-12048650D01*
X14030658Y-12048650D02*
X14059229Y-12048650D01*
X14059229Y-12048650D02*
X14078277Y-12058174D01*
X14078277Y-12058174D02*
X14087801Y-12077222D01*
X14087801Y-12077222D02*
X14087801Y-12181984D01*
X14087801Y-12077222D02*
X14097324Y-12058174D01*
X14097324Y-12058174D02*
X14116372Y-12048650D01*
X14116372Y-12048650D02*
X14144943Y-12048650D01*
X14144943Y-12048650D02*
X14163991Y-12058174D01*
X14163991Y-12058174D02*
X14173515Y-12077222D01*
X14173515Y-12077222D02*
X14173515Y-12181984D01*
X14563991Y-11972460D02*
X14392563Y-12229603D01*
X14821134Y-11981984D02*
X14840182Y-11981984D01*
X14840182Y-11981984D02*
X14859229Y-11991508D01*
X14859229Y-11991508D02*
X14868753Y-12001031D01*
X14868753Y-12001031D02*
X14878277Y-12020079D01*
X14878277Y-12020079D02*
X14887801Y-12058174D01*
X14887801Y-12058174D02*
X14887801Y-12105793D01*
X14887801Y-12105793D02*
X14878277Y-12143888D01*
X14878277Y-12143888D02*
X14868753Y-12162936D01*
X14868753Y-12162936D02*
X14859229Y-12172460D01*
X14859229Y-12172460D02*
X14840182Y-12181984D01*
X14840182Y-12181984D02*
X14821134Y-12181984D01*
X14821134Y-12181984D02*
X14802086Y-12172460D01*
X14802086Y-12172460D02*
X14792563Y-12162936D01*
X14792563Y-12162936D02*
X14783039Y-12143888D01*
X14783039Y-12143888D02*
X14773515Y-12105793D01*
X14773515Y-12105793D02*
X14773515Y-12058174D01*
X14773515Y-12058174D02*
X14783039Y-12020079D01*
X14783039Y-12020079D02*
X14792563Y-12001031D01*
X14792563Y-12001031D02*
X14802086Y-11991508D01*
X14802086Y-11991508D02*
X14821134Y-11981984D01*
X14973515Y-12162936D02*
X14983039Y-12172460D01*
X14983039Y-12172460D02*
X14973515Y-12181984D01*
X14973515Y-12181984D02*
X14963991Y-12172460D01*
X14963991Y-12172460D02*
X14973515Y-12162936D01*
X14973515Y-12162936D02*
X14973515Y-12181984D01*
X15106848Y-11981984D02*
X15125896Y-11981984D01*
X15125896Y-11981984D02*
X15144944Y-11991508D01*
X15144944Y-11991508D02*
X15154467Y-12001031D01*
X15154467Y-12001031D02*
X15163991Y-12020079D01*
X15163991Y-12020079D02*
X15173515Y-12058174D01*
X15173515Y-12058174D02*
X15173515Y-12105793D01*
X15173515Y-12105793D02*
X15163991Y-12143888D01*
X15163991Y-12143888D02*
X15154467Y-12162936D01*
X15154467Y-12162936D02*
X15144944Y-12172460D01*
X15144944Y-12172460D02*
X15125896Y-12181984D01*
X15125896Y-12181984D02*
X15106848Y-12181984D01*
X15106848Y-12181984D02*
X15087801Y-12172460D01*
X15087801Y-12172460D02*
X15078277Y-12162936D01*
X15078277Y-12162936D02*
X15068753Y-12143888D01*
X15068753Y-12143888D02*
X15059229Y-12105793D01*
X15059229Y-12105793D02*
X15059229Y-12058174D01*
X15059229Y-12058174D02*
X15068753Y-12020079D01*
X15068753Y-12020079D02*
X15078277Y-12001031D01*
X15078277Y-12001031D02*
X15087801Y-11991508D01*
X15087801Y-11991508D02*
X15106848Y-11981984D01*
X15240182Y-11981984D02*
X15363991Y-11981984D01*
X15363991Y-11981984D02*
X15297325Y-12058174D01*
X15297325Y-12058174D02*
X15325896Y-12058174D01*
X15325896Y-12058174D02*
X15344944Y-12067698D01*
X15344944Y-12067698D02*
X15354467Y-12077222D01*
X15354467Y-12077222D02*
X15363991Y-12096269D01*
X15363991Y-12096269D02*
X15363991Y-12143888D01*
X15363991Y-12143888D02*
X15354467Y-12162936D01*
X15354467Y-12162936D02*
X15344944Y-12172460D01*
X15344944Y-12172460D02*
X15325896Y-12181984D01*
X15325896Y-12181984D02*
X15268753Y-12181984D01*
X15268753Y-12181984D02*
X15249706Y-12172460D01*
X15249706Y-12172460D02*
X15240182Y-12162936D01*
X15554467Y-12181984D02*
X15440182Y-12181984D01*
X15497325Y-12181984D02*
X15497325Y-11981984D01*
X15497325Y-11981984D02*
X15478277Y-12010555D01*
X15478277Y-12010555D02*
X15459229Y-12029603D01*
X15459229Y-12029603D02*
X15440182Y-12039127D01*
X15735420Y-11981984D02*
X15640182Y-11981984D01*
X15640182Y-11981984D02*
X15630658Y-12077222D01*
X15630658Y-12077222D02*
X15640182Y-12067698D01*
X15640182Y-12067698D02*
X15659229Y-12058174D01*
X15659229Y-12058174D02*
X15706848Y-12058174D01*
X15706848Y-12058174D02*
X15725896Y-12067698D01*
X15725896Y-12067698D02*
X15735420Y-12077222D01*
X15735420Y-12077222D02*
X15744944Y-12096269D01*
X15744944Y-12096269D02*
X15744944Y-12143888D01*
X15744944Y-12143888D02*
X15735420Y-12162936D01*
X15735420Y-12162936D02*
X15725896Y-12172460D01*
X15725896Y-12172460D02*
X15706848Y-12181984D01*
X15706848Y-12181984D02*
X15659229Y-12181984D01*
X15659229Y-12181984D02*
X15640182Y-12172460D01*
X15640182Y-12172460D02*
X15630658Y-12162936D01*
X15821134Y-11981984D02*
X15821134Y-12020079D01*
X15897325Y-11981984D02*
X15897325Y-12020079D01*
X16192563Y-12258174D02*
X16183039Y-12248650D01*
X16183039Y-12248650D02*
X16163991Y-12220079D01*
X16163991Y-12220079D02*
X16154468Y-12201031D01*
X16154468Y-12201031D02*
X16144944Y-12172460D01*
X16144944Y-12172460D02*
X16135420Y-12124841D01*
X16135420Y-12124841D02*
X16135420Y-12086746D01*
X16135420Y-12086746D02*
X16144944Y-12039127D01*
X16144944Y-12039127D02*
X16154468Y-12010555D01*
X16154468Y-12010555D02*
X16163991Y-11991508D01*
X16163991Y-11991508D02*
X16183039Y-11962936D01*
X16183039Y-11962936D02*
X16192563Y-11953412D01*
X16259229Y-12001031D02*
X16268753Y-11991508D01*
X16268753Y-11991508D02*
X16287801Y-11981984D01*
X16287801Y-11981984D02*
X16335420Y-11981984D01*
X16335420Y-11981984D02*
X16354468Y-11991508D01*
X16354468Y-11991508D02*
X16363991Y-12001031D01*
X16363991Y-12001031D02*
X16373515Y-12020079D01*
X16373515Y-12020079D02*
X16373515Y-12039127D01*
X16373515Y-12039127D02*
X16363991Y-12067698D01*
X16363991Y-12067698D02*
X16249706Y-12181984D01*
X16249706Y-12181984D02*
X16373515Y-12181984D01*
X16544944Y-12048650D02*
X16544944Y-12181984D01*
X16497325Y-11972460D02*
X16449706Y-12115317D01*
X16449706Y-12115317D02*
X16573515Y-12115317D01*
X16802087Y-12181984D02*
X16802087Y-11981984D01*
X16887801Y-12181984D02*
X16887801Y-12077222D01*
X16887801Y-12077222D02*
X16878277Y-12058174D01*
X16878277Y-12058174D02*
X16859230Y-12048650D01*
X16859230Y-12048650D02*
X16830658Y-12048650D01*
X16830658Y-12048650D02*
X16811611Y-12058174D01*
X16811611Y-12058174D02*
X16802087Y-12067698D01*
X17011611Y-12181984D02*
X16992563Y-12172460D01*
X16992563Y-12172460D02*
X16983039Y-12162936D01*
X16983039Y-12162936D02*
X16973515Y-12143888D01*
X16973515Y-12143888D02*
X16973515Y-12086746D01*
X16973515Y-12086746D02*
X16983039Y-12067698D01*
X16983039Y-12067698D02*
X16992563Y-12058174D01*
X16992563Y-12058174D02*
X17011611Y-12048650D01*
X17011611Y-12048650D02*
X17040182Y-12048650D01*
X17040182Y-12048650D02*
X17059230Y-12058174D01*
X17059230Y-12058174D02*
X17068753Y-12067698D01*
X17068753Y-12067698D02*
X17078277Y-12086746D01*
X17078277Y-12086746D02*
X17078277Y-12143888D01*
X17078277Y-12143888D02*
X17068753Y-12162936D01*
X17068753Y-12162936D02*
X17059230Y-12172460D01*
X17059230Y-12172460D02*
X17040182Y-12181984D01*
X17040182Y-12181984D02*
X17011611Y-12181984D01*
X17192563Y-12181984D02*
X17173515Y-12172460D01*
X17173515Y-12172460D02*
X17163992Y-12153412D01*
X17163992Y-12153412D02*
X17163992Y-11981984D01*
X17344944Y-12172460D02*
X17325896Y-12181984D01*
X17325896Y-12181984D02*
X17287801Y-12181984D01*
X17287801Y-12181984D02*
X17268753Y-12172460D01*
X17268753Y-12172460D02*
X17259230Y-12153412D01*
X17259230Y-12153412D02*
X17259230Y-12077222D01*
X17259230Y-12077222D02*
X17268753Y-12058174D01*
X17268753Y-12058174D02*
X17287801Y-12048650D01*
X17287801Y-12048650D02*
X17325896Y-12048650D01*
X17325896Y-12048650D02*
X17344944Y-12058174D01*
X17344944Y-12058174D02*
X17354468Y-12077222D01*
X17354468Y-12077222D02*
X17354468Y-12096269D01*
X17354468Y-12096269D02*
X17259230Y-12115317D01*
X17430658Y-12172460D02*
X17449706Y-12181984D01*
X17449706Y-12181984D02*
X17487801Y-12181984D01*
X17487801Y-12181984D02*
X17506849Y-12172460D01*
X17506849Y-12172460D02*
X17516373Y-12153412D01*
X17516373Y-12153412D02*
X17516373Y-12143888D01*
X17516373Y-12143888D02*
X17506849Y-12124841D01*
X17506849Y-12124841D02*
X17487801Y-12115317D01*
X17487801Y-12115317D02*
X17459230Y-12115317D01*
X17459230Y-12115317D02*
X17440182Y-12105793D01*
X17440182Y-12105793D02*
X17430658Y-12086746D01*
X17430658Y-12086746D02*
X17430658Y-12077222D01*
X17430658Y-12077222D02*
X17440182Y-12058174D01*
X17440182Y-12058174D02*
X17459230Y-12048650D01*
X17459230Y-12048650D02*
X17487801Y-12048650D01*
X17487801Y-12048650D02*
X17506849Y-12058174D01*
X17583039Y-12258174D02*
X17592563Y-12248650D01*
X17592563Y-12248650D02*
X17611611Y-12220079D01*
X17611611Y-12220079D02*
X17621134Y-12201031D01*
X17621134Y-12201031D02*
X17630658Y-12172460D01*
X17630658Y-12172460D02*
X17640182Y-12124841D01*
X17640182Y-12124841D02*
X17640182Y-12086746D01*
X17640182Y-12086746D02*
X17630658Y-12039127D01*
X17630658Y-12039127D02*
X17621134Y-12010555D01*
X17621134Y-12010555D02*
X17611611Y-11991508D01*
X17611611Y-11991508D02*
X17592563Y-11962936D01*
X17592563Y-11962936D02*
X17583039Y-11953412D01*
D12*
X12604481Y-12385931D02*
X12604481Y-12323069D01*
X12541619Y-12323069D01*
X12541619Y-12385931D01*
X12604481Y-12385931D01*
D11*
X12916372Y-12245984D02*
X12935420Y-12245984D01*
X12935420Y-12245984D02*
X12954467Y-12255508D01*
X12954467Y-12255508D02*
X12963991Y-12265031D01*
X12963991Y-12265031D02*
X12973515Y-12284079D01*
X12973515Y-12284079D02*
X12983039Y-12322174D01*
X12983039Y-12322174D02*
X12983039Y-12369793D01*
X12983039Y-12369793D02*
X12973515Y-12407888D01*
X12973515Y-12407888D02*
X12963991Y-12426936D01*
X12963991Y-12426936D02*
X12954467Y-12436460D01*
X12954467Y-12436460D02*
X12935420Y-12445984D01*
X12935420Y-12445984D02*
X12916372Y-12445984D01*
X12916372Y-12445984D02*
X12897324Y-12436460D01*
X12897324Y-12436460D02*
X12887801Y-12426936D01*
X12887801Y-12426936D02*
X12878277Y-12407888D01*
X12878277Y-12407888D02*
X12868753Y-12369793D01*
X12868753Y-12369793D02*
X12868753Y-12322174D01*
X12868753Y-12322174D02*
X12878277Y-12284079D01*
X12878277Y-12284079D02*
X12887801Y-12265031D01*
X12887801Y-12265031D02*
X12897324Y-12255508D01*
X12897324Y-12255508D02*
X12916372Y-12245984D01*
X13068753Y-12426936D02*
X13078277Y-12436460D01*
X13078277Y-12436460D02*
X13068753Y-12445984D01*
X13068753Y-12445984D02*
X13059229Y-12436460D01*
X13059229Y-12436460D02*
X13068753Y-12426936D01*
X13068753Y-12426936D02*
X13068753Y-12445984D01*
X13192562Y-12331698D02*
X13173515Y-12322174D01*
X13173515Y-12322174D02*
X13163991Y-12312650D01*
X13163991Y-12312650D02*
X13154467Y-12293603D01*
X13154467Y-12293603D02*
X13154467Y-12284079D01*
X13154467Y-12284079D02*
X13163991Y-12265031D01*
X13163991Y-12265031D02*
X13173515Y-12255508D01*
X13173515Y-12255508D02*
X13192562Y-12245984D01*
X13192562Y-12245984D02*
X13230658Y-12245984D01*
X13230658Y-12245984D02*
X13249705Y-12255508D01*
X13249705Y-12255508D02*
X13259229Y-12265031D01*
X13259229Y-12265031D02*
X13268753Y-12284079D01*
X13268753Y-12284079D02*
X13268753Y-12293603D01*
X13268753Y-12293603D02*
X13259229Y-12312650D01*
X13259229Y-12312650D02*
X13249705Y-12322174D01*
X13249705Y-12322174D02*
X13230658Y-12331698D01*
X13230658Y-12331698D02*
X13192562Y-12331698D01*
X13192562Y-12331698D02*
X13173515Y-12341222D01*
X13173515Y-12341222D02*
X13163991Y-12350746D01*
X13163991Y-12350746D02*
X13154467Y-12369793D01*
X13154467Y-12369793D02*
X13154467Y-12407888D01*
X13154467Y-12407888D02*
X13163991Y-12426936D01*
X13163991Y-12426936D02*
X13173515Y-12436460D01*
X13173515Y-12436460D02*
X13192562Y-12445984D01*
X13192562Y-12445984D02*
X13230658Y-12445984D01*
X13230658Y-12445984D02*
X13249705Y-12436460D01*
X13249705Y-12436460D02*
X13259229Y-12426936D01*
X13259229Y-12426936D02*
X13268753Y-12407888D01*
X13268753Y-12407888D02*
X13268753Y-12369793D01*
X13268753Y-12369793D02*
X13259229Y-12350746D01*
X13259229Y-12350746D02*
X13249705Y-12341222D01*
X13249705Y-12341222D02*
X13230658Y-12331698D01*
X13383039Y-12331698D02*
X13363991Y-12322174D01*
X13363991Y-12322174D02*
X13354467Y-12312650D01*
X13354467Y-12312650D02*
X13344943Y-12293603D01*
X13344943Y-12293603D02*
X13344943Y-12284079D01*
X13344943Y-12284079D02*
X13354467Y-12265031D01*
X13354467Y-12265031D02*
X13363991Y-12255508D01*
X13363991Y-12255508D02*
X13383039Y-12245984D01*
X13383039Y-12245984D02*
X13421134Y-12245984D01*
X13421134Y-12245984D02*
X13440182Y-12255508D01*
X13440182Y-12255508D02*
X13449705Y-12265031D01*
X13449705Y-12265031D02*
X13459229Y-12284079D01*
X13459229Y-12284079D02*
X13459229Y-12293603D01*
X13459229Y-12293603D02*
X13449705Y-12312650D01*
X13449705Y-12312650D02*
X13440182Y-12322174D01*
X13440182Y-12322174D02*
X13421134Y-12331698D01*
X13421134Y-12331698D02*
X13383039Y-12331698D01*
X13383039Y-12331698D02*
X13363991Y-12341222D01*
X13363991Y-12341222D02*
X13354467Y-12350746D01*
X13354467Y-12350746D02*
X13344943Y-12369793D01*
X13344943Y-12369793D02*
X13344943Y-12407888D01*
X13344943Y-12407888D02*
X13354467Y-12426936D01*
X13354467Y-12426936D02*
X13363991Y-12436460D01*
X13363991Y-12436460D02*
X13383039Y-12445984D01*
X13383039Y-12445984D02*
X13421134Y-12445984D01*
X13421134Y-12445984D02*
X13440182Y-12436460D01*
X13440182Y-12436460D02*
X13449705Y-12426936D01*
X13449705Y-12426936D02*
X13459229Y-12407888D01*
X13459229Y-12407888D02*
X13459229Y-12369793D01*
X13459229Y-12369793D02*
X13449705Y-12350746D01*
X13449705Y-12350746D02*
X13440182Y-12341222D01*
X13440182Y-12341222D02*
X13421134Y-12331698D01*
X13554467Y-12445984D02*
X13592562Y-12445984D01*
X13592562Y-12445984D02*
X13611610Y-12436460D01*
X13611610Y-12436460D02*
X13621134Y-12426936D01*
X13621134Y-12426936D02*
X13640182Y-12398365D01*
X13640182Y-12398365D02*
X13649705Y-12360269D01*
X13649705Y-12360269D02*
X13649705Y-12284079D01*
X13649705Y-12284079D02*
X13640182Y-12265031D01*
X13640182Y-12265031D02*
X13630658Y-12255508D01*
X13630658Y-12255508D02*
X13611610Y-12245984D01*
X13611610Y-12245984D02*
X13573515Y-12245984D01*
X13573515Y-12245984D02*
X13554467Y-12255508D01*
X13554467Y-12255508D02*
X13544943Y-12265031D01*
X13544943Y-12265031D02*
X13535420Y-12284079D01*
X13535420Y-12284079D02*
X13535420Y-12331698D01*
X13535420Y-12331698D02*
X13544943Y-12350746D01*
X13544943Y-12350746D02*
X13554467Y-12360269D01*
X13554467Y-12360269D02*
X13573515Y-12369793D01*
X13573515Y-12369793D02*
X13611610Y-12369793D01*
X13611610Y-12369793D02*
X13630658Y-12360269D01*
X13630658Y-12360269D02*
X13640182Y-12350746D01*
X13640182Y-12350746D02*
X13649705Y-12331698D01*
X13735420Y-12445984D02*
X13735420Y-12312650D01*
X13735420Y-12331698D02*
X13744943Y-12322174D01*
X13744943Y-12322174D02*
X13763991Y-12312650D01*
X13763991Y-12312650D02*
X13792563Y-12312650D01*
X13792563Y-12312650D02*
X13811610Y-12322174D01*
X13811610Y-12322174D02*
X13821134Y-12341222D01*
X13821134Y-12341222D02*
X13821134Y-12445984D01*
X13821134Y-12341222D02*
X13830658Y-12322174D01*
X13830658Y-12322174D02*
X13849705Y-12312650D01*
X13849705Y-12312650D02*
X13878277Y-12312650D01*
X13878277Y-12312650D02*
X13897324Y-12322174D01*
X13897324Y-12322174D02*
X13906848Y-12341222D01*
X13906848Y-12341222D02*
X13906848Y-12445984D01*
X14002086Y-12445984D02*
X14002086Y-12312650D01*
X14002086Y-12331698D02*
X14011610Y-12322174D01*
X14011610Y-12322174D02*
X14030658Y-12312650D01*
X14030658Y-12312650D02*
X14059229Y-12312650D01*
X14059229Y-12312650D02*
X14078277Y-12322174D01*
X14078277Y-12322174D02*
X14087801Y-12341222D01*
X14087801Y-12341222D02*
X14087801Y-12445984D01*
X14087801Y-12341222D02*
X14097324Y-12322174D01*
X14097324Y-12322174D02*
X14116372Y-12312650D01*
X14116372Y-12312650D02*
X14144943Y-12312650D01*
X14144943Y-12312650D02*
X14163991Y-12322174D01*
X14163991Y-12322174D02*
X14173515Y-12341222D01*
X14173515Y-12341222D02*
X14173515Y-12445984D01*
X14563991Y-12236460D02*
X14392563Y-12493603D01*
X14821134Y-12245984D02*
X14840182Y-12245984D01*
X14840182Y-12245984D02*
X14859229Y-12255508D01*
X14859229Y-12255508D02*
X14868753Y-12265031D01*
X14868753Y-12265031D02*
X14878277Y-12284079D01*
X14878277Y-12284079D02*
X14887801Y-12322174D01*
X14887801Y-12322174D02*
X14887801Y-12369793D01*
X14887801Y-12369793D02*
X14878277Y-12407888D01*
X14878277Y-12407888D02*
X14868753Y-12426936D01*
X14868753Y-12426936D02*
X14859229Y-12436460D01*
X14859229Y-12436460D02*
X14840182Y-12445984D01*
X14840182Y-12445984D02*
X14821134Y-12445984D01*
X14821134Y-12445984D02*
X14802086Y-12436460D01*
X14802086Y-12436460D02*
X14792563Y-12426936D01*
X14792563Y-12426936D02*
X14783039Y-12407888D01*
X14783039Y-12407888D02*
X14773515Y-12369793D01*
X14773515Y-12369793D02*
X14773515Y-12322174D01*
X14773515Y-12322174D02*
X14783039Y-12284079D01*
X14783039Y-12284079D02*
X14792563Y-12265031D01*
X14792563Y-12265031D02*
X14802086Y-12255508D01*
X14802086Y-12255508D02*
X14821134Y-12245984D01*
X14973515Y-12426936D02*
X14983039Y-12436460D01*
X14983039Y-12436460D02*
X14973515Y-12445984D01*
X14973515Y-12445984D02*
X14963991Y-12436460D01*
X14963991Y-12436460D02*
X14973515Y-12426936D01*
X14973515Y-12426936D02*
X14973515Y-12445984D01*
X15106848Y-12245984D02*
X15125896Y-12245984D01*
X15125896Y-12245984D02*
X15144944Y-12255508D01*
X15144944Y-12255508D02*
X15154467Y-12265031D01*
X15154467Y-12265031D02*
X15163991Y-12284079D01*
X15163991Y-12284079D02*
X15173515Y-12322174D01*
X15173515Y-12322174D02*
X15173515Y-12369793D01*
X15173515Y-12369793D02*
X15163991Y-12407888D01*
X15163991Y-12407888D02*
X15154467Y-12426936D01*
X15154467Y-12426936D02*
X15144944Y-12436460D01*
X15144944Y-12436460D02*
X15125896Y-12445984D01*
X15125896Y-12445984D02*
X15106848Y-12445984D01*
X15106848Y-12445984D02*
X15087801Y-12436460D01*
X15087801Y-12436460D02*
X15078277Y-12426936D01*
X15078277Y-12426936D02*
X15068753Y-12407888D01*
X15068753Y-12407888D02*
X15059229Y-12369793D01*
X15059229Y-12369793D02*
X15059229Y-12322174D01*
X15059229Y-12322174D02*
X15068753Y-12284079D01*
X15068753Y-12284079D02*
X15078277Y-12265031D01*
X15078277Y-12265031D02*
X15087801Y-12255508D01*
X15087801Y-12255508D02*
X15106848Y-12245984D01*
X15240182Y-12245984D02*
X15363991Y-12245984D01*
X15363991Y-12245984D02*
X15297325Y-12322174D01*
X15297325Y-12322174D02*
X15325896Y-12322174D01*
X15325896Y-12322174D02*
X15344944Y-12331698D01*
X15344944Y-12331698D02*
X15354467Y-12341222D01*
X15354467Y-12341222D02*
X15363991Y-12360269D01*
X15363991Y-12360269D02*
X15363991Y-12407888D01*
X15363991Y-12407888D02*
X15354467Y-12426936D01*
X15354467Y-12426936D02*
X15344944Y-12436460D01*
X15344944Y-12436460D02*
X15325896Y-12445984D01*
X15325896Y-12445984D02*
X15268753Y-12445984D01*
X15268753Y-12445984D02*
X15249706Y-12436460D01*
X15249706Y-12436460D02*
X15240182Y-12426936D01*
X15544944Y-12245984D02*
X15449706Y-12245984D01*
X15449706Y-12245984D02*
X15440182Y-12341222D01*
X15440182Y-12341222D02*
X15449706Y-12331698D01*
X15449706Y-12331698D02*
X15468753Y-12322174D01*
X15468753Y-12322174D02*
X15516372Y-12322174D01*
X15516372Y-12322174D02*
X15535420Y-12331698D01*
X15535420Y-12331698D02*
X15544944Y-12341222D01*
X15544944Y-12341222D02*
X15554467Y-12360269D01*
X15554467Y-12360269D02*
X15554467Y-12407888D01*
X15554467Y-12407888D02*
X15544944Y-12426936D01*
X15544944Y-12426936D02*
X15535420Y-12436460D01*
X15535420Y-12436460D02*
X15516372Y-12445984D01*
X15516372Y-12445984D02*
X15468753Y-12445984D01*
X15468753Y-12445984D02*
X15449706Y-12436460D01*
X15449706Y-12436460D02*
X15440182Y-12426936D01*
X15678277Y-12245984D02*
X15697325Y-12245984D01*
X15697325Y-12245984D02*
X15716372Y-12255508D01*
X15716372Y-12255508D02*
X15725896Y-12265031D01*
X15725896Y-12265031D02*
X15735420Y-12284079D01*
X15735420Y-12284079D02*
X15744944Y-12322174D01*
X15744944Y-12322174D02*
X15744944Y-12369793D01*
X15744944Y-12369793D02*
X15735420Y-12407888D01*
X15735420Y-12407888D02*
X15725896Y-12426936D01*
X15725896Y-12426936D02*
X15716372Y-12436460D01*
X15716372Y-12436460D02*
X15697325Y-12445984D01*
X15697325Y-12445984D02*
X15678277Y-12445984D01*
X15678277Y-12445984D02*
X15659229Y-12436460D01*
X15659229Y-12436460D02*
X15649706Y-12426936D01*
X15649706Y-12426936D02*
X15640182Y-12407888D01*
X15640182Y-12407888D02*
X15630658Y-12369793D01*
X15630658Y-12369793D02*
X15630658Y-12322174D01*
X15630658Y-12322174D02*
X15640182Y-12284079D01*
X15640182Y-12284079D02*
X15649706Y-12265031D01*
X15649706Y-12265031D02*
X15659229Y-12255508D01*
X15659229Y-12255508D02*
X15678277Y-12245984D01*
X15821134Y-12245984D02*
X15821134Y-12284079D01*
X15897325Y-12245984D02*
X15897325Y-12284079D01*
X16192563Y-12522174D02*
X16183039Y-12512650D01*
X16183039Y-12512650D02*
X16163991Y-12484079D01*
X16163991Y-12484079D02*
X16154468Y-12465031D01*
X16154468Y-12465031D02*
X16144944Y-12436460D01*
X16144944Y-12436460D02*
X16135420Y-12388841D01*
X16135420Y-12388841D02*
X16135420Y-12350746D01*
X16135420Y-12350746D02*
X16144944Y-12303127D01*
X16144944Y-12303127D02*
X16154468Y-12274555D01*
X16154468Y-12274555D02*
X16163991Y-12255508D01*
X16163991Y-12255508D02*
X16183039Y-12226936D01*
X16183039Y-12226936D02*
X16192563Y-12217412D01*
X16373515Y-12445984D02*
X16259229Y-12445984D01*
X16316372Y-12445984D02*
X16316372Y-12245984D01*
X16316372Y-12245984D02*
X16297325Y-12274555D01*
X16297325Y-12274555D02*
X16278277Y-12293603D01*
X16278277Y-12293603D02*
X16259229Y-12303127D01*
X16544944Y-12312650D02*
X16544944Y-12445984D01*
X16497325Y-12236460D02*
X16449706Y-12379317D01*
X16449706Y-12379317D02*
X16573515Y-12379317D01*
X16802087Y-12445984D02*
X16802087Y-12245984D01*
X16887801Y-12445984D02*
X16887801Y-12341222D01*
X16887801Y-12341222D02*
X16878277Y-12322174D01*
X16878277Y-12322174D02*
X16859230Y-12312650D01*
X16859230Y-12312650D02*
X16830658Y-12312650D01*
X16830658Y-12312650D02*
X16811611Y-12322174D01*
X16811611Y-12322174D02*
X16802087Y-12331698D01*
X17011611Y-12445984D02*
X16992563Y-12436460D01*
X16992563Y-12436460D02*
X16983039Y-12426936D01*
X16983039Y-12426936D02*
X16973515Y-12407888D01*
X16973515Y-12407888D02*
X16973515Y-12350746D01*
X16973515Y-12350746D02*
X16983039Y-12331698D01*
X16983039Y-12331698D02*
X16992563Y-12322174D01*
X16992563Y-12322174D02*
X17011611Y-12312650D01*
X17011611Y-12312650D02*
X17040182Y-12312650D01*
X17040182Y-12312650D02*
X17059230Y-12322174D01*
X17059230Y-12322174D02*
X17068753Y-12331698D01*
X17068753Y-12331698D02*
X17078277Y-12350746D01*
X17078277Y-12350746D02*
X17078277Y-12407888D01*
X17078277Y-12407888D02*
X17068753Y-12426936D01*
X17068753Y-12426936D02*
X17059230Y-12436460D01*
X17059230Y-12436460D02*
X17040182Y-12445984D01*
X17040182Y-12445984D02*
X17011611Y-12445984D01*
X17192563Y-12445984D02*
X17173515Y-12436460D01*
X17173515Y-12436460D02*
X17163992Y-12417412D01*
X17163992Y-12417412D02*
X17163992Y-12245984D01*
X17344944Y-12436460D02*
X17325896Y-12445984D01*
X17325896Y-12445984D02*
X17287801Y-12445984D01*
X17287801Y-12445984D02*
X17268753Y-12436460D01*
X17268753Y-12436460D02*
X17259230Y-12417412D01*
X17259230Y-12417412D02*
X17259230Y-12341222D01*
X17259230Y-12341222D02*
X17268753Y-12322174D01*
X17268753Y-12322174D02*
X17287801Y-12312650D01*
X17287801Y-12312650D02*
X17325896Y-12312650D01*
X17325896Y-12312650D02*
X17344944Y-12322174D01*
X17344944Y-12322174D02*
X17354468Y-12341222D01*
X17354468Y-12341222D02*
X17354468Y-12360269D01*
X17354468Y-12360269D02*
X17259230Y-12379317D01*
X17430658Y-12436460D02*
X17449706Y-12445984D01*
X17449706Y-12445984D02*
X17487801Y-12445984D01*
X17487801Y-12445984D02*
X17506849Y-12436460D01*
X17506849Y-12436460D02*
X17516373Y-12417412D01*
X17516373Y-12417412D02*
X17516373Y-12407888D01*
X17516373Y-12407888D02*
X17506849Y-12388841D01*
X17506849Y-12388841D02*
X17487801Y-12379317D01*
X17487801Y-12379317D02*
X17459230Y-12379317D01*
X17459230Y-12379317D02*
X17440182Y-12369793D01*
X17440182Y-12369793D02*
X17430658Y-12350746D01*
X17430658Y-12350746D02*
X17430658Y-12341222D01*
X17430658Y-12341222D02*
X17440182Y-12322174D01*
X17440182Y-12322174D02*
X17459230Y-12312650D01*
X17459230Y-12312650D02*
X17487801Y-12312650D01*
X17487801Y-12312650D02*
X17506849Y-12322174D01*
X17583039Y-12522174D02*
X17592563Y-12512650D01*
X17592563Y-12512650D02*
X17611611Y-12484079D01*
X17611611Y-12484079D02*
X17621134Y-12465031D01*
X17621134Y-12465031D02*
X17630658Y-12436460D01*
X17630658Y-12436460D02*
X17640182Y-12388841D01*
X17640182Y-12388841D02*
X17640182Y-12350746D01*
X17640182Y-12350746D02*
X17630658Y-12303127D01*
X17630658Y-12303127D02*
X17621134Y-12274555D01*
X17621134Y-12274555D02*
X17611611Y-12255508D01*
X17611611Y-12255508D02*
X17592563Y-12226936D01*
X17592563Y-12226936D02*
X17583039Y-12217412D01*
D12*
X12567500Y-12668500D02*
X12617500Y-12618500D01*
X12567500Y-12568500D01*
X12517500Y-12618500D01*
X12567500Y-12668500D01*
D11*
X12983039Y-12709984D02*
X12868753Y-12709984D01*
X12925896Y-12709984D02*
X12925896Y-12509984D01*
X12925896Y-12509984D02*
X12906848Y-12538555D01*
X12906848Y-12538555D02*
X12887801Y-12557603D01*
X12887801Y-12557603D02*
X12868753Y-12567127D01*
X13068753Y-12690936D02*
X13078277Y-12700460D01*
X13078277Y-12700460D02*
X13068753Y-12709984D01*
X13068753Y-12709984D02*
X13059229Y-12700460D01*
X13059229Y-12700460D02*
X13068753Y-12690936D01*
X13068753Y-12690936D02*
X13068753Y-12709984D01*
X13202086Y-12509984D02*
X13221134Y-12509984D01*
X13221134Y-12509984D02*
X13240182Y-12519508D01*
X13240182Y-12519508D02*
X13249705Y-12529031D01*
X13249705Y-12529031D02*
X13259229Y-12548079D01*
X13259229Y-12548079D02*
X13268753Y-12586174D01*
X13268753Y-12586174D02*
X13268753Y-12633793D01*
X13268753Y-12633793D02*
X13259229Y-12671888D01*
X13259229Y-12671888D02*
X13249705Y-12690936D01*
X13249705Y-12690936D02*
X13240182Y-12700460D01*
X13240182Y-12700460D02*
X13221134Y-12709984D01*
X13221134Y-12709984D02*
X13202086Y-12709984D01*
X13202086Y-12709984D02*
X13183039Y-12700460D01*
X13183039Y-12700460D02*
X13173515Y-12690936D01*
X13173515Y-12690936D02*
X13163991Y-12671888D01*
X13163991Y-12671888D02*
X13154467Y-12633793D01*
X13154467Y-12633793D02*
X13154467Y-12586174D01*
X13154467Y-12586174D02*
X13163991Y-12548079D01*
X13163991Y-12548079D02*
X13173515Y-12529031D01*
X13173515Y-12529031D02*
X13183039Y-12519508D01*
X13183039Y-12519508D02*
X13202086Y-12509984D01*
X13392562Y-12509984D02*
X13411610Y-12509984D01*
X13411610Y-12509984D02*
X13430658Y-12519508D01*
X13430658Y-12519508D02*
X13440182Y-12529031D01*
X13440182Y-12529031D02*
X13449705Y-12548079D01*
X13449705Y-12548079D02*
X13459229Y-12586174D01*
X13459229Y-12586174D02*
X13459229Y-12633793D01*
X13459229Y-12633793D02*
X13449705Y-12671888D01*
X13449705Y-12671888D02*
X13440182Y-12690936D01*
X13440182Y-12690936D02*
X13430658Y-12700460D01*
X13430658Y-12700460D02*
X13411610Y-12709984D01*
X13411610Y-12709984D02*
X13392562Y-12709984D01*
X13392562Y-12709984D02*
X13373515Y-12700460D01*
X13373515Y-12700460D02*
X13363991Y-12690936D01*
X13363991Y-12690936D02*
X13354467Y-12671888D01*
X13354467Y-12671888D02*
X13344943Y-12633793D01*
X13344943Y-12633793D02*
X13344943Y-12586174D01*
X13344943Y-12586174D02*
X13354467Y-12548079D01*
X13354467Y-12548079D02*
X13363991Y-12529031D01*
X13363991Y-12529031D02*
X13373515Y-12519508D01*
X13373515Y-12519508D02*
X13392562Y-12509984D01*
X13583039Y-12509984D02*
X13602086Y-12509984D01*
X13602086Y-12509984D02*
X13621134Y-12519508D01*
X13621134Y-12519508D02*
X13630658Y-12529031D01*
X13630658Y-12529031D02*
X13640182Y-12548079D01*
X13640182Y-12548079D02*
X13649705Y-12586174D01*
X13649705Y-12586174D02*
X13649705Y-12633793D01*
X13649705Y-12633793D02*
X13640182Y-12671888D01*
X13640182Y-12671888D02*
X13630658Y-12690936D01*
X13630658Y-12690936D02*
X13621134Y-12700460D01*
X13621134Y-12700460D02*
X13602086Y-12709984D01*
X13602086Y-12709984D02*
X13583039Y-12709984D01*
X13583039Y-12709984D02*
X13563991Y-12700460D01*
X13563991Y-12700460D02*
X13554467Y-12690936D01*
X13554467Y-12690936D02*
X13544943Y-12671888D01*
X13544943Y-12671888D02*
X13535420Y-12633793D01*
X13535420Y-12633793D02*
X13535420Y-12586174D01*
X13535420Y-12586174D02*
X13544943Y-12548079D01*
X13544943Y-12548079D02*
X13554467Y-12529031D01*
X13554467Y-12529031D02*
X13563991Y-12519508D01*
X13563991Y-12519508D02*
X13583039Y-12509984D01*
X13735420Y-12709984D02*
X13735420Y-12576650D01*
X13735420Y-12595698D02*
X13744943Y-12586174D01*
X13744943Y-12586174D02*
X13763991Y-12576650D01*
X13763991Y-12576650D02*
X13792563Y-12576650D01*
X13792563Y-12576650D02*
X13811610Y-12586174D01*
X13811610Y-12586174D02*
X13821134Y-12605222D01*
X13821134Y-12605222D02*
X13821134Y-12709984D01*
X13821134Y-12605222D02*
X13830658Y-12586174D01*
X13830658Y-12586174D02*
X13849705Y-12576650D01*
X13849705Y-12576650D02*
X13878277Y-12576650D01*
X13878277Y-12576650D02*
X13897324Y-12586174D01*
X13897324Y-12586174D02*
X13906848Y-12605222D01*
X13906848Y-12605222D02*
X13906848Y-12709984D01*
X14002086Y-12709984D02*
X14002086Y-12576650D01*
X14002086Y-12595698D02*
X14011610Y-12586174D01*
X14011610Y-12586174D02*
X14030658Y-12576650D01*
X14030658Y-12576650D02*
X14059229Y-12576650D01*
X14059229Y-12576650D02*
X14078277Y-12586174D01*
X14078277Y-12586174D02*
X14087801Y-12605222D01*
X14087801Y-12605222D02*
X14087801Y-12709984D01*
X14087801Y-12605222D02*
X14097324Y-12586174D01*
X14097324Y-12586174D02*
X14116372Y-12576650D01*
X14116372Y-12576650D02*
X14144943Y-12576650D01*
X14144943Y-12576650D02*
X14163991Y-12586174D01*
X14163991Y-12586174D02*
X14173515Y-12605222D01*
X14173515Y-12605222D02*
X14173515Y-12709984D01*
X14563991Y-12500460D02*
X14392563Y-12757603D01*
X14821134Y-12509984D02*
X14840182Y-12509984D01*
X14840182Y-12509984D02*
X14859229Y-12519508D01*
X14859229Y-12519508D02*
X14868753Y-12529031D01*
X14868753Y-12529031D02*
X14878277Y-12548079D01*
X14878277Y-12548079D02*
X14887801Y-12586174D01*
X14887801Y-12586174D02*
X14887801Y-12633793D01*
X14887801Y-12633793D02*
X14878277Y-12671888D01*
X14878277Y-12671888D02*
X14868753Y-12690936D01*
X14868753Y-12690936D02*
X14859229Y-12700460D01*
X14859229Y-12700460D02*
X14840182Y-12709984D01*
X14840182Y-12709984D02*
X14821134Y-12709984D01*
X14821134Y-12709984D02*
X14802086Y-12700460D01*
X14802086Y-12700460D02*
X14792563Y-12690936D01*
X14792563Y-12690936D02*
X14783039Y-12671888D01*
X14783039Y-12671888D02*
X14773515Y-12633793D01*
X14773515Y-12633793D02*
X14773515Y-12586174D01*
X14773515Y-12586174D02*
X14783039Y-12548079D01*
X14783039Y-12548079D02*
X14792563Y-12529031D01*
X14792563Y-12529031D02*
X14802086Y-12519508D01*
X14802086Y-12519508D02*
X14821134Y-12509984D01*
X14973515Y-12690936D02*
X14983039Y-12700460D01*
X14983039Y-12700460D02*
X14973515Y-12709984D01*
X14973515Y-12709984D02*
X14963991Y-12700460D01*
X14963991Y-12700460D02*
X14973515Y-12690936D01*
X14973515Y-12690936D02*
X14973515Y-12709984D01*
X15106848Y-12509984D02*
X15125896Y-12509984D01*
X15125896Y-12509984D02*
X15144944Y-12519508D01*
X15144944Y-12519508D02*
X15154467Y-12529031D01*
X15154467Y-12529031D02*
X15163991Y-12548079D01*
X15163991Y-12548079D02*
X15173515Y-12586174D01*
X15173515Y-12586174D02*
X15173515Y-12633793D01*
X15173515Y-12633793D02*
X15163991Y-12671888D01*
X15163991Y-12671888D02*
X15154467Y-12690936D01*
X15154467Y-12690936D02*
X15144944Y-12700460D01*
X15144944Y-12700460D02*
X15125896Y-12709984D01*
X15125896Y-12709984D02*
X15106848Y-12709984D01*
X15106848Y-12709984D02*
X15087801Y-12700460D01*
X15087801Y-12700460D02*
X15078277Y-12690936D01*
X15078277Y-12690936D02*
X15068753Y-12671888D01*
X15068753Y-12671888D02*
X15059229Y-12633793D01*
X15059229Y-12633793D02*
X15059229Y-12586174D01*
X15059229Y-12586174D02*
X15068753Y-12548079D01*
X15068753Y-12548079D02*
X15078277Y-12529031D01*
X15078277Y-12529031D02*
X15087801Y-12519508D01*
X15087801Y-12519508D02*
X15106848Y-12509984D01*
X15240182Y-12509984D02*
X15363991Y-12509984D01*
X15363991Y-12509984D02*
X15297325Y-12586174D01*
X15297325Y-12586174D02*
X15325896Y-12586174D01*
X15325896Y-12586174D02*
X15344944Y-12595698D01*
X15344944Y-12595698D02*
X15354467Y-12605222D01*
X15354467Y-12605222D02*
X15363991Y-12624269D01*
X15363991Y-12624269D02*
X15363991Y-12671888D01*
X15363991Y-12671888D02*
X15354467Y-12690936D01*
X15354467Y-12690936D02*
X15344944Y-12700460D01*
X15344944Y-12700460D02*
X15325896Y-12709984D01*
X15325896Y-12709984D02*
X15268753Y-12709984D01*
X15268753Y-12709984D02*
X15249706Y-12700460D01*
X15249706Y-12700460D02*
X15240182Y-12690936D01*
X15459229Y-12709984D02*
X15497325Y-12709984D01*
X15497325Y-12709984D02*
X15516372Y-12700460D01*
X15516372Y-12700460D02*
X15525896Y-12690936D01*
X15525896Y-12690936D02*
X15544944Y-12662365D01*
X15544944Y-12662365D02*
X15554467Y-12624269D01*
X15554467Y-12624269D02*
X15554467Y-12548079D01*
X15554467Y-12548079D02*
X15544944Y-12529031D01*
X15544944Y-12529031D02*
X15535420Y-12519508D01*
X15535420Y-12519508D02*
X15516372Y-12509984D01*
X15516372Y-12509984D02*
X15478277Y-12509984D01*
X15478277Y-12509984D02*
X15459229Y-12519508D01*
X15459229Y-12519508D02*
X15449706Y-12529031D01*
X15449706Y-12529031D02*
X15440182Y-12548079D01*
X15440182Y-12548079D02*
X15440182Y-12595698D01*
X15440182Y-12595698D02*
X15449706Y-12614746D01*
X15449706Y-12614746D02*
X15459229Y-12624269D01*
X15459229Y-12624269D02*
X15478277Y-12633793D01*
X15478277Y-12633793D02*
X15516372Y-12633793D01*
X15516372Y-12633793D02*
X15535420Y-12624269D01*
X15535420Y-12624269D02*
X15544944Y-12614746D01*
X15544944Y-12614746D02*
X15554467Y-12595698D01*
X15725896Y-12576650D02*
X15725896Y-12709984D01*
X15678277Y-12500460D02*
X15630658Y-12643317D01*
X15630658Y-12643317D02*
X15754467Y-12643317D01*
X15821134Y-12509984D02*
X15821134Y-12548079D01*
X15897325Y-12509984D02*
X15897325Y-12548079D01*
X16192563Y-12786174D02*
X16183039Y-12776650D01*
X16183039Y-12776650D02*
X16163991Y-12748079D01*
X16163991Y-12748079D02*
X16154468Y-12729031D01*
X16154468Y-12729031D02*
X16144944Y-12700460D01*
X16144944Y-12700460D02*
X16135420Y-12652841D01*
X16135420Y-12652841D02*
X16135420Y-12614746D01*
X16135420Y-12614746D02*
X16144944Y-12567127D01*
X16144944Y-12567127D02*
X16154468Y-12538555D01*
X16154468Y-12538555D02*
X16163991Y-12519508D01*
X16163991Y-12519508D02*
X16183039Y-12490936D01*
X16183039Y-12490936D02*
X16192563Y-12481412D01*
X16354468Y-12509984D02*
X16316372Y-12509984D01*
X16316372Y-12509984D02*
X16297325Y-12519508D01*
X16297325Y-12519508D02*
X16287801Y-12529031D01*
X16287801Y-12529031D02*
X16268753Y-12557603D01*
X16268753Y-12557603D02*
X16259229Y-12595698D01*
X16259229Y-12595698D02*
X16259229Y-12671888D01*
X16259229Y-12671888D02*
X16268753Y-12690936D01*
X16268753Y-12690936D02*
X16278277Y-12700460D01*
X16278277Y-12700460D02*
X16297325Y-12709984D01*
X16297325Y-12709984D02*
X16335420Y-12709984D01*
X16335420Y-12709984D02*
X16354468Y-12700460D01*
X16354468Y-12700460D02*
X16363991Y-12690936D01*
X16363991Y-12690936D02*
X16373515Y-12671888D01*
X16373515Y-12671888D02*
X16373515Y-12624269D01*
X16373515Y-12624269D02*
X16363991Y-12605222D01*
X16363991Y-12605222D02*
X16354468Y-12595698D01*
X16354468Y-12595698D02*
X16335420Y-12586174D01*
X16335420Y-12586174D02*
X16297325Y-12586174D01*
X16297325Y-12586174D02*
X16278277Y-12595698D01*
X16278277Y-12595698D02*
X16268753Y-12605222D01*
X16268753Y-12605222D02*
X16259229Y-12624269D01*
X16611610Y-12709984D02*
X16611610Y-12509984D01*
X16697325Y-12709984D02*
X16697325Y-12605222D01*
X16697325Y-12605222D02*
X16687801Y-12586174D01*
X16687801Y-12586174D02*
X16668753Y-12576650D01*
X16668753Y-12576650D02*
X16640182Y-12576650D01*
X16640182Y-12576650D02*
X16621134Y-12586174D01*
X16621134Y-12586174D02*
X16611610Y-12595698D01*
X16821134Y-12709984D02*
X16802087Y-12700460D01*
X16802087Y-12700460D02*
X16792563Y-12690936D01*
X16792563Y-12690936D02*
X16783039Y-12671888D01*
X16783039Y-12671888D02*
X16783039Y-12614746D01*
X16783039Y-12614746D02*
X16792563Y-12595698D01*
X16792563Y-12595698D02*
X16802087Y-12586174D01*
X16802087Y-12586174D02*
X16821134Y-12576650D01*
X16821134Y-12576650D02*
X16849706Y-12576650D01*
X16849706Y-12576650D02*
X16868753Y-12586174D01*
X16868753Y-12586174D02*
X16878277Y-12595698D01*
X16878277Y-12595698D02*
X16887801Y-12614746D01*
X16887801Y-12614746D02*
X16887801Y-12671888D01*
X16887801Y-12671888D02*
X16878277Y-12690936D01*
X16878277Y-12690936D02*
X16868753Y-12700460D01*
X16868753Y-12700460D02*
X16849706Y-12709984D01*
X16849706Y-12709984D02*
X16821134Y-12709984D01*
X17002087Y-12709984D02*
X16983039Y-12700460D01*
X16983039Y-12700460D02*
X16973515Y-12681412D01*
X16973515Y-12681412D02*
X16973515Y-12509984D01*
X17154468Y-12700460D02*
X17135420Y-12709984D01*
X17135420Y-12709984D02*
X17097325Y-12709984D01*
X17097325Y-12709984D02*
X17078277Y-12700460D01*
X17078277Y-12700460D02*
X17068753Y-12681412D01*
X17068753Y-12681412D02*
X17068753Y-12605222D01*
X17068753Y-12605222D02*
X17078277Y-12586174D01*
X17078277Y-12586174D02*
X17097325Y-12576650D01*
X17097325Y-12576650D02*
X17135420Y-12576650D01*
X17135420Y-12576650D02*
X17154468Y-12586174D01*
X17154468Y-12586174D02*
X17163992Y-12605222D01*
X17163992Y-12605222D02*
X17163992Y-12624269D01*
X17163992Y-12624269D02*
X17068753Y-12643317D01*
X17240182Y-12700460D02*
X17259230Y-12709984D01*
X17259230Y-12709984D02*
X17297325Y-12709984D01*
X17297325Y-12709984D02*
X17316373Y-12700460D01*
X17316373Y-12700460D02*
X17325896Y-12681412D01*
X17325896Y-12681412D02*
X17325896Y-12671888D01*
X17325896Y-12671888D02*
X17316373Y-12652841D01*
X17316373Y-12652841D02*
X17297325Y-12643317D01*
X17297325Y-12643317D02*
X17268753Y-12643317D01*
X17268753Y-12643317D02*
X17249706Y-12633793D01*
X17249706Y-12633793D02*
X17240182Y-12614746D01*
X17240182Y-12614746D02*
X17240182Y-12605222D01*
X17240182Y-12605222D02*
X17249706Y-12586174D01*
X17249706Y-12586174D02*
X17268753Y-12576650D01*
X17268753Y-12576650D02*
X17297325Y-12576650D01*
X17297325Y-12576650D02*
X17316373Y-12586174D01*
X17392563Y-12786174D02*
X17402087Y-12776650D01*
X17402087Y-12776650D02*
X17421134Y-12748079D01*
X17421134Y-12748079D02*
X17430658Y-12729031D01*
X17430658Y-12729031D02*
X17440182Y-12700460D01*
X17440182Y-12700460D02*
X17449706Y-12652841D01*
X17449706Y-12652841D02*
X17449706Y-12614746D01*
X17449706Y-12614746D02*
X17440182Y-12567127D01*
X17440182Y-12567127D02*
X17430658Y-12538555D01*
X17430658Y-12538555D02*
X17421134Y-12519508D01*
X17421134Y-12519508D02*
X17402087Y-12490936D01*
X17402087Y-12490936D02*
X17392563Y-12481412D01*
M02*
