M48
; DRILL file {KiCad 8.0.6} date 2024-12-06T19:29:02-0800
; FORMAT={-:-/ absolute / inch / decimal}
; #@! TF.CreationDate,2024-12-06T19:29:02-08:00
; #@! TF.GenerationSoftware,Kicad,Pcbnew,8.0.6
; #@! TF.FileFunction,Plated,1,2,PTH
FMAT,2
INCH
; #@! TA.AperFunction,Plated,PTH,ViaDrill
T1C0.0118
; #@! TA.AperFunction,Plated,PTH,ComponentDrill
T2C0.0295
; #@! TA.AperFunction,Plated,PTH,ComponentDrill
T3C0.0315
; #@! TA.AperFunction,Plated,PTH,ComponentDrill
T4C0.0350
; #@! TA.AperFunction,Plated,PTH,ComponentDrill
T5C0.0394
%
G90
G05
T1
X5.688Y-4.0699
X5.7874Y-4.1437
X5.8199Y-4.2215
T2
X5.1417Y-3.0472
X5.1417Y-3.0972
X5.1417Y-3.1472
X5.1417Y-3.3016
X5.1417Y-3.3516
X5.1417Y-3.4016
X5.1417Y-3.5535
X5.1417Y-3.6035
X5.1417Y-3.6535
X5.1417Y-3.8134
X5.1417Y-3.8634
X5.1417Y-3.9134
X5.1417Y-4.0654
X5.1417Y-4.1154
X5.1417Y-4.1654
T3
X5.3969Y-3.2087
X5.3969Y-3.3661
X5.3969Y-3.5236
X5.3969Y-3.6811
X5.4008Y-3.8386
X5.6969Y-3.2087
X5.6969Y-3.3661
X5.6969Y-3.5236
X5.6969Y-3.6811
X5.7008Y-3.8386
X5.9213Y-3.9217
X5.9213Y-4.2217
X6.0472Y-3.9213
X6.0472Y-4.2213
X6.1732Y-3.9209
X6.1732Y-4.2209
X6.2992Y-3.9209
X6.2992Y-4.2209
X6.4252Y-3.9213
X6.4252Y-4.2213
X6.5807Y-3.9213
X6.6575Y-3.2323
X6.6575Y-3.3307
X6.6791Y-3.9213
T4
X5.8882Y-3.1299
X5.8882Y-3.2299
X5.8882Y-3.3299
X5.8882Y-3.4299
X5.8882Y-3.5299
X5.8882Y-3.6299
X5.8882Y-3.7299
X6.4882Y-3.1299
X6.4882Y-3.2299
X6.4882Y-3.3299
X6.4882Y-3.4299
X6.4882Y-3.5299
X6.4882Y-3.6299
X6.4882Y-3.7299
T5
X5.4134Y-4.1447
X5.5134Y-4.1447
X5.6134Y-4.1447
X5.7134Y-4.1447
X6.5732Y-4.1467
X6.6732Y-4.1467
M30
