%TF.GenerationSoftware,KiCad,Pcbnew,8.0.6*%
%TF.CreationDate,2024-12-06T19:29:04-08:00*%
%TF.ProjectId,ohmnote,6f686d6e-6f74-4652-9e6b-696361645f70,rev?*%
%TF.SameCoordinates,Original*%
%TF.FileFunction,Copper,L2,Bot*%
%TF.FilePolarity,Positive*%
%FSLAX46Y46*%
G04 Gerber Fmt 4.6, Leading zero omitted, Abs format (unit mm)*
G04 Created by KiCad (PCBNEW 8.0.6) date 2024-12-06 19:29:04*
%MOMM*%
%LPD*%
G01*
G04 APERTURE LIST*
%TA.AperFunction,ComponentPad*%
%ADD10R,1.700000X1.700000*%
%TD*%
%TA.AperFunction,ComponentPad*%
%ADD11O,1.700000X1.700000*%
%TD*%
%TA.AperFunction,ComponentPad*%
%ADD12C,1.600000*%
%TD*%
%TA.AperFunction,ComponentPad*%
%ADD13O,1.600000X1.600000*%
%TD*%
%TA.AperFunction,ComponentPad*%
%ADD14C,1.524000*%
%TD*%
%TA.AperFunction,ComponentPad*%
%ADD15R,1.500000X1.050000*%
%TD*%
%TA.AperFunction,ComponentPad*%
%ADD16O,1.500000X1.050000*%
%TD*%
%TA.AperFunction,ViaPad*%
%ADD17C,0.600000*%
%TD*%
%TA.AperFunction,Conductor*%
%ADD18C,0.200000*%
%TD*%
G04 APERTURE END LIST*
D10*
%TO.P,J1,1,Pin_1*%
%TO.N,Net-(J1-Pin_1)*%
X169500000Y-105325000D03*
D11*
%TO.P,J1,2,Pin_2*%
%TO.N,Net-(J1-Pin_2)*%
X166960000Y-105325000D03*
%TD*%
D12*
%TO.P,R5,1*%
%TO.N,Net-(U1-GPIO23{slash}D5{slash}SCL)*%
X144800000Y-97500000D03*
D13*
%TO.P,R5,2*%
%TO.N,Net-(Q5-B)*%
X137180000Y-97500000D03*
%TD*%
D12*
%TO.P,R3,1*%
%TO.N,Net-(U1-GPIO21{slash}D3)*%
X144700000Y-89500000D03*
D13*
%TO.P,R3,2*%
%TO.N,Net-(Q3-B)*%
X137080000Y-89500000D03*
%TD*%
D12*
%TO.P,R2,1*%
%TO.N,Net-(U1-GPIO2{slash}A2{slash}D2)*%
X144700000Y-85500000D03*
D13*
%TO.P,R2,2*%
%TO.N,Net-(Q2-B)*%
X137080000Y-85500000D03*
%TD*%
D12*
%TO.P,R6,1*%
%TO.N,Net-(J1-Pin_2)*%
X150400000Y-107230000D03*
D13*
%TO.P,R6,2*%
%TO.N,Net-(Q1-C)*%
X150400000Y-99610000D03*
%TD*%
D14*
%TO.P,U1,1,GPIO0/A0/D0*%
%TO.N,Net-(J1-Pin_2)*%
X149560000Y-79500000D03*
%TO.P,U1,2,GPIO1/A1/D1*%
%TO.N,Net-(U1-GPIO1{slash}A1{slash}D1)*%
X149560000Y-82040000D03*
%TO.P,U1,3,GPIO2/A2/D2*%
%TO.N,Net-(U1-GPIO2{slash}A2{slash}D2)*%
X149560000Y-84580000D03*
%TO.P,U1,4,GPIO21/D3*%
%TO.N,Net-(U1-GPIO21{slash}D3)*%
X149560000Y-87120000D03*
%TO.P,U1,5,GPIO22/D4/SDA*%
%TO.N,Net-(U1-GPIO22{slash}D4{slash}SDA)*%
X149560000Y-89660000D03*
%TO.P,U1,6,GPIO23/D5/SCL*%
%TO.N,Net-(U1-GPIO23{slash}D5{slash}SCL)*%
X149560000Y-92200000D03*
%TO.P,U1,7,GPIO16/D6/TX*%
%TO.N,unconnected-(U1-GPIO16{slash}D6{slash}TX-Pad7)*%
X149560000Y-94740000D03*
%TO.P,U1,8,GPIO17/D7/RX*%
%TO.N,unconnected-(U1-GPIO17{slash}D7{slash}RX-Pad8)*%
X164800000Y-94740000D03*
%TO.P,U1,9,GPIO19/D8/SCK*%
%TO.N,unconnected-(U1-GPIO19{slash}D8{slash}SCK-Pad9)*%
X164800000Y-92200000D03*
%TO.P,U1,10,GPIO20/D9/MISO*%
%TO.N,Net-(J2-SCL)*%
X164800000Y-89660000D03*
%TO.P,U1,11,GPIO18/D10/MOSI*%
%TO.N,Net-(J2-SDA)*%
X164800000Y-87120000D03*
%TO.P,U1,12,3V3*%
%TO.N,Net-(J2-Vin)*%
X164800000Y-84580000D03*
%TO.P,U1,13,GND*%
%TO.N,Net-(J1-Pin_1)*%
X164800000Y-82040000D03*
%TO.P,U1,14,VBUS*%
%TO.N,unconnected-(U1-VBUS-Pad14)*%
X164800000Y-79500000D03*
%TD*%
D12*
%TO.P,R10,1*%
%TO.N,Net-(J1-Pin_2)*%
X163200000Y-107220000D03*
D13*
%TO.P,R10,2*%
%TO.N,Net-(Q5-C)*%
X163200000Y-99600000D03*
%TD*%
D12*
%TO.P,C1,1*%
%TO.N,Net-(J1-Pin_2)*%
X169650000Y-99600000D03*
%TO.P,C1,2*%
%TO.N,Net-(J1-Pin_1)*%
X167150000Y-99600000D03*
%TD*%
D15*
%TO.P,Q5,1,E*%
%TO.N,Net-(J2-Vin)*%
X130600000Y-105800000D03*
D16*
%TO.P,Q5,2,B*%
%TO.N,Net-(Q5-B)*%
X130600000Y-104530000D03*
%TO.P,Q5,3,C*%
%TO.N,Net-(Q5-C)*%
X130600000Y-103260000D03*
%TD*%
D12*
%TO.P,R8,1*%
%TO.N,Net-(J1-Pin_2)*%
X156800000Y-107210000D03*
D13*
%TO.P,R8,2*%
%TO.N,Net-(Q3-C)*%
X156800000Y-99590000D03*
%TD*%
D12*
%TO.P,R4,1*%
%TO.N,Net-(U1-GPIO22{slash}D4{slash}SDA)*%
X144700000Y-93500000D03*
D13*
%TO.P,R4,2*%
%TO.N,Net-(Q4-B)*%
X137080000Y-93500000D03*
%TD*%
D12*
%TO.P,C2,1*%
%TO.N,Net-(J1-Pin_1)*%
X169100000Y-82100000D03*
%TO.P,C2,2*%
%TO.N,Net-(J2-Vin)*%
X169100000Y-84600000D03*
%TD*%
D15*
%TO.P,Q2,1,E*%
%TO.N,Net-(J2-Vin)*%
X130600000Y-86400000D03*
D16*
%TO.P,Q2,2,B*%
%TO.N,Net-(Q2-B)*%
X130600000Y-85130000D03*
%TO.P,Q2,3,C*%
%TO.N,Net-(Q2-C)*%
X130600000Y-83860000D03*
%TD*%
D10*
%TO.P,J2,1,GND*%
%TO.N,Net-(J1-Pin_1)*%
X137500000Y-105275000D03*
D11*
%TO.P,J2,2,Vin*%
%TO.N,Net-(J2-Vin)*%
X140040000Y-105275000D03*
%TO.P,J2,3,SDA*%
%TO.N,Net-(J2-SDA)*%
X142580000Y-105275000D03*
%TO.P,J2,4,SCL*%
%TO.N,Net-(J2-SCL)*%
X145120000Y-105275000D03*
%TD*%
D12*
%TO.P,R7,1*%
%TO.N,Net-(J1-Pin_2)*%
X153600000Y-107220000D03*
D13*
%TO.P,R7,2*%
%TO.N,Net-(Q2-C)*%
X153600000Y-99600000D03*
%TD*%
D15*
%TO.P,Q3,1,E*%
%TO.N,Net-(J2-Vin)*%
X130600000Y-92800000D03*
D16*
%TO.P,Q3,2,B*%
%TO.N,Net-(Q3-B)*%
X130600000Y-91530000D03*
%TO.P,Q3,3,C*%
%TO.N,Net-(Q3-C)*%
X130600000Y-90260000D03*
%TD*%
D12*
%TO.P,R1,1*%
%TO.N,Net-(U1-GPIO1{slash}A1{slash}D1)*%
X144700000Y-81500000D03*
D13*
%TO.P,R1,2*%
%TO.N,Net-(Q1-B)*%
X137080000Y-81500000D03*
%TD*%
D15*
%TO.P,Q4,1,E*%
%TO.N,Net-(J2-Vin)*%
X130600000Y-99400000D03*
D16*
%TO.P,Q4,2,B*%
%TO.N,Net-(Q4-B)*%
X130600000Y-98130000D03*
%TO.P,Q4,3,C*%
%TO.N,Net-(Q4-C)*%
X130600000Y-96860000D03*
%TD*%
D15*
%TO.P,Q1,1,E*%
%TO.N,Net-(J2-Vin)*%
X130600000Y-79940000D03*
D16*
%TO.P,Q1,2,B*%
%TO.N,Net-(Q1-B)*%
X130600000Y-78670000D03*
%TO.P,Q1,3,C*%
%TO.N,Net-(Q1-C)*%
X130600000Y-77400000D03*
%TD*%
D12*
%TO.P,R9,1*%
%TO.N,Net-(J1-Pin_2)*%
X160000000Y-107210000D03*
D13*
%TO.P,R9,2*%
%TO.N,Net-(Q4-C)*%
X160000000Y-99590000D03*
%TD*%
D17*
%TO.N,Net-(J1-Pin_2)*%
X147825000Y-107225000D03*
%TO.N,Net-(J2-SCL)*%
X147000000Y-105250000D03*
%TO.N,Net-(J2-SDA)*%
X144475000Y-103375000D03*
%TD*%
D18*
%TO.N,Net-(J1-Pin_2)*%
X147825000Y-107225000D02*
X144775000Y-107225000D01*
X143750000Y-106200000D02*
X143750000Y-101325000D01*
X144775000Y-107225000D02*
X143750000Y-106200000D01*
X142750000Y-85300000D02*
X148550000Y-79500000D01*
X142750000Y-100325000D02*
X142750000Y-85300000D01*
X143750000Y-101325000D02*
X142750000Y-100325000D01*
X148550000Y-79500000D02*
X149560000Y-79500000D01*
%TO.N,Net-(J2-SCL)*%
X149505635Y-105250000D02*
X164800000Y-89955635D01*
X164800000Y-89955635D02*
X164800000Y-89660000D01*
X147000000Y-105250000D02*
X149505635Y-105250000D01*
%TO.N,Net-(J2-SDA)*%
X148190635Y-103375000D02*
X164445635Y-87120000D01*
X144475000Y-103375000D02*
X148190635Y-103375000D01*
X164445635Y-87120000D02*
X164800000Y-87120000D01*
%TD*%
M02*
