%TF.GenerationSoftware,KiCad,Pcbnew,8.0.6*%
%TF.CreationDate,2024-12-06T19:29:04-08:00*%
%TF.ProjectId,ohmnote,6f686d6e-6f74-4652-9e6b-696361645f70,rev?*%
%TF.SameCoordinates,Original*%
%TF.FileFunction,Copper,L1,Top*%
%TF.FilePolarity,Positive*%
%FSLAX46Y46*%
G04 Gerber Fmt 4.6, Leading zero omitted, Abs format (unit mm)*
G04 Created by KiCad (PCBNEW 8.0.6) date 2024-12-06 19:29:04*
%MOMM*%
%LPD*%
G01*
G04 APERTURE LIST*
G04 Aperture macros list*
%AMRoundRect*
0 Rectangle with rounded corners*
0 $1 Rounding radius*
0 $2 $3 $4 $5 $6 $7 $8 $9 X,Y pos of 4 corners*
0 Add a 4 corners polygon primitive as box body*
4,1,4,$2,$3,$4,$5,$6,$7,$8,$9,$2,$3,0*
0 Add four circle primitives for the rounded corners*
1,1,$1+$1,$2,$3*
1,1,$1+$1,$4,$5*
1,1,$1+$1,$6,$7*
1,1,$1+$1,$8,$9*
0 Add four rect primitives between the rounded corners*
20,1,$1+$1,$2,$3,$4,$5,0*
20,1,$1+$1,$4,$5,$6,$7,0*
20,1,$1+$1,$6,$7,$8,$9,0*
20,1,$1+$1,$8,$9,$2,$3,0*%
G04 Aperture macros list end*
%TA.AperFunction,ComponentPad*%
%ADD10R,1.700000X1.700000*%
%TD*%
%TA.AperFunction,ComponentPad*%
%ADD11O,1.700000X1.700000*%
%TD*%
%TA.AperFunction,ComponentPad*%
%ADD12C,1.600000*%
%TD*%
%TA.AperFunction,ComponentPad*%
%ADD13O,1.600000X1.600000*%
%TD*%
%TA.AperFunction,SMDPad,CuDef*%
%ADD14RoundRect,0.152400X1.063600X0.609600X-1.063600X0.609600X-1.063600X-0.609600X1.063600X-0.609600X0*%
%TD*%
%TA.AperFunction,ComponentPad*%
%ADD15C,1.524000*%
%TD*%
%TA.AperFunction,SMDPad,CuDef*%
%ADD16RoundRect,0.152400X-1.063600X-0.609600X1.063600X-0.609600X1.063600X0.609600X-1.063600X0.609600X0*%
%TD*%
%TA.AperFunction,ComponentPad*%
%ADD17R,1.500000X1.050000*%
%TD*%
%TA.AperFunction,ComponentPad*%
%ADD18O,1.500000X1.050000*%
%TD*%
%TA.AperFunction,ViaPad*%
%ADD19C,0.600000*%
%TD*%
%TA.AperFunction,Conductor*%
%ADD20C,0.200000*%
%TD*%
G04 APERTURE END LIST*
D10*
%TO.P,J1,1,Pin_1*%
%TO.N,Net-(J1-Pin_1)*%
X169500000Y-105325000D03*
D11*
%TO.P,J1,2,Pin_2*%
%TO.N,Net-(J1-Pin_2)*%
X166960000Y-105325000D03*
%TD*%
D12*
%TO.P,R5,1*%
%TO.N,Net-(U1-GPIO23{slash}D5{slash}SCL)*%
X144800000Y-97500000D03*
D13*
%TO.P,R5,2*%
%TO.N,Net-(Q5-B)*%
X137180000Y-97500000D03*
%TD*%
D12*
%TO.P,R3,1*%
%TO.N,Net-(U1-GPIO21{slash}D3)*%
X144700000Y-89500000D03*
D13*
%TO.P,R3,2*%
%TO.N,Net-(Q3-B)*%
X137080000Y-89500000D03*
%TD*%
D12*
%TO.P,R2,1*%
%TO.N,Net-(U1-GPIO2{slash}A2{slash}D2)*%
X144700000Y-85500000D03*
D13*
%TO.P,R2,2*%
%TO.N,Net-(Q2-B)*%
X137080000Y-85500000D03*
%TD*%
D12*
%TO.P,R6,1*%
%TO.N,Net-(J1-Pin_2)*%
X150400000Y-107230000D03*
D13*
%TO.P,R6,2*%
%TO.N,Net-(Q1-C)*%
X150400000Y-99610000D03*
%TD*%
D14*
%TO.P,U1,1,GPIO0/A0/D0*%
%TO.N,Net-(J1-Pin_2)*%
X148725000Y-79500000D03*
D15*
X149560000Y-79500000D03*
D14*
%TO.P,U1,2,GPIO1/A1/D1*%
%TO.N,Net-(U1-GPIO1{slash}A1{slash}D1)*%
X148725000Y-82040000D03*
D15*
X149560000Y-82040000D03*
D14*
%TO.P,U1,3,GPIO2/A2/D2*%
%TO.N,Net-(U1-GPIO2{slash}A2{slash}D2)*%
X148725000Y-84580000D03*
D15*
X149560000Y-84580000D03*
D14*
%TO.P,U1,4,GPIO21/D3*%
%TO.N,Net-(U1-GPIO21{slash}D3)*%
X148725000Y-87120000D03*
D15*
X149560000Y-87120000D03*
D14*
%TO.P,U1,5,GPIO22/D4/SDA*%
%TO.N,Net-(U1-GPIO22{slash}D4{slash}SDA)*%
X148725000Y-89660000D03*
D15*
X149560000Y-89660000D03*
D14*
%TO.P,U1,6,GPIO23/D5/SCL*%
%TO.N,Net-(U1-GPIO23{slash}D5{slash}SCL)*%
X148725000Y-92200000D03*
D15*
X149560000Y-92200000D03*
D14*
%TO.P,U1,7,GPIO16/D6/TX*%
%TO.N,unconnected-(U1-GPIO16{slash}D6{slash}TX-Pad7)*%
X148725000Y-94740000D03*
D15*
X149560000Y-94740000D03*
%TO.P,U1,8,GPIO17/D7/RX*%
%TO.N,unconnected-(U1-GPIO17{slash}D7{slash}RX-Pad8)*%
X164800000Y-94740000D03*
D16*
X165635000Y-94740000D03*
D15*
%TO.P,U1,9,GPIO19/D8/SCK*%
%TO.N,unconnected-(U1-GPIO19{slash}D8{slash}SCK-Pad9)*%
X164800000Y-92200000D03*
D16*
X165635000Y-92200000D03*
D15*
%TO.P,U1,10,GPIO20/D9/MISO*%
%TO.N,Net-(J2-SCL)*%
X164800000Y-89660000D03*
D16*
X165635000Y-89660000D03*
D15*
%TO.P,U1,11,GPIO18/D10/MOSI*%
%TO.N,Net-(J2-SDA)*%
X164800000Y-87120000D03*
D16*
X165635000Y-87120000D03*
D15*
%TO.P,U1,12,3V3*%
%TO.N,Net-(J2-Vin)*%
X164800000Y-84580000D03*
D16*
X165635000Y-84580000D03*
D15*
%TO.P,U1,13,GND*%
%TO.N,Net-(J1-Pin_1)*%
X164800000Y-82040000D03*
D16*
X165635000Y-82040000D03*
D15*
%TO.P,U1,14,VBUS*%
%TO.N,unconnected-(U1-VBUS-Pad14)*%
X164800000Y-79500000D03*
D16*
X165635000Y-79500000D03*
%TD*%
D12*
%TO.P,R10,1*%
%TO.N,Net-(J1-Pin_2)*%
X163200000Y-107220000D03*
D13*
%TO.P,R10,2*%
%TO.N,Net-(Q5-C)*%
X163200000Y-99600000D03*
%TD*%
D12*
%TO.P,C1,1*%
%TO.N,Net-(J1-Pin_2)*%
X169650000Y-99600000D03*
%TO.P,C1,2*%
%TO.N,Net-(J1-Pin_1)*%
X167150000Y-99600000D03*
%TD*%
D17*
%TO.P,Q5,1,E*%
%TO.N,Net-(J2-Vin)*%
X130600000Y-105800000D03*
D18*
%TO.P,Q5,2,B*%
%TO.N,Net-(Q5-B)*%
X130600000Y-104530000D03*
%TO.P,Q5,3,C*%
%TO.N,Net-(Q5-C)*%
X130600000Y-103260000D03*
%TD*%
D12*
%TO.P,R8,1*%
%TO.N,Net-(J1-Pin_2)*%
X156800000Y-107210000D03*
D13*
%TO.P,R8,2*%
%TO.N,Net-(Q3-C)*%
X156800000Y-99590000D03*
%TD*%
D12*
%TO.P,R4,1*%
%TO.N,Net-(U1-GPIO22{slash}D4{slash}SDA)*%
X144700000Y-93500000D03*
D13*
%TO.P,R4,2*%
%TO.N,Net-(Q4-B)*%
X137080000Y-93500000D03*
%TD*%
D12*
%TO.P,C2,1*%
%TO.N,Net-(J1-Pin_1)*%
X169100000Y-82100000D03*
%TO.P,C2,2*%
%TO.N,Net-(J2-Vin)*%
X169100000Y-84600000D03*
%TD*%
D17*
%TO.P,Q2,1,E*%
%TO.N,Net-(J2-Vin)*%
X130600000Y-86400000D03*
D18*
%TO.P,Q2,2,B*%
%TO.N,Net-(Q2-B)*%
X130600000Y-85130000D03*
%TO.P,Q2,3,C*%
%TO.N,Net-(Q2-C)*%
X130600000Y-83860000D03*
%TD*%
D10*
%TO.P,J2,1,GND*%
%TO.N,Net-(J1-Pin_1)*%
X137500000Y-105275000D03*
D11*
%TO.P,J2,2,Vin*%
%TO.N,Net-(J2-Vin)*%
X140040000Y-105275000D03*
%TO.P,J2,3,SDA*%
%TO.N,Net-(J2-SDA)*%
X142580000Y-105275000D03*
%TO.P,J2,4,SCL*%
%TO.N,Net-(J2-SCL)*%
X145120000Y-105275000D03*
%TD*%
D12*
%TO.P,R7,1*%
%TO.N,Net-(J1-Pin_2)*%
X153600000Y-107220000D03*
D13*
%TO.P,R7,2*%
%TO.N,Net-(Q2-C)*%
X153600000Y-99600000D03*
%TD*%
D17*
%TO.P,Q3,1,E*%
%TO.N,Net-(J2-Vin)*%
X130600000Y-92800000D03*
D18*
%TO.P,Q3,2,B*%
%TO.N,Net-(Q3-B)*%
X130600000Y-91530000D03*
%TO.P,Q3,3,C*%
%TO.N,Net-(Q3-C)*%
X130600000Y-90260000D03*
%TD*%
D12*
%TO.P,R1,1*%
%TO.N,Net-(U1-GPIO1{slash}A1{slash}D1)*%
X144700000Y-81500000D03*
D13*
%TO.P,R1,2*%
%TO.N,Net-(Q1-B)*%
X137080000Y-81500000D03*
%TD*%
D17*
%TO.P,Q4,1,E*%
%TO.N,Net-(J2-Vin)*%
X130600000Y-99400000D03*
D18*
%TO.P,Q4,2,B*%
%TO.N,Net-(Q4-B)*%
X130600000Y-98130000D03*
%TO.P,Q4,3,C*%
%TO.N,Net-(Q4-C)*%
X130600000Y-96860000D03*
%TD*%
D17*
%TO.P,Q1,1,E*%
%TO.N,Net-(J2-Vin)*%
X130600000Y-79940000D03*
D18*
%TO.P,Q1,2,B*%
%TO.N,Net-(Q1-B)*%
X130600000Y-78670000D03*
%TO.P,Q1,3,C*%
%TO.N,Net-(Q1-C)*%
X130600000Y-77400000D03*
%TD*%
D12*
%TO.P,R9,1*%
%TO.N,Net-(J1-Pin_2)*%
X160000000Y-107210000D03*
D13*
%TO.P,R9,2*%
%TO.N,Net-(Q4-C)*%
X160000000Y-99590000D03*
%TD*%
D19*
%TO.N,Net-(J1-Pin_2)*%
X147825000Y-107225000D03*
%TO.N,Net-(J2-SCL)*%
X147000000Y-105250000D03*
%TO.N,Net-(J2-SDA)*%
X144475000Y-103375000D03*
%TD*%
D20*
%TO.N,Net-(J1-Pin_2)*%
X156800000Y-107210000D02*
X153610000Y-107210000D01*
X166960000Y-105325000D02*
X166960000Y-102290000D01*
X163095000Y-107220000D02*
X163085000Y-107210000D01*
X153610000Y-107210000D02*
X153600000Y-107220000D01*
X160000000Y-107210000D02*
X156800000Y-107210000D01*
X166960000Y-102290000D02*
X169650000Y-99600000D01*
X156360000Y-107210000D02*
X156225000Y-107075000D01*
X166960000Y-105325000D02*
X165325000Y-106960000D01*
X150410000Y-107220000D02*
X150400000Y-107230000D01*
X165325000Y-107075000D02*
X165175000Y-107075000D01*
X165325000Y-106960000D02*
X165325000Y-107075000D01*
X150400000Y-107230000D02*
X147830000Y-107230000D01*
X156800000Y-107210000D02*
X156360000Y-107210000D01*
X165030000Y-107220000D02*
X163200000Y-107220000D01*
X153600000Y-107220000D02*
X150410000Y-107220000D01*
X147830000Y-107230000D02*
X147825000Y-107225000D01*
X165175000Y-107075000D02*
X165030000Y-107220000D01*
X163200000Y-107220000D02*
X163095000Y-107220000D01*
X163085000Y-107210000D02*
X160000000Y-107210000D01*
%TO.N,Net-(Q1-C)*%
X134535635Y-77400000D02*
X143600000Y-86464365D01*
X143600000Y-98000000D02*
X145910000Y-100310000D01*
X145910000Y-100310000D02*
X149700000Y-100310000D01*
X130600000Y-77400000D02*
X134535635Y-77400000D01*
X149700000Y-100310000D02*
X150400000Y-99610000D01*
X143600000Y-86464365D02*
X143600000Y-98000000D01*
%TO.N,Net-(Q2-C)*%
X130600000Y-83860000D02*
X136995635Y-83860000D01*
X145710000Y-100710000D02*
X152490000Y-100710000D01*
X143200000Y-90064365D02*
X143200000Y-98200000D01*
X143200000Y-98200000D02*
X145710000Y-100710000D01*
X152490000Y-100710000D02*
X153600000Y-99600000D01*
X136995635Y-83860000D02*
X143200000Y-90064365D01*
%TO.N,Net-(Q3-C)*%
X142800000Y-93525000D02*
X142800000Y-98365686D01*
X137675000Y-88400000D02*
X142800000Y-93525000D01*
X132460000Y-88400000D02*
X137675000Y-88400000D01*
X145544314Y-101110000D02*
X155280000Y-101110000D01*
X155280000Y-101110000D02*
X156800000Y-99590000D01*
X130600000Y-90260000D02*
X132460000Y-88400000D01*
X142800000Y-98365686D02*
X145544314Y-101110000D01*
%TO.N,Net-(Q4-C)*%
X145378628Y-101510000D02*
X158080000Y-101510000D01*
X137550000Y-92400000D02*
X142400000Y-97250000D01*
X130600000Y-96860000D02*
X135060000Y-92400000D01*
X142400000Y-98531372D02*
X145378628Y-101510000D01*
X158080000Y-101510000D02*
X160000000Y-99590000D01*
X142400000Y-97250000D02*
X142400000Y-98531372D01*
X135060000Y-92400000D02*
X137550000Y-92400000D01*
%TO.N,Net-(Q5-B)*%
X137180000Y-97500000D02*
X137180000Y-98631370D01*
X131281370Y-104530000D02*
X130600000Y-104530000D01*
X137180000Y-98631370D02*
X131281370Y-104530000D01*
%TO.N,Net-(Q5-C)*%
X145212942Y-101910000D02*
X160890000Y-101910000D01*
X130600000Y-102524365D02*
X136804022Y-96320343D01*
X136804022Y-96320343D02*
X139623285Y-96320343D01*
X139623285Y-96320343D02*
X145212942Y-101910000D01*
X160890000Y-101910000D02*
X163200000Y-99600000D01*
X130600000Y-103260000D02*
X130600000Y-102524365D01*
%TO.N,Net-(U1-GPIO1{slash}A1{slash}D1)*%
X149560000Y-82040000D02*
X145240000Y-82040000D01*
X145240000Y-82040000D02*
X144700000Y-81500000D01*
%TO.N,Net-(U1-GPIO2{slash}A2{slash}D2)*%
X149560000Y-84580000D02*
X145620000Y-84580000D01*
X145620000Y-84580000D02*
X144700000Y-85500000D01*
%TO.N,Net-(U1-GPIO21{slash}D3)*%
X149560000Y-87120000D02*
X147080000Y-87120000D01*
X147080000Y-87120000D02*
X144700000Y-89500000D01*
%TO.N,Net-(U1-GPIO22{slash}D4{slash}SDA)*%
X148540000Y-89660000D02*
X144700000Y-93500000D01*
X149560000Y-89660000D02*
X148540000Y-89660000D01*
%TO.N,Net-(U1-GPIO23{slash}D5{slash}SCL)*%
X148725000Y-92200000D02*
X144800000Y-96125000D01*
X144800000Y-96125000D02*
X144800000Y-97500000D01*
%TO.N,Net-(J1-Pin_1)*%
X168250000Y-98500000D02*
X167150000Y-99600000D01*
X169040000Y-82040000D02*
X169100000Y-82100000D01*
X170200000Y-83200000D02*
X170200000Y-96550000D01*
X140825000Y-108600000D02*
X166225000Y-108600000D01*
X170750000Y-104075000D02*
X170750000Y-99144365D01*
X137500000Y-105275000D02*
X140825000Y-108600000D01*
X169100000Y-82100000D02*
X170200000Y-83200000D01*
X166225000Y-108600000D02*
X169500000Y-105325000D01*
X170200000Y-96550000D02*
X167150000Y-99600000D01*
X169500000Y-105325000D02*
X170750000Y-104075000D01*
X164800000Y-82040000D02*
X169040000Y-82040000D01*
X170105635Y-98500000D02*
X168250000Y-98500000D01*
X170750000Y-99144365D02*
X170105635Y-98500000D01*
%TO.N,Net-(J2-Vin)*%
X130600000Y-105800000D02*
X130375000Y-105800000D01*
X130375000Y-105800000D02*
X129525000Y-104950000D01*
X138890000Y-104125000D02*
X132650000Y-104125000D01*
X129550000Y-91871726D02*
X129550000Y-87450000D01*
X132650000Y-104125000D02*
X130975000Y-105800000D01*
X129550000Y-87450000D02*
X130600000Y-86400000D01*
X129525000Y-100475000D02*
X130600000Y-99400000D01*
X129550000Y-98471726D02*
X129550000Y-93850000D01*
X130600000Y-92800000D02*
X130478274Y-92800000D01*
X164820000Y-84600000D02*
X164800000Y-84580000D01*
X162045635Y-102310000D02*
X143005000Y-102310000D01*
X169100000Y-84600000D02*
X169100000Y-95255635D01*
X130478274Y-99400000D02*
X129550000Y-98471726D01*
X129550000Y-85471726D02*
X129550000Y-80990000D01*
X140040000Y-105275000D02*
X138890000Y-104125000D01*
X130600000Y-99400000D02*
X130478274Y-99400000D01*
X129550000Y-93850000D02*
X130600000Y-92800000D01*
X130975000Y-105800000D02*
X130600000Y-105800000D01*
X169100000Y-95255635D02*
X162045635Y-102310000D01*
X130478274Y-92800000D02*
X129550000Y-91871726D01*
X129525000Y-104950000D02*
X129525000Y-100475000D01*
X130478274Y-86400000D02*
X129550000Y-85471726D01*
X169100000Y-84600000D02*
X164820000Y-84600000D01*
X143005000Y-102310000D02*
X140040000Y-105275000D01*
X130600000Y-86400000D02*
X130478274Y-86400000D01*
X129550000Y-80990000D02*
X130600000Y-79940000D01*
%TO.N,Net-(J2-SCL)*%
X146975000Y-105275000D02*
X147000000Y-105250000D01*
X145120000Y-105275000D02*
X146975000Y-105275000D01*
%TO.N,Net-(J2-SDA)*%
X144475000Y-103380000D02*
X144475000Y-103375000D01*
X142580000Y-105275000D02*
X144475000Y-103380000D01*
%TO.N,Net-(Q1-B)*%
X137080000Y-81500000D02*
X134250000Y-78670000D01*
X134250000Y-78670000D02*
X130600000Y-78670000D01*
%TO.N,Net-(Q2-B)*%
X130970000Y-85500000D02*
X130600000Y-85130000D01*
X137080000Y-85500000D02*
X130970000Y-85500000D01*
%TO.N,Net-(Q3-B)*%
X137080000Y-89500000D02*
X135050000Y-91530000D01*
X135050000Y-91530000D02*
X130600000Y-91530000D01*
%TO.N,Net-(Q4-B)*%
X132450000Y-98130000D02*
X130600000Y-98130000D01*
X137080000Y-93500000D02*
X132450000Y-98130000D01*
%TD*%
M02*
